  0
SECTION
  2
HEADER
  9
$ACADVER
  1
AC1027
  9
$ACADMAINTVER
 70
105
  9
$DWGCODEPAGE
  3
ANSI_1252
  9
$LASTSAVEDBY
  1
ezdxf
  9
$REQUIREDVERSIONS
160
0
  9
$INSBASE
 10
0.0
 20
0.0
 30
0.0
  9
$EXTMIN
 10
1e+20
 20
1e+20
 30
1e+20
  9
$EXTMAX
 10
-1e+20
 20
-1e+20
 30
-1e+20
  9
$LIMMIN
 10
0.0
 20
0.0
  9
$LIMMAX
 10
420.0
 20
297.0
  9
$ORTHOMODE
 70
0
  9
$REGENMODE
 70
1
  9
$FILLMODE
 70
1
  9
$QTEXTMODE
 70
0
  9
$MIRRTEXT
 70
1
  9
$LTSCALE
 40
1.0
  9
$ATTMODE
 70
1
  9
$TEXTSIZE
 40
2.5
  9
$TRACEWID
 40
1.0
  9
$TEXTSTYLE
  7
Standard
  9
$CLAYER
  8
0
  9
$CELTYPE
  6
ByLayer
  9
$CECOLOR
 62
256
  9
$CELTSCALE
 40
1.0
  9
$DISPSILH
 70
0
  9
$DIMSCALE
 40
1.0
  9
$DIMASZ
 40
2.5
  9
$DIMEXO
 40
0.625
  9
$DIMDLI
 40
3.75
  9
$DIMRND
 40
0.0
  9
$DIMDLE
 40
0.0
  9
$DIMEXE
 40
1.25
  9
$DIMTP
 40
0.0
  9
$DIMTM
 40
0.0
  9
$DIMTXT
 40
2.5
  9
$DIMCEN
 40
2.5
  9
$DIMTSZ
 40
0.0
  9
$DIMTOL
 70
0
  9
$DIMLIM
 70
0
  9
$DIMTIH
 70
0
  9
$DIMTOH
 70
0
  9
$DIMSE1
 70
0
  9
$DIMSE2
 70
0
  9
$DIMTAD
 70
1
  9
$DIMZIN
 70
8
  9
$DIMBLK
  1

  9
$DIMASO
 70
1
  9
$DIMSHO
 70
1
  9
$DIMPOST
  1

  9
$DIMAPOST
  1

  9
$DIMALT
 70
0
  9
$DIMALTD
 70
3
  9
$DIMALTF
 40
0.03937007874
  9
$DIMLFAC
 40
1.0
  9
$DIMTOFL
 70
1
  9
$DIMTVP
 40
0.0
  9
$DIMTIX
 70
0
  9
$DIMSOXD
 70
0
  9
$DIMSAH
 70
0
  9
$DIMBLK1
  1

  9
$DIMBLK2
  1

  9
$DIMSTYLE
  2
ISO-25
  9
$DIMCLRD
 70
0
  9
$DIMCLRE
 70
0
  9
$DIMCLRT
 70
0
  9
$DIMTFAC
 40
1.0
  9
$DIMGAP
 40
0.625
  9
$DIMJUST
 70
0
  9
$DIMSD1
 70
0
  9
$DIMSD2
 70
0
  9
$DIMTOLJ
 70
0
  9
$DIMTZIN
 70
8
  9
$DIMALTZ
 70
0
  9
$DIMALTTZ
 70
0
  9
$DIMUPT
 70
0
  9
$DIMDEC
 70
2
  9
$DIMTDEC
 70
2
  9
$DIMALTU
 70
2
  9
$DIMALTTD
 70
3
  9
$DIMTXSTY
  7
Standard
  9
$DIMAUNIT
 70
0
  9
$DIMADEC
 70
0
  9
$DIMALTRND
 40
0.0
  9
$DIMAZIN
 70
0
  9
$DIMDSEP
 70
44
  9
$DIMATFIT
 70
3
  9
$DIMFRAC
 70
0
  9
$DIMLDRBLK
  1

  9
$DIMLUNIT
 70
2
  9
$DIMLWD
 70
-2
  9
$DIMLWE
 70
-2
  9
$DIMTMOVE
 70
0
  9
$DIMFXL
 40
1.0
  9
$DIMFXLON
 70
0
  9
$DIMJOGANG
 40
0.785398163397
  9
$DIMTFILL
 70
0
  9
$DIMTFILLCLR
 70
0
  9
$DIMARCSYM
 70
0
  9
$DIMLTYPE
  6

  9
$DIMLTEX1
  6

  9
$DIMLTEX2
  6

  9
$DIMTXTDIRECTION
 70
0
  9
$LUNITS
 70
2
  9
$LUPREC
 70
4
  9
$SKETCHINC
 40
1.0
  9
$FILLETRAD
 40
10.0
  9
$AUNITS
 70
0
  9
$AUPREC
 70
2
  9
$MENU
  1
.
  9
$ELEVATION
 40
0.0
  9
$PELEVATION
 40
0.0
  9
$THICKNESS
 40
0.0
  9
$LIMCHECK
 70
0
  9
$CHAMFERA
 40
0.0
  9
$CHAMFERB
 40
0.0
  9
$CHAMFERC
 40
0.0
  9
$CHAMFERD
 40
0.0
  9
$SKPOLY
 70
0
  9
$TDCREATE
 40
2460948.6688310187
  9
$TDUCREATE
 40
2458532.153996898
  9
$TDUPDATE
 40
2460948.6688425927
  9
$TDUUPDATE
 40
2458532.1544311
  9
$TDINDWG
 40
0.0
  9
$TDUSRTIMER
 40
0.0
  9
$USRTIMER
 70
1
  9
$ANGBASE
 50
0.0
  9
$ANGDIR
 70
0
  9
$PDMODE
 70
0
  9
$PDSIZE
 40
0.0
  9
$PLINEWID
 40
0.0
  9
$SPLFRAME
 70
0
  9
$SPLINETYPE
 70
6
  9
$SPLINESEGS
 70
8
  9
$HANDSEED
  5
3CB
  9
$SURFTAB1
 70
6
  9
$SURFTAB2
 70
6
  9
$SURFTYPE
 70
6
  9
$SURFU
 70
6
  9
$SURFV
 70
6
  9
$UCSBASE
  2

  9
$UCSNAME
  2

  9
$UCSORG
 10
0.0
 20
0.0
 30
0.0
  9
$UCSXDIR
 10
1.0
 20
0.0
 30
0.0
  9
$UCSYDIR
 10
0.0
 20
1.0
 30
0.0
  9
$UCSORTHOREF
  2

  9
$UCSORTHOVIEW
 70
0
  9
$UCSORGTOP
 10
0.0
 20
0.0
 30
0.0
  9
$UCSORGBOTTOM
 10
0.0
 20
0.0
 30
0.0
  9
$UCSORGLEFT
 10
0.0
 20
0.0
 30
0.0
  9
$UCSORGRIGHT
 10
0.0
 20
0.0
 30
0.0
  9
$UCSORGFRONT
 10
0.0
 20
0.0
 30
0.0
  9
$UCSORGBACK
 10
0.0
 20
0.0
 30
0.0
  9
$PUCSBASE
  2

  9
$PUCSNAME
  2

  9
$PUCSORG
 10
0.0
 20
0.0
 30
0.0
  9
$PUCSXDIR
 10
1.0
 20
0.0
 30
0.0
  9
$PUCSYDIR
 10
0.0
 20
1.0
 30
0.0
  9
$PUCSORTHOREF
  2

  9
$PUCSORTHOVIEW
 70
0
  9
$PUCSORGTOP
 10
0.0
 20
0.0
 30
0.0
  9
$PUCSORGBOTTOM
 10
0.0
 20
0.0
 30
0.0
  9
$PUCSORGLEFT
 10
0.0
 20
0.0
 30
0.0
  9
$PUCSORGRIGHT
 10
0.0
 20
0.0
 30
0.0
  9
$PUCSORGFRONT
 10
0.0
 20
0.0
 30
0.0
  9
$PUCSORGBACK
 10
0.0
 20
0.0
 30
0.0
  9
$USERI1
 70
0
  9
$USERI2
 70
0
  9
$USERI3
 70
0
  9
$USERI4
 70
0
  9
$USERI5
 70
0
  9
$USERR1
 40
0.0
  9
$USERR2
 40
0.0
  9
$USERR3
 40
0.0
  9
$USERR4
 40
0.0
  9
$USERR5
 40
0.0
  9
$WORLDVIEW
 70
1
  9
$SHADEDGE
 70
3
  9
$SHADEDIF
 70
70
  9
$TILEMODE
 70
1
  9
$MAXACTVP
 70
64
  9
$PINSBASE
 10
0.0
 20
0.0
 30
0.0
  9
$PLIMCHECK
 70
0
  9
$PEXTMIN
 10
1e+20
 20
1e+20
 30
1e+20
  9
$PEXTMAX
 10
-1e+20
 20
-1e+20
 30
-1e+20
  9
$PLIMMIN
 10
0.0
 20
0.0
  9
$PLIMMAX
 10
420.0
 20
297.0
  9
$UNITMODE
 70
0
  9
$VISRETAIN
 70
1
  9
$PLINEGEN
 70
0
  9
$PSLTSCALE
 70
1
  9
$TREEDEPTH
 70
3020
  9
$CMLSTYLE
  2
Standard
  9
$CMLJUST
 70
0
  9
$CMLSCALE
 40
20.0
  9
$PROXYGRAPHICS
 70
1
  9
$MEASUREMENT
 70
1
  9
$CELWEIGHT
370
-1
  9
$ENDCAPS
280
0
  9
$JOINSTYLE
280
0
  9
$LWDISPLAY
290
0
  9
$INSUNITS
 70
6
  9
$HYPERLINKBASE
  1

  9
$STYLESHEET
  1

  9
$XEDIT
290
1
  9
$CEPSNTYPE
380
0
  9
$PSTYLEMODE
290
1
  9
$FINGERPRINTGUID
  2
{A6CCB1F0-9C75-41BE-BB31-353AFE316074}
  9
$VERSIONGUID
  2
{FE62B000-BD4C-4FC4-A271-469AEBF6D65D}
  9
$EXTNAMES
290
1
  9
$PSVPSCALE
 40
0.0
  9
$OLESTARTUP
290
0
  9
$SORTENTS
280
127
  9
$INDEXCTL
280
0
  9
$HIDETEXT
280
1
  9
$XCLIPFRAME
280
1
  9
$HALOGAP
280
0
  9
$OBSCOLOR
 70
257
  9
$OBSLTYPE
280
0
  9
$INTERSECTIONDISPLAY
280
0
  9
$INTERSECTIONCOLOR
 70
257
  9
$DIMASSOC
280
2
  9
$PROJECTNAME
  1

  9
$CAMERADISPLAY
290
0
  9
$LENSLENGTH
 40
50.0
  9
$CAMERAHEIGHT
 40
0.0
  9
$STEPSPERSEC
 40
24.0
  9
$STEPSIZE
 40
100.0
  9
$3DDWFPREC
 40
2.0
  9
$PSOLWIDTH
 40
0.005
  9
$PSOLHEIGHT
 40
0.08
  9
$LOFTANG1
 40
1.570796326795
  9
$LOFTANG2
 40
1.570796326795
  9
$LOFTMAG1
 40
0.0
  9
$LOFTMAG2
 40
0.0
  9
$LOFTPARAM
 70
7
  9
$LOFTNORMALS
280
1
  9
$LATITUDE
 40
37.795
  9
$LONGITUDE
 40
-122.394
  9
$NORTHDIRECTION
 40
0.0
  9
$TIMEZONE
 70
-8000
  9
$LIGHTGLYPHDISPLAY
280
1
  9
$TILEMODELIGHTSYNCH
280
1
  9
$CMATERIAL
347
20
  9
$SOLIDHIST
280
0
  9
$SHOWHIST
280
1
  9
$DWFFRAME
280
2
  9
$DGNFRAME
280
2
  9
$REALWORLDSCALE
290
1
  9
$INTERFERECOLOR
 62
256
  9
$CSHADOW
280
0
  9
$SHADOWPLANELOCATION
 40
0.0
  0
ENDSEC
  0
SECTION
  2
CLASSES
  0
CLASS
  1
ACDBDICTIONARYWDFLT
  2
AcDbDictionaryWithDefault
  3
ObjectDBX Classes
 90
0
 91
0
280
0
281
0
  0
CLASS
  1
SUN
  2
AcDbSun
  3
SCENEOE
 90
1153
 91
0
280
0
281
0
  0
CLASS
  1
VISUALSTYLE
  2
AcDbVisualStyle
  3
ObjectDBX Classes
 90
4095
 91
0
280
0
281
0
  0
CLASS
  1
MATERIAL
  2
AcDbMaterial
  3
ObjectDBX Classes
 90
1153
 91
0
280
0
281
0
  0
CLASS
  1
SCALE
  2
AcDbScale
  3
ObjectDBX Classes
 90
1153
 91
0
280
0
281
0
  0
CLASS
  1
TABLESTYLE
  2
AcDbTableStyle
  3
ObjectDBX Classes
 90
4095
 91
0
280
0
281
0
  0
CLASS
  1
MLEADERSTYLE
  2
AcDbMLeaderStyle
  3
ACDB_MLEADERSTYLE_CLASS
 90
4095
 91
0
280
0
281
0
  0
CLASS
  1
DICTIONARYVAR
  2
AcDbDictionaryVar
  3
ObjectDBX Classes
 90
0
 91
0
280
0
281
0
  0
CLASS
  1
CELLSTYLEMAP
  2
AcDbCellStyleMap
  3
ObjectDBX Classes
 90
1152
 91
0
280
0
281
0
  0
CLASS
  1
MENTALRAYRENDERSETTINGS
  2
AcDbMentalRayRenderSettings
  3
SCENEOE
 90
1024
 91
0
280
0
281
0
  0
CLASS
  1
ACDBDETAILVIEWSTYLE
  2
AcDbDetailViewStyle
  3
ObjectDBX Classes
 90
1025
 91
0
280
0
281
0
  0
CLASS
  1
ACDBSECTIONVIEWSTYLE
  2
AcDbSectionViewStyle
  3
ObjectDBX Classes
 90
1025
 91
0
280
0
281
0
  0
CLASS
  1
RASTERVARIABLES
  2
AcDbRasterVariables
  3
ISM
 90
0
 91
0
280
0
281
0
  0
CLASS
  1
LAYOUT
  2
AcDbLayout
  3
ObjectDBX Classes
 90
0
 91
0
280
0
281
0
  0
CLASS
  1
ACDBPLACEHOLDER
  2
AcDbPlaceHolder
  3
ObjectDBX Classes
 90
0
 91
0
280
0
281
0
  0
ENDSEC
  0
SECTION
  2
TABLES
  0
TABLE
  2
VPORT
  5
8
330
0
100
AcDbSymbolTable
 70
1
  0
VPORT
  5
23
330
8
100
AcDbSymbolTableRecord
100
AcDbViewportTableRecord
  2
*Active
 70
0
 10
0.0
 20
0.0
 11
1.0
 21
1.0
 12
0.0
 22
0.0
 13
0.0
 23
0.0
 14
0.5
 24
0.5
 15
0.5
 25
0.5
 16
0.0
 26
0.0
 36
1.0
 17
0.0
 27
0.0
 37
0.0
 40
1000.0
 41
1.34
 42
50.0
 43
0.0
 44
0.0
 50
0.0
 51
0.0
 71
0
 72
1000
 73
1
 74
3
 75
0
 76
0
 77
0
 78
0
281
0
 65
0
146
0.0
  0
ENDTAB
  0
TABLE
  2
LTYPE
  5
2
330
0
100
AcDbSymbolTable
 70
7
  0
LTYPE
  5
24
330
2
100
AcDbSymbolTableRecord
100
AcDbLinetypeTableRecord
  2
ByBlock
 70
0
  3

 72
65
 73
0
 40
0.0
  0
LTYPE
  5
25
330
2
100
AcDbSymbolTableRecord
100
AcDbLinetypeTableRecord
  2
ByLayer
 70
0
  3

 72
65
 73
0
 40
0.0
  0
LTYPE
  5
26
330
2
100
AcDbSymbolTableRecord
100
AcDbLinetypeTableRecord
  2
Continuous
 70
0
  3

 72
65
 73
0
 40
0.0
  0
LTYPE
  5
3C
330
2
100
AcDbSymbolTableRecord
100
AcDbLinetypeTableRecord
  2
HIDDEN
 70
0
  3
Hidden __ __ __ __ __ __ __ __ __ __ __ __ __ _
 72
65
 73
2
 40
9.525
 49
6.349999999999998
 74
0
 49
-3.174999999999998
 74
0
  0
LTYPE
  5
3D
330
2
100
AcDbSymbolTableRecord
100
AcDbLinetypeTableRecord
  2
a_p6_plan_L18$0$HIDDEN
 70
0
  3
Hidden __ __ __ __ __ __ __ __ __ __ __ __ __ _
 72
65
 73
2
 40
0.375
 49
0.25
 74
0
 49
-0.125
 74
0
  0
LTYPE
  5
FC
330
2
100
AcDbSymbolTableRecord
100
AcDbLinetypeTableRecord
  2
ACAD_ISO03W100
 70
0
  3
ISO dash space __    __    __    __    __    __
 72
65
 73
2
 40
30.0
 49
12.0
 74
0
 49
-18.0
 74
0
  0
LTYPE
  5
22E
330
2
100
AcDbSymbolTableRecord
100
AcDbLinetypeTableRecord
  2
DASHDOT2
 70
0
  3
Dash dot (.5x) _._._._._._._._._._._._._._._.
 72
65
 73
4
 40
0.5
 49
0.25
 74
0
 49
-0.125
 74
0
 49
0.0
 74
0
 49
-0.125
 74
0
  0
ENDTAB
  0
TABLE
  2
LAYER
  5
1
330
0
100
AcDbSymbolTable
 70
17
  0
LAYER
  5
27
330
1
100
AcDbSymbolTableRecord
100
AcDbLayerTableRecord
  2
0
 70
0
 62
7
  6
Continuous
370
-3
390
13
347
21
  0
LAYER
  5
28
330
1
100
AcDbSymbolTableRecord
100
AcDbLayerTableRecord
  2
Defpoints
 70
0
 62
7
  6
Continuous
290
0
370
-3
390
13
347
21
  0
LAYER
  5
2F
330
1
100
AcDbSymbolTableRecord
100
AcDbLayerTableRecord
  2
FloorPlan
 70
0
 62
1
  6
Continuous
370
-3
390
13
347
21
  0
LAYER
  5
30
330
1
100
AcDbSymbolTableRecord
100
AcDbLayerTableRecord
  2
Fixtures
 70
0
 62
3
  6
Continuous
370
-3
390
13
347
21
  0
LAYER
  5
31
330
1
100
AcDbSymbolTableRecord
100
AcDbLayerTableRecord
  2
FixtureLabels
 70
0
 62
2
  6
Continuous
370
-3
390
13
347
21
  0
LAYER
  5
3E
330
1
100
AcDbSymbolTableRecord
100
AcDbLayerTableRecord
  2
LN-ELEVATION-1
 70
0
 62
81
  6
Continuous
370
13
390
13
347
21
348
0
  0
LAYER
  5
3F
330
1
100
AcDbSymbolTableRecord
100
AcDbLayerTableRecord
  2
LN-ELEVATION-3
 70
0
 62
125
  6
a_p6_plan_L18$0$HIDDEN
370
18
390
13
347
21
348
0
  0
LAYER
  5
40
330
1
100
AcDbSymbolTableRecord
100
AcDbLayerTableRecord
  2
I-LK FF&E
 70
0
 62
1
  6
Continuous
370
9
390
13
347
21
348
0
  0
LAYER
  5
41
330
1
100
AcDbSymbolTableRecord
100
AcDbLayerTableRecord
  2
LN-ELEVATION-2
 70
0
 62
103
  6
Continuous
370
20
390
13
347
21
348
0
  0
LAYER
  5
42
330
1
100
AcDbSymbolTableRecord
100
AcDbLayerTableRecord
  2
Door
 70
0
 62
2
  6
Continuous
370
13
390
13
347
21
348
0
  0
LAYER
  5
79
330
1
100
AcDbSymbolTableRecord
100
AcDbLayerTableRecord
  2
LN-ELEVATION-4
 70
0
 62
145
  6
Continuous
370
13
390
13
347
21
348
0
  0
LAYER
  5
7A
330
1
100
AcDbSymbolTableRecord
100
AcDbLayerTableRecord
  2
LN-HATCH
 70
0
 62
251
  6
Continuous
370
0
390
13
347
21
348
0
  0
LAYER
  5
91
330
1
100
AcDbSymbolTableRecord
100
AcDbLayerTableRecord
  2
I-LK TEXT
 70
0
 62
31
  6
Continuous
370
5
390
13
347
21
348
0
  0
LAYER
  5
22F
330
1
100
AcDbSymbolTableRecord
100
AcDbLayerTableRecord
  2
I-LK IT
 70
0
 62
3
  6
Continuous
370
18
390
13
347
21
348
0
  0
LAYER
  5
230
330
1
100
AcDbSymbolTableRecord
100
AcDbLayerTableRecord
  2
I-LK EQPMT
 70
0
 62
3
  6
Continuous
370
18
390
13
347
21
348
0
  0
LAYER
  5
286
330
1
100
AcDbSymbolTableRecord
100
AcDbLayerTableRecord
  2
LN-ELEVATION-5
 70
0
 62
167
  6
Continuous
370
5
390
13
347
21
348
0
  0
LAYER
  5
287
330
1
100
AcDbSymbolTableRecord
100
AcDbLayerTableRecord
  2
I-LK DIM
 70
0
 62
252
  6
Continuous
370
5
390
13
347
21
348
0
  0
ENDTAB
  0
TABLE
  2
STYLE
  5
5
330
0
100
AcDbSymbolTable
 70
2
  0
STYLE
  5
29
330
5
100
AcDbSymbolTableRecord
100
AcDbTextStyleTableRecord
  2
Standard
 70
0
 40
0.0
 41
1.0
 50
0.0
 71
0
 42
2.5
  3
txt
  4

  0
STYLE
  5
43
330
5
100
AcDbSymbolTableRecord
100
AcDbTextStyleTableRecord
  2
LK TXT
 70
0
 40
0.0
 41
1.0
 50
0.0
 71
0
 42
250.0
  3
Arial Narrow.ttf
  4

  0
ENDTAB
  0
TABLE
  2
VIEW
  5
7
330
0
100
AcDbSymbolTable
 70
0
  0
ENDTAB
  0
TABLE
  2
UCS
  5
6
330
0
100
AcDbSymbolTable
 70
0
  0
ENDTAB
  0
TABLE
  2
APPID
  5
3
330
0
100
AcDbSymbolTable
 70
3
  0
APPID
  5
2A
330
3
100
AcDbSymbolTableRecord
100
AcDbRegAppTableRecord
  2
ACAD
 70
0
  0
APPID
  5
3C8
330
3
100
AcDbSymbolTableRecord
100
AcDbRegAppTableRecord
  2
HATCHBACKGROUNDCOLOR
 70
0
  0
APPID
  5
3C9
330
3
100
AcDbSymbolTableRecord
100
AcDbRegAppTableRecord
  2
EZDXF
 70
0
  0
ENDTAB
  0
TABLE
  2
DIMSTYLE
  5
4
330
0
100
AcDbSymbolTable
 70
2
100
AcDbDimStyleTable
  0
DIMSTYLE
105
2B
330
4
100
AcDbSymbolTableRecord
100
AcDbDimStyleTableRecord
  2
Standard
 70
0
 40
1.0
 41
2.5
 42
0.625
 43
3.75
 44
1.25
 45
0.0
 46
0.0
 47
0.0
 48
0.0
 49
2.5
140
2.5
141
2.5
142
0.0
143
0.03937007874
144
1.0
145
0.0
146
1.0
147
0.625
148
0.0
 69
0
 70
0
 71
0
 72
0
 73
0
 74
0
 75
0
 76
0
 77
1
 78
8
 79
3
170
0
171
3
172
1
173
0
174
0
175
0
176
0
177
0
178
0
179
2
271
2
272
2
273
2
274
3
275
0
276
0
277
2
278
44
279
0
280
0
281
0
282
0
283
0
284
8
285
0
286
0
288
0
289
3
290
0
371
-2
372
-2
  0
DIMSTYLE
105
44
330
4
100
AcDbSymbolTableRecord
100
AcDbDimStyleTableRecord
  2
LK-MM 100
 70
0
 40
0.8
 41
50.0
 42
50.0
 43
50.0
 44
50.0
 45
0.0
 46
50.0
 47
0.0
 48
0.0
 49
3.0
140
100.0
141
0.0
142
0.0
143
0.03937
144
1.0
145
0.0
146
1.0
147
25.0
148
0.0
 69
0
 70
0
 71
0
 72
0
 73
0
 74
0
 75
0
 76
0
 77
1
 78
8
 79
3
170
0
171
1
172
1
173
0
174
0
175
0
176
8
177
8
178
256
179
2
271
0
272
0
273
6
274
1
275
0
276
0
277
2
278
44
279
1
280
0
281
0
282
0
283
0
284
8
285
8
286
8
288
0
289
3
290
0
340
43
342
45
343
45
344
45
345
25
346
3C
347
3C
371
5
372
0
  0
ENDTAB
  0
TABLE
  2
BLOCK_RECORD
  5
9
330
0
100
AcDbSymbolTable
 70
71
  0
BLOCK_RECORD
  5
17
330
9
100
AcDbSymbolTableRecord
100
AcDbBlockTableRecord
  2
*Model_Space
340
1A
 70
0
280
1
281
0
  0
BLOCK_RECORD
  5
1B
330
9
100
AcDbSymbolTableRecord
100
AcDbBlockTableRecord
  2
*Paper_Space
340
1E
 70
0
280
1
281
0
  0
BLOCK_RECORD
  5
37
330
9
100
AcDbSymbolTableRecord
100
AcDbBlockTableRecord
  2
SOFA_1
340
0
 70
0
280
1
281
0
  0
BLOCK_RECORD
  5
45
330
9
100
AcDbSymbolTableRecord
100
AcDbBlockTableRecord
  2
_archtick
340
0
 70
0
280
1
281
0
  0
BLOCK_RECORD
  5
49
330
9
100
AcDbSymbolTableRecord
100
AcDbBlockTableRecord
  2
nesting tables
340
0
 70
0
280
1
281
0
  0
BLOCK_RECORD
  5
60
330
9
100
AcDbSymbolTableRecord
100
AcDbBlockTableRecord
  2
SOFA_2
340
0
 70
0
280
1
281
0
  0
BLOCK_RECORD
  5
67
330
9
100
AcDbSymbolTableRecord
100
AcDbBlockTableRecord
  2
SOFA_3
340
0
 70
0
280
1
281
0
  0
BLOCK_RECORD
  5
74
330
9
100
AcDbSymbolTableRecord
100
AcDbBlockTableRecord
  2
MIRROR_1
340
0
 70
0
280
1
281
0
  0
BLOCK_RECORD
  5
7B
330
9
100
AcDbSymbolTableRecord
100
AcDbBlockTableRecord
  2
mirror unit see thru
340
0
 70
0
280
1
281
0
  0
BLOCK_RECORD
  5
8B
330
9
100
AcDbSymbolTableRecord
100
AcDbBlockTableRecord
  2
STAFF_RACK_1
340
0
 70
0
280
1
281
0
  0
BLOCK_RECORD
  5
94
330
9
100
AcDbSymbolTableRecord
100
AcDbBlockTableRecord
  2
STAFF_RACK_2
340
0
 70
0
280
1
281
0
  0
BLOCK_RECORD
  5
9C
330
9
100
AcDbSymbolTableRecord
100
AcDbBlockTableRecord
  2
STAFF_RACK_3
340
0
 70
0
280
1
281
0
  0
BLOCK_RECORD
  5
A4
330
9
100
AcDbSymbolTableRecord
100
AcDbBlockTableRecord
  2
STAFF_RACK_4
340
0
 70
0
280
1
281
0
  0
BLOCK_RECORD
  5
AC
330
9
100
AcDbSymbolTableRecord
100
AcDbBlockTableRecord
  2
STAFF_RACK_5
340
0
 70
0
280
1
281
0
  0
BLOCK_RECORD
  5
B4
330
9
100
AcDbSymbolTableRecord
100
AcDbBlockTableRecord
  2
STAFF_RACK_6
340
0
 70
0
280
1
281
0
  0
BLOCK_RECORD
  5
BC
330
9
100
AcDbSymbolTableRecord
100
AcDbBlockTableRecord
  2
STAFF_RACK_7
340
0
 70
0
280
1
281
0
  0
BLOCK_RECORD
  5
CE
330
9
100
AcDbSymbolTableRecord
100
AcDbBlockTableRecord
  2
VC_FIXTURE_LARGE_1
340
0
 70
0
280
1
281
0
  0
BLOCK_RECORD
  5
D3
330
9
100
AcDbSymbolTableRecord
100
AcDbBlockTableRecord
  2
12mm vc plan
340
0
 70
0
280
1
281
0
  0
BLOCK_RECORD
  5
F7
330
9
100
AcDbSymbolTableRecord
100
AcDbBlockTableRecord
  2
JJ_FIXTURE_MEDIUM_1
340
0
 70
0
280
1
281
0
  0
BLOCK_RECORD
  5
FD
330
9
100
AcDbSymbolTableRecord
100
AcDbBlockTableRecord
  2
jj 900
340
0
 70
0
280
1
281
0
  0
BLOCK_RECORD
  5
110
330
9
100
AcDbSymbolTableRecord
100
AcDbBlockTableRecord
  2
VC_FIXTURE_LARGE_2
340
0
 70
0
280
1
281
0
  0
BLOCK_RECORD
  5
117
330
9
100
AcDbSymbolTableRecord
100
AcDbBlockTableRecord
  2
VC_FIXTURE_LARGE_3
340
0
 70
0
280
1
281
0
  0
BLOCK_RECORD
  5
11E
330
9
100
AcDbSymbolTableRecord
100
AcDbBlockTableRecord
  2
JJ_FIXTURE_MEDIUM_2
340
0
 70
0
280
1
281
0
  0
BLOCK_RECORD
  5
125
330
9
100
AcDbSymbolTableRecord
100
AcDbBlockTableRecord
  2
JJ_FIXTURE_LARGE_1
340
0
 70
0
280
1
281
0
  0
BLOCK_RECORD
  5
12A
330
9
100
AcDbSymbolTableRecord
100
AcDbBlockTableRecord
  2
jj 1200
340
0
 70
0
280
1
281
0
  0
BLOCK_RECORD
  5
139
330
9
100
AcDbSymbolTableRecord
100
AcDbBlockTableRecord
  2
VC_FIXTURE_LARGE_4
340
0
 70
0
280
1
281
0
  0
BLOCK_RECORD
  5
140
330
9
100
AcDbSymbolTableRecord
100
AcDbBlockTableRecord
  2
VC_FIXTURE_LARGE_5
340
0
 70
0
280
1
281
0
  0
BLOCK_RECORD
  5
147
330
9
100
AcDbSymbolTableRecord
100
AcDbBlockTableRecord
  2
JJ_FIXTURE_LARGE_2
340
0
 70
0
280
1
281
0
  0
BLOCK_RECORD
  5
14E
330
9
100
AcDbSymbolTableRecord
100
AcDbBlockTableRecord
  2
MIRROR_2
340
0
 70
0
280
1
281
0
  0
BLOCK_RECORD
  5
157
330
9
100
AcDbSymbolTableRecord
100
AcDbBlockTableRecord
  2
MIRROR_3
340
0
 70
0
280
1
281
0
  0
BLOCK_RECORD
  5
160
330
9
100
AcDbSymbolTableRecord
100
AcDbBlockTableRecord
  2
MIRROR_4
340
0
 70
0
280
1
281
0
  0
BLOCK_RECORD
  5
169
330
9
100
AcDbSymbolTableRecord
100
AcDbBlockTableRecord
  2
MIRROR_5
340
0
 70
0
280
1
281
0
  0
BLOCK_RECORD
  5
172
330
9
100
AcDbSymbolTableRecord
100
AcDbBlockTableRecord
  2
MIRROR_6
340
0
 70
0
280
1
281
0
  0
BLOCK_RECORD
  5
17B
330
9
100
AcDbSymbolTableRecord
100
AcDbBlockTableRecord
  2
MIRROR_7
340
0
 70
0
280
1
281
0
  0
BLOCK_RECORD
  5
184
330
9
100
AcDbSymbolTableRecord
100
AcDbBlockTableRecord
  2
MIRROR_8
340
0
 70
0
280
1
281
0
  0
BLOCK_RECORD
  5
18D
330
9
100
AcDbSymbolTableRecord
100
AcDbBlockTableRecord
  2
MIRROR_9
340
0
 70
0
280
1
281
0
  0
BLOCK_RECORD
  5
196
330
9
100
AcDbSymbolTableRecord
100
AcDbBlockTableRecord
  2
VC_FIXTURE_LARGE_6
340
0
 70
0
280
1
281
0
  0
BLOCK_RECORD
  5
19D
330
9
100
AcDbSymbolTableRecord
100
AcDbBlockTableRecord
  2
JJ_FIXTURE_LARGE_3
340
0
 70
0
280
1
281
0
  0
BLOCK_RECORD
  5
1A4
330
9
100
AcDbSymbolTableRecord
100
AcDbBlockTableRecord
  2
VC_FIXTURE_LARGE_7
340
0
 70
0
280
1
281
0
  0
BLOCK_RECORD
  5
1AB
330
9
100
AcDbSymbolTableRecord
100
AcDbBlockTableRecord
  2
VC_FIXTURE_LARGE_8
340
0
 70
0
280
1
281
0
  0
BLOCK_RECORD
  5
1B2
330
9
100
AcDbSymbolTableRecord
100
AcDbBlockTableRecord
  2
JJ_FIXTURE_MEDIUM_3
340
0
 70
0
280
1
281
0
  0
BLOCK_RECORD
  5
1B9
330
9
100
AcDbSymbolTableRecord
100
AcDbBlockTableRecord
  2
JJ_FIXTURE_LARGE_4
340
0
 70
0
280
1
281
0
  0
BLOCK_RECORD
  5
1C0
330
9
100
AcDbSymbolTableRecord
100
AcDbBlockTableRecord
  2
VC_FIXTURE_LARGE_9
340
0
 70
0
280
1
281
0
  0
BLOCK_RECORD
  5
1C7
330
9
100
AcDbSymbolTableRecord
100
AcDbBlockTableRecord
  2
VC_FIXTURE_LARGE_10
340
0
 70
0
280
1
281
0
  0
BLOCK_RECORD
  5
1CE
330
9
100
AcDbSymbolTableRecord
100
AcDbBlockTableRecord
  2
VC_FIXTURE_LARGE_11
340
0
 70
0
280
1
281
0
  0
BLOCK_RECORD
  5
1D5
330
9
100
AcDbSymbolTableRecord
100
AcDbBlockTableRecord
  2
MIRROR_10
340
0
 70
0
280
1
281
0
  0
BLOCK_RECORD
  5
1DE
330
9
100
AcDbSymbolTableRecord
100
AcDbBlockTableRecord
  2
MIRROR_11
340
0
 70
0
280
1
281
0
  0
BLOCK_RECORD
  5
1E7
330
9
100
AcDbSymbolTableRecord
100
AcDbBlockTableRecord
  2
MIRROR_12
340
0
 70
0
280
1
281
0
  0
BLOCK_RECORD
  5
1F0
330
9
100
AcDbSymbolTableRecord
100
AcDbBlockTableRecord
  2
MIRROR_13
340
0
 70
0
280
1
281
0
  0
BLOCK_RECORD
  5
1F9
330
9
100
AcDbSymbolTableRecord
100
AcDbBlockTableRecord
  2
MIRROR_14
340
0
 70
0
280
1
281
0
  0
BLOCK_RECORD
  5
202
330
9
100
AcDbSymbolTableRecord
100
AcDbBlockTableRecord
  2
MIRROR_15
340
0
 70
0
280
1
281
0
  0
BLOCK_RECORD
  5
20B
330
9
100
AcDbSymbolTableRecord
100
AcDbBlockTableRecord
  2
MIRROR_16
340
0
 70
0
280
1
281
0
  0
BLOCK_RECORD
  5
214
330
9
100
AcDbSymbolTableRecord
100
AcDbBlockTableRecord
  2
MIRROR_17
340
0
 70
0
280
1
281
0
  0
BLOCK_RECORD
  5
21D
330
9
100
AcDbSymbolTableRecord
100
AcDbBlockTableRecord
  2
SCREEN_55_1
340
0
 70
0
280
1
281
0
  0
BLOCK_RECORD
  5
231
330
9
100
AcDbSymbolTableRecord
100
AcDbBlockTableRecord
  2
it 55inch tv
340
0
 70
0
280
1
281
0
  0
BLOCK_RECORD
  5
249
330
9
100
AcDbSymbolTableRecord
100
AcDbBlockTableRecord
  2
MIRROR_DIFFERENT_1
340
0
 70
0
280
1
281
0
  0
BLOCK_RECORD
  5
24E
330
9
100
AcDbSymbolTableRecord
100
AcDbBlockTableRecord
  2
mirror unit
340
0
 70
0
280
1
281
0
  0
BLOCK_RECORD
  5
25E
330
9
100
AcDbSymbolTableRecord
100
AcDbBlockTableRecord
  2
MIRROR_DIFFERENT_2
340
0
 70
0
280
1
281
0
  0
BLOCK_RECORD
  5
265
330
9
100
AcDbSymbolTableRecord
100
AcDbBlockTableRecord
  2
MIRROR_DIFFERENT_3
340
0
 70
0
280
1
281
0
  0
BLOCK_RECORD
  5
26C
330
9
100
AcDbSymbolTableRecord
100
AcDbBlockTableRecord
  2
MIRROR_DIFFERENT_4
340
0
 70
0
280
1
281
0
  0
BLOCK_RECORD
  5
273
330
9
100
AcDbSymbolTableRecord
100
AcDbBlockTableRecord
  2
MIRROR_DIFFERENT_5
340
0
 70
0
280
1
281
0
  0
BLOCK_RECORD
  5
27A
330
9
100
AcDbSymbolTableRecord
100
AcDbBlockTableRecord
  2
MIRROR_DIFFERENT_6
340
0
 70
0
280
1
281
0
  0
BLOCK_RECORD
  5
281
330
9
100
AcDbSymbolTableRecord
100
AcDbBlockTableRecord
  2
EURO_CENTRE_1
340
0
 70
0
280
1
281
0
  0
BLOCK_RECORD
  5
288
330
9
100
AcDbSymbolTableRecord
100
AcDbBlockTableRecord
  2
euro mirror
340
0
 70
0
280
1
281
0
  0
BLOCK_RECORD
  5
2D8
330
9
100
AcDbSymbolTableRecord
100
AcDbBlockTableRecord
  2
eurocenter 1040
340
0
 70
0
280
1
281
0
  0
BLOCK_RECORD
  5
36C
330
9
100
AcDbSymbolTableRecord
100
AcDbBlockTableRecord
  2
EURO_CENTRE_2
340
0
 70
0
280
1
281
0
  0
BLOCK_RECORD
  5
375
330
9
100
AcDbSymbolTableRecord
100
AcDbBlockTableRecord
  2
EURO_CENTRE_3
340
0
 70
0
280
1
281
0
  0
BLOCK_RECORD
  5
386
330
9
100
AcDbSymbolTableRecord
100
AcDbBlockTableRecord
  2
EURO_CENTRE_4
340
0
 70
0
280
1
281
0
  0
BLOCK_RECORD
  5
38F
330
9
100
AcDbSymbolTableRecord
100
AcDbBlockTableRecord
  2
EURO_CENTRE_5
340
0
 70
0
280
1
281
0
  0
BLOCK_RECORD
  5
398
330
9
100
AcDbSymbolTableRecord
100
AcDbBlockTableRecord
  2
SOFA_4
340
0
 70
0
280
1
281
0
  0
BLOCK_RECORD
  5
3B9
330
9
100
AcDbSymbolTableRecord
100
AcDbBlockTableRecord
  2
SOFA_5
340
0
 70
0
280
1
281
0
  0
ENDTAB
  0
ENDSEC
  0
SECTION
  2
BLOCKS
  0
BLOCK
  5
18
330
17
100
AcDbEntity
  8
0
100
AcDbBlockBegin
  2
*Model_Space
 70
0
 10
0.0
 20
0.0
 30
0.0
  3
*Model_Space
  1

  0
ENDBLK
  5
19
330
17
100
AcDbEntity
  8
0
100
AcDbBlockEnd
  0
BLOCK
  5
1C
330
1B
100
AcDbEntity
  8
0
100
AcDbBlockBegin
  2
*Paper_Space
 70
0
 10
0.0
 20
0.0
 30
0.0
  3
*Paper_Space
  1

  0
ENDBLK
  5
1D
330
1B
100
AcDbEntity
  8
0
100
AcDbBlockEnd
  0
BLOCK
  5
38
330
37
100
AcDbEntity
  8
0
100
AcDbBlockBegin
  2
SOFA_1
 70
0
 10
0.0
 20
0.0
 30
0.0
  3
SOFA_1
  1

  0
INSERT
  5
3A
330
37
100
AcDbEntity
  8
I-LK FF&E
100
AcDbBlockReference
  2
NESTING TABLES
 10
674.9999999999999
 20
487.5
 30
0.0
 50
180.0
  0
ENDBLK
  5
39
330
37
100
AcDbEntity
  8
0
100
AcDbBlockEnd
  0
BLOCK
  5
46
330
45
100
AcDbEntity
  8
0
100
AcDbBlockBegin
  2
_archtick
 70
0
 10
0.0
 20
0.0
 30
0.0
  3
_archtick
  1

  0
LWPOLYLINE
  5
48
330
45
100
AcDbEntity
  8
0
100
AcDbPolyline
 90
2
 70
0
 43
0.15
 10
-0.5
 20
-0.5
 10
0.5
 20
0.5
  0
ENDBLK
  5
47
330
45
100
AcDbEntity
  8
0
100
AcDbBlockEnd
  0
BLOCK
  5
4A
330
49
100
AcDbEntity
  8
0
100
AcDbBlockBegin
  2
nesting tables
 70
0
 10
0.0
 20
0.0
 30
0.0
  3
nesting tables
  1

  0
LWPOLYLINE
  5
4C
330
49
100
AcDbEntity
  8
LN-ELEVATION-1
100
AcDbPolyline
 90
16
 70
1
 10
315.0
 20
487.4999999999998
 10
635.0
 20
487.4999999999998
 42
-0.4142135623730951
 10
675.0
 20
447.4999999999998
 10
674.9999999999998
 20
-447.5000000000001
 42
-0.4142135623730951
 10
634.9999999999997
 20
-487.5000000000001
 10
-635.0000000000002
 20
-487.4999999999998
 42
-0.4142135623730951
 10
-675.0000000000002
 20
-447.4999999999998
 10
-675.0
 20
447.5000000000001
 42
-0.4142135623730951
 10
-635.0
 20
487.5000000000001
 10
-315.0
 20
487.5000000000001
 42
-0.4142135623730951
 10
-275.0
 20
447.5
 10
-275.0
 20
-47.5
 42
0.4142135623730951
 10
-235.0000000000001
 20
-87.5
 10
234.9999999999998
 20
-87.5
 42
0.4142135623730951
 10
274.9999999999998
 20
-47.5
 10
275.0
 20
447.5
 42
-0.4142135623730951
  0
LWPOLYLINE
  5
4D
330
49
100
AcDbEntity
  8
LN-ELEVATION-3
100
AcDbPolyline
 90
8
 70
1
 10
325.0
 20
437.5
 10
625.0
 20
437.4999999999998
 10
624.9999999999998
 20
-437.5000000000001
 10
-625.0
 20
-437.4999999999998
 10
-625.0
 20
437.5000000000001
 10
-325.0
 20
437.5
 10
-325.0000000000001
 20
-137.4999999999999
 10
324.9999999999998
 20
-137.5000000000001
  0
LWPOLYLINE
  5
4E
330
49
100
AcDbEntity
  8
LN-ELEVATION-3
100
AcDbPolyline
 90
8
 70
1
 10
345.0
 20
417.4999999999998
 10
605.0
 20
417.4999999999998
 10
604.9999999999998
 20
-417.5000000000001
 10
-605.0000000000001
 20
-417.4999999999998
 10
-605.0
 20
417.5000000000001
 10
-345.0
 20
417.4999999999998
 10
-345.0000000000002
 20
-157.4999999999999
 10
344.9999999999998
 20
-157.5000000000001
  0
LWPOLYLINE
  5
4F
330
49
100
AcDbEntity
  8
LN-ELEVATION-2
  6
ByBlock
 62
0
370
-2
100
AcDbPolyline
 90
8
 70
1
 10
-300.0
 20
447.5
 10
-300.0000000000001
 20
-72.5
 42
0.4142135623730951
 10
-260.0
 20
-112.5
 10
259.9999999999998
 20
-112.5
 42
0.4142135623730951
 10
299.9999999999998
 20
-72.5
 10
300.0
 20
447.5
 42
0.4142135623730951
 10
260.0
 20
487.5
 10
-260.0
 20
487.5
 42
0.4142135623730951
  0
LWPOLYLINE
  5
50
330
49
100
AcDbEntity
  8
LN-ELEVATION-3
100
AcDbPolyline
 90
4
 70
1
 10
-250.0
 20
437.5
 10
-250.0000000000001
 20
-62.5
 10
249.9999999999998
 20
-62.5
 10
250.0
 20
437.5
  0
LWPOLYLINE
  5
51
330
49
100
AcDbEntity
  8
LN-ELEVATION-3
100
AcDbPolyline
 90
4
 70
1
 10
-230.0
 20
417.4999999999998
 10
-230.0000000000001
 20
-42.5
 10
230.0
 20
-42.5
 10
230.0
 20
417.4999999999998
  0
LWPOLYLINE
  5
52
330
49
100
AcDbEntity
  8
LN-ELEVATION-3
100
AcDbPolyline
 90
4
 70
1
 10
230.0
 20
417.4999999999998
 10
230.0
 20
437.5
 10
250.0
 20
437.5
 10
250.0
 20
417.4999999999998
  0
LWPOLYLINE
  5
53
330
49
100
AcDbEntity
  8
LN-ELEVATION-3
100
AcDbPolyline
 90
4
 70
1
 10
230.0
 20
-42.5
 10
229.9999999999998
 20
-62.5
 10
249.9999999999998
 20
-62.5
 10
250.0
 20
-42.5
  0
LWPOLYLINE
  5
54
330
49
100
AcDbEntity
  8
LN-ELEVATION-3
100
AcDbPolyline
 90
4
 70
1
 10
-230.0
 20
417.4999999999998
 10
-230.0
 20
437.5
 10
-250.0
 20
437.5
 10
-250.0
 20
417.4999999999998
  0
LWPOLYLINE
  5
55
330
49
100
AcDbEntity
  8
LN-ELEVATION-3
100
AcDbPolyline
 90
4
 70
1
 10
-230.0000000000001
 20
-42.5
 10
-230.0000000000001
 20
-62.5
 10
-250.0000000000001
 20
-62.5
 10
-250.0000000000001
 20
-42.5
  0
LWPOLYLINE
  5
56
330
49
100
AcDbEntity
  8
LN-ELEVATION-3
100
AcDbPolyline
 90
4
 70
1
 10
605.0
 20
417.4999999999998
 10
605.0
 20
437.4999999999998
 10
625.0
 20
437.4999999999998
 10
625.0
 20
417.4999999999998
  0
LWPOLYLINE
  5
57
330
49
100
AcDbEntity
  8
LN-ELEVATION-3
100
AcDbPolyline
 90
4
 70
1
 10
345.0
 20
417.4999999999998
 10
345.0
 20
437.4999999999998
 10
325.0
 20
437.5
 10
325.0
 20
417.4999999999998
  0
LWPOLYLINE
  5
58
330
49
100
AcDbEntity
  8
LN-ELEVATION-3
100
AcDbPolyline
 90
4
 70
1
 10
604.9999999999998
 20
-417.5000000000001
 10
604.9999999999998
 20
-437.5000000000001
 10
624.9999999999998
 20
-437.5000000000001
 10
624.9999999999998
 20
-417.5000000000001
  0
LWPOLYLINE
  5
59
330
49
100
AcDbEntity
  8
LN-ELEVATION-3
100
AcDbPolyline
 90
4
 70
1
 10
324.9999999999998
 20
-137.5000000000001
 10
324.9999999999998
 20
-157.5000000000001
 10
344.9999999999998
 20
-157.5000000000001
 10
344.9999999999998
 20
-137.5000000000001
  0
LWPOLYLINE
  5
5A
330
49
100
AcDbEntity
  8
LN-ELEVATION-3
100
AcDbPolyline
 90
4
 70
1
 10
-325.0000000000001
 20
-137.4999999999999
 10
-325.0000000000001
 20
-157.4999999999999
 10
-345.0000000000002
 20
-157.4999999999999
 10
-345.0000000000002
 20
-137.4999999999999
  0
LWPOLYLINE
  5
5B
330
49
100
AcDbEntity
  8
LN-ELEVATION-3
100
AcDbPolyline
 90
4
 70
1
 10
-325.0
 20
437.5
 10
-325.0
 20
417.4999999999998
 10
-345.0
 20
417.4999999999998
 10
-345.0
 20
437.5000000000001
  0
LWPOLYLINE
  5
5C
330
49
100
AcDbEntity
  8
LN-ELEVATION-3
100
AcDbPolyline
 90
4
 70
1
 10
-605.0
 20
417.5000000000001
 10
-605.0
 20
437.5000000000001
 10
-625.0
 20
437.5000000000001
 10
-625.0
 20
417.5000000000001
  0
LWPOLYLINE
  5
5D
330
49
100
AcDbEntity
  8
LN-ELEVATION-3
100
AcDbPolyline
 90
4
 70
1
 10
-605.0000000000001
 20
-417.4999999999998
 10
-605.0000000000001
 20
-437.4999999999998
 10
-625.0
 20
-437.4999999999998
 10
-625.0
 20
-417.4999999999998
  0
ENDBLK
  5
4B
330
49
100
AcDbEntity
  8
0
100
AcDbBlockEnd
  0
BLOCK
  5
61
330
60
100
AcDbEntity
  8
0
100
AcDbBlockBegin
  2
SOFA_2
 70
0
 10
0.0
 20
0.0
 30
0.0
  3
SOFA_2
  1

  0
INSERT
  5
63
330
60
100
AcDbEntity
  8
I-LK FF&E
100
AcDbBlockReference
  2
NESTING TABLES
 10
674.9999999999999
 20
487.5
 30
0.0
 50
180.0
  0
ENDBLK
  5
62
330
60
100
AcDbEntity
  8
0
100
AcDbBlockEnd
  0
BLOCK
  5
68
330
67
100
AcDbEntity
  8
0
100
AcDbBlockBegin
  2
SOFA_3
 70
0
 10
0.0
 20
0.0
 30
0.0
  3
SOFA_3
  1

  0
INSERT
  5
6A
330
67
100
AcDbEntity
  8
I-LK FF&E
100
AcDbBlockReference
  2
NESTING TABLES
 10
674.9999999999999
 20
487.5
 30
0.0
 50
180.0
  0
ENDBLK
  5
69
330
67
100
AcDbEntity
  8
0
100
AcDbBlockEnd
  0
BLOCK
  5
75
330
74
100
AcDbEntity
  8
0
100
AcDbBlockBegin
  2
MIRROR_1
 70
0
 10
0.0
 20
0.0
 30
0.0
  3
MIRROR_1
  1

  0
INSERT
  5
77
330
74
100
AcDbEntity
  8
I-LK FF&E
100
AcDbBlockReference
  2
MIRROR UNIT SEE THRU
 10
150.0000000000586
 20
300.0
 30
0.0
  0
ENDBLK
  5
76
330
74
100
AcDbEntity
  8
0
100
AcDbBlockEnd
  0
BLOCK
  5
7C
330
7B
100
AcDbEntity
  8
0
100
AcDbBlockBegin
  2
mirror unit see thru
 70
0
 10
0.0
 20
0.0
 30
0.0
  3
mirror unit see thru
  1

  0
LWPOLYLINE
  5
7E
330
7B
100
AcDbEntity
  8
LN-ELEVATION-1
100
AcDbPolyline
 90
8
 70
1
 10
141.9999999999418
 20
-300.0
 10
141.9999999999418
 20
-298.5
 10
146.4999999999418
 20
-298.5
 10
146.4999999999418
 20
-280.5
 10
124.9999999999418
 20
-280.5
 10
124.9999999999418
 20
-279.0
 10
147.9999999999418
 20
-279.0
 10
147.9999999999418
 20
-300.0
  0
LWPOLYLINE
  5
7F
330
7B
100
AcDbEntity
  8
LN-ELEVATION-1
100
AcDbPolyline
 90
8
 70
1
 10
-103.0000000000582
 20
-293.0
 10
-103.0000000000582
 20
-279.0
 10
-148.0000000000582
 20
-279.0
 10
-148.0000000000582
 20
-300.0
 10
-139.0000000000582
 20
-300.0
 10
-139.0000000000582
 20
-298.5
 10
-146.5000000000582
 20
-298.5
 10
-146.5000000000582
 20
-293.0
  0
LWPOLYLINE
  5
80
330
7B
100
AcDbEntity
  8
LN-ELEVATION-1
100
AcDbPolyline
 90
8
 70
1
 10
79.99999999994179
 20
-293.0
 10
79.99999999994179
 20
-279.0
 10
124.9999999999418
 20
-279.0
 10
124.9999999999418
 20
-300.0
 10
115.9999999999418
 20
-300.0
 10
115.9999999999418
 20
-298.5
 10
123.4999999999418
 20
-298.5
 10
123.4999999999418
 20
-293.0
  0
LWPOLYLINE
  5
81
330
7B
100
AcDbEntity
  8
LN-ELEVATION-2
100
AcDbPolyline
 90
4
 70
1
 10
-103.0000000000582
 20
-293.0
 10
79.99999999994179
 20
-293.0
 10
79.99999999994179
 20
-279.0
 10
-103.0000000000582
 20
-279.0
  0
LWPOLYLINE
  5
82
330
7B
100
AcDbEntity
  8
LN-ELEVATION-2
 62
4
370
0
100
AcDbPolyline
 90
4
 70
1
 10
-146.5000000000582
 20
-293.0
 10
123.4999999999418
 20
-293.0
 10
123.4999999999418
 20
-298.5
 10
-146.5000000000582
 20
-298.5
  0
LINE
  5
83
330
7B
100
AcDbEntity
  8
LN-ELEVATION-4
 48
0.5
100
AcDbLine
 10
115.9999999999418
 20
-300.0
 30
0.0
 11
-139.0000000000582
 21
-300.0
 31
0.0
  0
HATCH
  5
84
330
7B
100
AcDbEntity
  8
LN-HATCH
 48
0.5
100
AcDbHatch
 10
0.0
 20
0.0
 30
0.0
210
0.0
220
0.0
230
1.0
  2
ANSI31
 70
0
 71
0
 91
3
 92
1
 93
4
 72
1
 10
-150.0
 20
0.0
 11
-132.0
 21
0.0
 72
1
 10
-132.0
 20
0.0
 11
-132.0000000000582
 21
-279.0
 72
1
 10
-132.0000000000582
 20
-279.0
 11
-150.0000000000581
 21
-279.0
 72
1
 10
-150.0000000000581
 20
-279.0
 11
-150.0
 21
0.0
 97
0
 92
1
 93
4
 72
1
 10
-132.0
 20
-6.0
 11
132.0
 21
-6.0
 72
1
 10
132.0
 20
-6.0
 11
132.0
 21
0.0
 72
1
 10
132.0
 20
0.0
 11
-132.0
 21
0.0
 72
1
 10
-132.0
 20
0.0
 11
-132.0
 21
-6.0
 97
0
 92
1
 93
4
 72
1
 10
150.0
 20
0.0
 11
132.0
 21
0.0
 72
1
 10
132.0
 20
0.0
 11
131.9999999999418
 21
-279.0
 72
1
 10
131.9999999999418
 20
-279.0
 11
149.9999999999418
 21
-279.0
 72
1
 10
149.9999999999418
 20
-279.0
 11
150.0
 21
0.0
 97
0
 75
1
 76
1
 52
0.0
 41
2.0
 77
0
 78
1
 53
45.0
 43
4060070.796835582
 44
1708569.446145004
 45
-4.490128060534577
 46
4.490128060534577
 79
0
 98
1
 10
4060070.796835582
 20
1708569.446145004
  0
LWPOLYLINE
  5
85
330
7B
100
AcDbEntity
  8
LN-ELEVATION-1
100
AcDbPolyline
 90
4
 70
1
 10
149.9999999999418
 20
0.0
 10
131.9999999999418
 20
0.0
 10
131.9999999999418
 20
-279.0
 10
149.9999999999418
 20
-279.0
  0
LWPOLYLINE
  5
86
330
7B
100
AcDbEntity
  8
LN-ELEVATION-1
100
AcDbPolyline
 90
4
 70
1
 10
-150.0000000000581
 20
0.0
 10
-132.0000000000582
 20
0.0
 10
-132.0000000000582
 20
-279.0
 10
-150.0000000000581
 20
-279.0
  0
LWPOLYLINE
  5
87
330
7B
100
AcDbEntity
  8
LN-ELEVATION-1
100
AcDbPolyline
 90
4
 70
1
 10
-132.0000000000582
 20
-6.0
 10
131.9999999999418
 20
-6.0
 10
131.9999999999418
 20
0.0
 10
-132.0000000000582
 20
0.0
  0
LWPOLYLINE
  5
88
330
7B
100
AcDbEntity
  8
Defpoints
100
AcDbPolyline
 90
4
 70
1
 10
149.9999999999418
 20
-300.0
 10
-150.0000000000581
 20
-300.0
 10
-150.0000000000581
 20
0.0
 10
149.9999999999418
 20
0.0
  0
ENDBLK
  5
7D
330
7B
100
AcDbEntity
  8
0
100
AcDbBlockEnd
  0
BLOCK
  5
8C
330
8B
100
AcDbEntity
  8
0
100
AcDbBlockBegin
  2
STAFF_RACK_1
 70
0
 10
0.0
 20
0.0
 30
0.0
  3
STAFF_RACK_1
  1

  0
LWPOLYLINE
  5
8E
330
8B
100
AcDbEntity
  8
I-LK FF&E
100
AcDbPolyline
 90
4
 70
1
 10
900.0
 20
468.1304884285964
 10
0.0
 20
468.1304884285964
 10
0.0
 20
18.13048842859643
 10
900.0
 20
18.13048842859643
  0
MTEXT
  5
8F
102
{ACAD_XDICTIONARY
360
90
102
}
330
8B
100
AcDbEntity
  8
I-LK TEXT
  6
Continuous
 62
0
 48
3.0
100
AcDbMText
 10
-97.90831983360341
 20
361.4909222841868
 30
0.0
 40
100.0
 41
1099.486866972409
 46
0.0
 71
1
 72
5
  1
\pxqc;STAFF\P RACK
  7
LK TXT
 11
1.0
 21
-1.1e-15
 31
0.0
1001
ACAD
1000
ACAD_MTEXT_COLUMN_INFO_BEGIN
1070
75
1070
2
1070
79
1070
0
1070
76
1070
1
1070
78
1070
0
1070
48
1040
1099.486866972409
1070
49
1040
0.9999999999999992
1070
50
1070
1
1040
0.0
1000
ACAD_MTEXT_COLUMN_INFO_END
1000
ACAD_MTEXT_COLUMNS_BEGIN
1070
47
1070
1
1000
ACAD_MTEXT_COLUMNS_END
  0
ENDBLK
  5
8D
330
8B
100
AcDbEntity
  8
0
100
AcDbBlockEnd
  0
BLOCK
  5
95
330
94
100
AcDbEntity
  8
0
100
AcDbBlockBegin
  2
STAFF_RACK_2
 70
0
 10
0.0
 20
0.0
 30
0.0
  3
STAFF_RACK_2
  1

  0
LWPOLYLINE
  5
97
330
94
100
AcDbEntity
  8
I-LK FF&E
100
AcDbPolyline
 90
4
 70
1
 10
900.0
 20
468.1304884285964
 10
0.0
 20
468.1304884285964
 10
0.0
 20
18.13048842859643
 10
900.0
 20
18.13048842859643
  0
MTEXT
  5
98
102
{ACAD_XDICTIONARY
360
99
102
}
330
94
100
AcDbEntity
  8
I-LK TEXT
  6
Continuous
 62
0
 48
3.0
100
AcDbMText
 10
-97.90831983360341
 20
361.4909222841868
 30
0.0
 40
100.0
 41
1099.486866972409
 46
0.0
 71
1
 72
5
  1
\pxqc;STAFF\P RACK
  7
LK TXT
 11
1.0
 21
-1.1e-15
 31
0.0
1001
ACAD
1000
ACAD_MTEXT_COLUMN_INFO_BEGIN
1070
75
1070
2
1070
79
1070
0
1070
76
1070
1
1070
78
1070
0
1070
48
1040
1099.486866972409
1070
49
1040
0.9999999999999992
1070
50
1070
1
1040
0.0
1000
ACAD_MTEXT_COLUMN_INFO_END
1000
ACAD_MTEXT_COLUMNS_BEGIN
1070
47
1070
1
1000
ACAD_MTEXT_COLUMNS_END
  0
ENDBLK
  5
96
330
94
100
AcDbEntity
  8
0
100
AcDbBlockEnd
  0
BLOCK
  5
9D
330
9C
100
AcDbEntity
  8
0
100
AcDbBlockBegin
  2
STAFF_RACK_3
 70
0
 10
0.0
 20
0.0
 30
0.0
  3
STAFF_RACK_3
  1

  0
LWPOLYLINE
  5
9F
330
9C
100
AcDbEntity
  8
I-LK FF&E
100
AcDbPolyline
 90
4
 70
1
 10
900.0
 20
468.1304884285964
 10
0.0
 20
468.1304884285964
 10
0.0
 20
18.13048842859643
 10
900.0
 20
18.13048842859643
  0
MTEXT
  5
A0
102
{ACAD_XDICTIONARY
360
A1
102
}
330
9C
100
AcDbEntity
  8
I-LK TEXT
  6
Continuous
 62
0
 48
3.0
100
AcDbMText
 10
-97.90831983360341
 20
361.4909222841868
 30
0.0
 40
100.0
 41
1099.486866972409
 46
0.0
 71
1
 72
5
  1
\pxqc;STAFF\P RACK
  7
LK TXT
 11
1.0
 21
-1.1e-15
 31
0.0
1001
ACAD
1000
ACAD_MTEXT_COLUMN_INFO_BEGIN
1070
75
1070
2
1070
79
1070
0
1070
76
1070
1
1070
78
1070
0
1070
48
1040
1099.486866972409
1070
49
1040
0.9999999999999992
1070
50
1070
1
1040
0.0
1000
ACAD_MTEXT_COLUMN_INFO_END
1000
ACAD_MTEXT_COLUMNS_BEGIN
1070
47
1070
1
1000
ACAD_MTEXT_COLUMNS_END
  0
ENDBLK
  5
9E
330
9C
100
AcDbEntity
  8
0
100
AcDbBlockEnd
  0
BLOCK
  5
A5
330
A4
100
AcDbEntity
  8
0
100
AcDbBlockBegin
  2
STAFF_RACK_4
 70
0
 10
0.0
 20
0.0
 30
0.0
  3
STAFF_RACK_4
  1

  0
LWPOLYLINE
  5
A7
330
A4
100
AcDbEntity
  8
I-LK FF&E
100
AcDbPolyline
 90
4
 70
1
 10
900.0
 20
468.1304884285964
 10
0.0
 20
468.1304884285964
 10
0.0
 20
18.13048842859643
 10
900.0
 20
18.13048842859643
  0
MTEXT
  5
A8
102
{ACAD_XDICTIONARY
360
A9
102
}
330
A4
100
AcDbEntity
  8
I-LK TEXT
  6
Continuous
 62
0
 48
3.0
100
AcDbMText
 10
-97.90831983360341
 20
361.4909222841868
 30
0.0
 40
100.0
 41
1099.486866972409
 46
0.0
 71
1
 72
5
  1
\pxqc;STAFF\P RACK
  7
LK TXT
 11
1.0
 21
-1.1e-15
 31
0.0
1001
ACAD
1000
ACAD_MTEXT_COLUMN_INFO_BEGIN
1070
75
1070
2
1070
79
1070
0
1070
76
1070
1
1070
78
1070
0
1070
48
1040
1099.486866972409
1070
49
1040
0.9999999999999992
1070
50
1070
1
1040
0.0
1000
ACAD_MTEXT_COLUMN_INFO_END
1000
ACAD_MTEXT_COLUMNS_BEGIN
1070
47
1070
1
1000
ACAD_MTEXT_COLUMNS_END
  0
ENDBLK
  5
A6
330
A4
100
AcDbEntity
  8
0
100
AcDbBlockEnd
  0
BLOCK
  5
AD
330
AC
100
AcDbEntity
  8
0
100
AcDbBlockBegin
  2
STAFF_RACK_5
 70
0
 10
0.0
 20
0.0
 30
0.0
  3
STAFF_RACK_5
  1

  0
LWPOLYLINE
  5
AF
330
AC
100
AcDbEntity
  8
I-LK FF&E
100
AcDbPolyline
 90
4
 70
1
 10
900.0
 20
468.1304884285964
 10
0.0
 20
468.1304884285964
 10
0.0
 20
18.13048842859643
 10
900.0
 20
18.13048842859643
  0
MTEXT
  5
B0
102
{ACAD_XDICTIONARY
360
B1
102
}
330
AC
100
AcDbEntity
  8
I-LK TEXT
  6
Continuous
 62
0
 48
3.0
100
AcDbMText
 10
-97.90831983360341
 20
361.4909222841868
 30
0.0
 40
100.0
 41
1099.486866972409
 46
0.0
 71
1
 72
5
  1
\pxqc;STAFF\P RACK
  7
LK TXT
 11
1.0
 21
-1.1e-15
 31
0.0
1001
ACAD
1000
ACAD_MTEXT_COLUMN_INFO_BEGIN
1070
75
1070
2
1070
79
1070
0
1070
76
1070
1
1070
78
1070
0
1070
48
1040
1099.486866972409
1070
49
1040
0.9999999999999992
1070
50
1070
1
1040
0.0
1000
ACAD_MTEXT_COLUMN_INFO_END
1000
ACAD_MTEXT_COLUMNS_BEGIN
1070
47
1070
1
1000
ACAD_MTEXT_COLUMNS_END
  0
ENDBLK
  5
AE
330
AC
100
AcDbEntity
  8
0
100
AcDbBlockEnd
  0
BLOCK
  5
B5
330
B4
100
AcDbEntity
  8
0
100
AcDbBlockBegin
  2
STAFF_RACK_6
 70
0
 10
0.0
 20
0.0
 30
0.0
  3
STAFF_RACK_6
  1

  0
LWPOLYLINE
  5
B7
330
B4
100
AcDbEntity
  8
I-LK FF&E
100
AcDbPolyline
 90
4
 70
1
 10
900.0
 20
468.1304884285964
 10
0.0
 20
468.1304884285964
 10
0.0
 20
18.13048842859643
 10
900.0
 20
18.13048842859643
  0
MTEXT
  5
B8
102
{ACAD_XDICTIONARY
360
B9
102
}
330
B4
100
AcDbEntity
  8
I-LK TEXT
  6
Continuous
 62
0
 48
3.0
100
AcDbMText
 10
-97.90831983360341
 20
361.4909222841868
 30
0.0
 40
100.0
 41
1099.486866972409
 46
0.0
 71
1
 72
5
  1
\pxqc;STAFF\P RACK
  7
LK TXT
 11
1.0
 21
-1.1e-15
 31
0.0
1001
ACAD
1000
ACAD_MTEXT_COLUMN_INFO_BEGIN
1070
75
1070
2
1070
79
1070
0
1070
76
1070
1
1070
78
1070
0
1070
48
1040
1099.486866972409
1070
49
1040
0.9999999999999992
1070
50
1070
1
1040
0.0
1000
ACAD_MTEXT_COLUMN_INFO_END
1000
ACAD_MTEXT_COLUMNS_BEGIN
1070
47
1070
1
1000
ACAD_MTEXT_COLUMNS_END
  0
ENDBLK
  5
B6
330
B4
100
AcDbEntity
  8
0
100
AcDbBlockEnd
  0
BLOCK
  5
BD
330
BC
100
AcDbEntity
  8
0
100
AcDbBlockBegin
  2
STAFF_RACK_7
 70
0
 10
0.0
 20
0.0
 30
0.0
  3
STAFF_RACK_7
  1

  0
LWPOLYLINE
  5
BF
330
BC
100
AcDbEntity
  8
I-LK FF&E
100
AcDbPolyline
 90
4
 70
1
 10
900.0
 20
468.1304884285964
 10
0.0
 20
468.1304884285964
 10
0.0
 20
18.13048842859643
 10
900.0
 20
18.13048842859643
  0
MTEXT
  5
C0
102
{ACAD_XDICTIONARY
360
C1
102
}
330
BC
100
AcDbEntity
  8
I-LK TEXT
  6
Continuous
 62
0
 48
3.0
100
AcDbMText
 10
-97.90831983360341
 20
361.4909222841868
 30
0.0
 40
100.0
 41
1099.486866972409
 46
0.0
 71
1
 72
5
  1
\pxqc;STAFF\P RACK
  7
LK TXT
 11
1.0
 21
-1.1e-15
 31
0.0
1001
ACAD
1000
ACAD_MTEXT_COLUMN_INFO_BEGIN
1070
75
1070
2
1070
79
1070
0
1070
76
1070
1
1070
78
1070
0
1070
48
1040
1099.486866972409
1070
49
1040
0.9999999999999992
1070
50
1070
1
1040
0.0
1000
ACAD_MTEXT_COLUMN_INFO_END
1000
ACAD_MTEXT_COLUMNS_BEGIN
1070
47
1070
1
1000
ACAD_MTEXT_COLUMNS_END
  0
ENDBLK
  5
BE
330
BC
100
AcDbEntity
  8
0
100
AcDbBlockEnd
  0
BLOCK
  5
CF
330
CE
100
AcDbEntity
  8
0
100
AcDbBlockBegin
  2
VC_FIXTURE_LARGE_1
 70
0
 10
0.0
 20
0.0
 30
0.0
  3
VC_FIXTURE_LARGE_1
  1

  0
INSERT
  5
D1
330
CE
100
AcDbEntity
  8
I-LK FF&E
100
AcDbBlockReference
  2
12MM VC PLAN
 10
-4.547e-13
 20
0.0
 30
0.0
 41
-1.0
  0
ENDBLK
  5
D0
330
CE
100
AcDbEntity
  8
0
100
AcDbBlockEnd
  0
BLOCK
  5
D4
330
D3
100
AcDbEntity
  8
0
100
AcDbBlockBegin
  2
12mm vc plan
 70
0
 10
0.0
 20
0.0
 30
0.0
  3
12mm vc plan
  1

  0
HATCH
  5
D6
330
D3
100
AcDbEntity
  8
LN-HATCH
 48
0.5
100
AcDbHatch
 10
0.0
 20
0.0
 30
0.0
210
0.0
220
0.0
230
1.0
  2
ANSI31
 70
0
 71
0
 91
1
 92
1
 93
8
 72
1
 10
-1200.0
 20
250.0
 11
-1200.0
 21
60.0
 72
1
 10
-1200.0
 20
60.0
 11
-1194.0
 21
60.0
 72
1
 10
-1194.0
 20
60.0
 11
-1194.0
 21
50.0
 72
1
 10
-1194.0
 20
50.0
 11
-1200.0
 21
50.0
 72
1
 10
-1200.0
 20
50.0
 11
-1200.0
 21
6.0
 72
1
 10
-1200.0
 20
6.0
 11
-1182.0
 21
6.0
 72
1
 10
-1182.0
 20
6.0
 11
-1182.0
 21
250.0
 72
1
 10
-1182.0
 20
250.0
 11
-1200.0
 21
250.0
 97
0
 75
1
 76
1
 52
0.0
 41
2.0
 77
0
 78
1
 53
45.0
 43
3760859.752907088
 44
1795248.935917533
 45
-4.490128060534575
 46
4.490128060534575
 79
0
 98
1
 10
-4097595.271602691
 20
1708830.267299229
  0
HATCH
  5
D7
330
D3
100
AcDbEntity
  8
LN-HATCH
 48
0.5
100
AcDbHatch
 10
0.0
 20
0.0
 30
0.0
210
0.0
220
0.0
230
1.0
  2
ANSI31
 70
0
 71
0
 91
1
 92
1
 93
4
 72
1
 10
-28.0
 20
6.0
 11
-28.0
 21
0.0
 72
1
 10
-28.0
 20
0.0
 11
0.0
 21
0.0
 72
1
 10
0.0
 20
0.0
 11
0.0
 21
6.0
 72
1
 10
0.0
 20
6.0
 11
-28.0
 21
6.0
 97
0
 75
1
 76
1
 52
0.0
 41
2.0
 77
0
 78
1
 53
45.0
 43
7858054.083674966
 44
3504049.203216764
 45
-4.490128060534575
 46
4.490128060534575
 79
0
 98
1
 10
-4097588.271602691
 20
1708830.267299229
  0
HATCH
  5
D8
330
D3
100
AcDbEntity
  8
LN-HATCH
 48
0.5
100
AcDbHatch
 10
0.0
 20
0.0
 30
0.0
210
0.0
220
0.0
230
1.0
  2
ANSI31
 70
0
 71
0
 91
1
 92
1
 93
8
 72
1
 10
0.0
 20
250.0
 11
0.0
 21
60.0
 72
1
 10
0.0
 20
60.0
 11
-6.0
 21
60.0
 72
1
 10
-6.0
 20
60.0
 11
-6.0
 21
50.0
 72
1
 10
-6.0
 20
50.0
 11
0.0
 21
50.0
 72
1
 10
0.0
 20
50.0
 11
0.0
 21
6.0
 72
1
 10
0.0
 20
6.0
 11
-18.0
 21
6.0
 72
1
 10
-18.0
 20
6.0
 11
-18.0
 21
250.0
 72
1
 10
-18.0
 20
250.0
 11
0.0
 21
250.0
 97
0
 75
1
 76
1
 52
0.0
 41
2.0
 77
0
 78
1
 53
45.0
 43
7858054.083674966
 44
3504049.203216764
 45
-4.490128060534575
 46
4.490128060534575
 79
0
 98
1
 10
-4097588.271602691
 20
1708830.267299229
  0
HATCH
  5
D9
330
D3
100
AcDbEntity
  8
LN-HATCH
 48
0.5
100
AcDbHatch
 10
0.0
 20
0.0
 30
0.0
210
0.0
220
0.0
230
1.0
  2
ANSI31
 70
0
 71
0
 91
1
 92
1
 93
4
 72
1
 10
-1165.0
 20
6.0
 11
-1165.0
 21
0.0
 72
1
 10
-1165.0
 20
0.0
 11
-1200.0
 21
0.0
 72
1
 10
-1200.0
 20
0.0
 11
-1200.0
 21
6.0
 72
1
 10
-1200.0
 20
6.0
 11
-1165.0
 21
6.0
 97
0
 75
1
 76
1
 52
0.0
 41
2.0
 77
0
 78
1
 53
45.0
 43
7858047.083674965
 44
3504049.203216764
 45
-4.490128060534575
 46
4.490128060534575
 79
0
 98
1
 10
-4097595.271602691
 20
1708830.267299229
  0
LWPOLYLINE
  5
DA
330
D3
100
AcDbEntity
  8
LN-ELEVATION-1
 48
0.5
100
AcDbPolyline
 90
8
 70
1
 10
-1200.0
 20
250.0
 10
-1200.0
 20
60.0
 10
-1194.0
 20
60.0
 10
-1194.0
 20
50.0
 10
-1200.0
 20
50.0
 10
-1200.0
 20
6.0
 10
-1182.0
 20
6.0
 10
-1182.0
 20
250.0
  0
LWPOLYLINE
  5
DB
330
D3
100
AcDbEntity
  8
LN-ELEVATION-1
 48
0.5
100
AcDbPolyline
 90
8
 70
1
 10
0.0
 20
250.0
 10
0.0
 20
60.0
 10
-6.0
 20
60.0
 10
-6.0
 20
50.0
 10
0.0
 20
50.0
 10
0.0
 20
6.0
 10
-18.0
 20
6.0
 10
-18.0
 20
250.0
  0
LWPOLYLINE
  5
DC
330
D3
100
AcDbEntity
  8
LN-ELEVATION-1
 48
0.5
100
AcDbPolyline
 90
4
 70
1
 10
-18.0
 20
238.0
 10
-1182.0
 20
238.0
 10
-1182.0
 20
244.0
 10
-18.0
 20
244.0
  0
LWPOLYLINE
  5
DD
330
D3
100
AcDbEntity
  8
LN-ELEVATION-1
 48
0.5
100
AcDbPolyline
 90
4
 70
1
 10
-1165.0
 20
6.0
 10
-1165.0
 20
0.0
 10
-1200.0
 20
0.0
 10
-1200.0
 20
6.0
  0
LWPOLYLINE
  5
DE
330
D3
100
AcDbEntity
  8
LN-ELEVATION-1
 48
0.5
100
AcDbPolyline
 90
4
 70
1
 10
-35.0
 20
6.0
 10
-35.0
 20
0.0
 10
0.0
 20
0.0
 10
0.0
 20
6.0
  0
LINE
  5
DF
330
D3
100
AcDbEntity
  8
LN-ELEVATION-3
 48
0.5
100
AcDbLine
 10
-35.0
 20
0.0
 30
0.0
 11
-1165.0
 21
0.0
 31
0.0
  0
LINE
  5
E0
330
D3
100
AcDbEntity
  8
LN-ELEVATION-3
 48
0.5
100
AcDbLine
 10
-1165.0
 20
6.0
 30
0.0
 11
-35.0
 21
6.0
 31
0.0
  0
LINE
  5
E1
330
D3
100
AcDbEntity
  8
LN-ELEVATION-3
 48
0.5
100
AcDbLine
 10
-1182.0
 20
250.0
 30
0.0
 11
-18.0
 21
250.0
 31
0.0
  0
LWPOLYLINE
  5
E2
330
D3
100
AcDbEntity
  8
LN-ELEVATION-3
 48
0.5
100
AcDbPolyline
 90
4
 70
1
 10
-1165.000000000465
 20
226.0
 10
-35.0
 20
226.0
 10
-35.0
 20
18.0
 10
-1165.000000000465
 20
18.0
  0
LWPOLYLINE
  5
E3
330
D3
100
AcDbEntity
  8
LN-ELEVATION-3
 48
0.5
100
AcDbPolyline
 90
4
 70
1
 10
-1165.000000000465
 20
226.0
 10
-983.3333333334888
 20
226.0
 10
-983.3333333334888
 20
162.0
 10
-1165.000000000465
 20
162.0
  0
LWPOLYLINE
  5
E4
330
D3
100
AcDbEntity
  8
LN-ELEVATION-3
 48
0.5
100
AcDbPolyline
 90
4
 70
1
 10
-975.3333333334888
 20
226.0
 10
-793.6666666665112
 20
226.0
 10
-793.6666666665112
 20
162.0
 10
-975.3333333334888
 20
162.0
  0
LWPOLYLINE
  5
E5
330
D3
100
AcDbEntity
  8
LN-ELEVATION-3
 48
0.5
100
AcDbPolyline
 90
4
 70
1
 10
-975.3333333334888
 20
154.0
 10
-793.6666666665112
 20
154.0
 10
-793.6666666665112
 20
90.0
 10
-975.3333333334888
 20
90.0
  0
LWPOLYLINE
  5
E6
330
D3
100
AcDbEntity
  8
LN-ELEVATION-3
 48
0.5
100
AcDbPolyline
 90
4
 70
1
 10
-1165.000000000465
 20
90.0
 10
-983.3333333334888
 20
90.0
 10
-983.3333333334888
 20
154.0
 10
-1165.000000000465
 20
154.0
  0
LWPOLYLINE
  5
E7
330
D3
100
AcDbEntity
  8
LN-ELEVATION-3
 48
0.5
100
AcDbPolyline
 90
4
 70
1
 10
-1165.000000000465
 20
82.0
 10
-983.3333333334888
 20
82.0
 10
-983.3333333334888
 20
18.0
 10
-1165.000000000465
 20
18.0
  0
LWPOLYLINE
  5
E8
330
D3
100
AcDbEntity
  8
LN-ELEVATION-3
 48
0.5
100
AcDbPolyline
 90
4
 70
1
 10
-975.3333333334888
 20
82.0
 10
-793.6666666665112
 20
82.0
 10
-793.6666666665112
 20
18.0
 10
-975.3333333334888
 20
18.0
  0
LWPOLYLINE
  5
E9
330
D3
100
AcDbEntity
  8
LN-ELEVATION-3
 48
0.5
100
AcDbPolyline
 90
4
 70
1
 10
-785.6666666665112
 20
226.0
 10
-603.9999999995342
 20
226.0
 10
-603.9999999995342
 20
162.0
 10
-785.6666666665112
 20
162.0
  0
LWPOLYLINE
  5
EA
330
D3
100
AcDbEntity
  8
LN-ELEVATION-3
 48
0.5
100
AcDbPolyline
 90
4
 70
1
 10
-785.6666666665112
 20
154.0
 10
-603.9999999995342
 20
154.0
 10
-603.9999999995342
 20
90.0
 10
-785.6666666665112
 20
90.0
  0
LWPOLYLINE
  5
EB
330
D3
100
AcDbEntity
  8
LN-ELEVATION-3
 48
0.5
100
AcDbPolyline
 90
4
 70
1
 10
-785.6666666665112
 20
82.0
 10
-603.9999999995342
 20
82.0
 10
-603.9999999995342
 20
18.0
 10
-785.6666666665112
 20
18.0
  0
LWPOLYLINE
  5
EC
330
D3
100
AcDbEntity
  8
LN-ELEVATION-3
 48
0.5
100
AcDbPolyline
 90
4
 70
1
 10
-595.9999999995342
 20
226.0
 10
-414.3333333325572
 20
226.0
 10
-414.3333333325572
 20
162.0
 10
-595.9999999995342
 20
162.0
  0
LWPOLYLINE
  5
ED
330
D3
100
AcDbEntity
  8
LN-ELEVATION-3
 48
0.5
100
AcDbPolyline
 90
4
 70
1
 10
-595.9999999995342
 20
154.0
 10
-414.3333333325572
 20
154.0
 10
-414.3333333325572
 20
90.0
 10
-595.9999999995342
 20
90.0
  0
LWPOLYLINE
  5
EE
330
D3
100
AcDbEntity
  8
LN-ELEVATION-3
 48
0.5
100
AcDbPolyline
 90
4
 70
1
 10
-595.9999999995342
 20
82.0
 10
-414.3333333325572
 20
82.0
 10
-414.3333333325572
 20
18.0
 10
-595.9999999995342
 20
18.0
  0
LWPOLYLINE
  5
EF
330
D3
100
AcDbEntity
  8
LN-ELEVATION-3
 48
0.5
100
AcDbPolyline
 90
4
 70
1
 10
-406.3333333325572
 20
226.0
 10
-224.6666666655801
 20
226.0
 10
-224.6666666655801
 20
162.0
 10
-406.3333333325572
 20
162.0
  0
LWPOLYLINE
  5
F0
330
D3
100
AcDbEntity
  8
LN-ELEVATION-3
 48
0.5
100
AcDbPolyline
 90
4
 70
1
 10
-406.3333333325572
 20
154.0
 10
-224.6666666655801
 20
154.0
 10
-224.6666666655801
 20
90.0
 10
-406.3333333325572
 20
90.0
  0
LWPOLYLINE
  5
F1
330
D3
100
AcDbEntity
  8
LN-ELEVATION-3
 48
0.5
100
AcDbPolyline
 90
4
 70
1
 10
-406.3333333325572
 20
82.0
 10
-224.6666666655801
 20
82.0
 10
-224.6666666655801
 20
18.0
 10
-406.3333333325572
 20
18.0
  0
LWPOLYLINE
  5
F2
330
D3
100
AcDbEntity
  8
LN-ELEVATION-3
 48
0.5
100
AcDbPolyline
 90
4
 70
1
 10
-216.6666666655801
 20
226.0
 10
-34.99999999860302
 20
226.0
 10
-34.99999999860302
 20
162.0
 10
-216.6666666655801
 20
162.0
  0
LWPOLYLINE
  5
F3
330
D3
100
AcDbEntity
  8
LN-ELEVATION-3
 48
0.5
100
AcDbPolyline
 90
4
 70
1
 10
-216.6666666655801
 20
154.0
 10
-34.99999999860302
 20
154.0
 10
-34.99999999860302
 20
90.0
 10
-216.6666666655801
 20
90.0
  0
LWPOLYLINE
  5
F4
330
D3
100
AcDbEntity
  8
LN-ELEVATION-3
 48
0.5
100
AcDbPolyline
 90
4
 70
1
 10
-216.6666666655801
 20
82.0
 10
-34.99999999860302
 20
82.0
 10
-34.99999999860302
 20
18.0
 10
-216.6666666655801
 20
18.0
  0
ENDBLK
  5
D5
330
D3
100
AcDbEntity
  8
0
100
AcDbBlockEnd
  0
BLOCK
  5
F8
330
F7
100
AcDbEntity
  8
0
100
AcDbBlockBegin
  2
JJ_FIXTURE_MEDIUM_1
 70
0
 10
0.0
 20
0.0
 30
0.0
  3
JJ_FIXTURE_MEDIUM_1
  1

  0
INSERT
  5
FA
330
F7
100
AcDbEntity
  8
I-LK FF&E
100
AcDbBlockReference
  2
JJ 900
 10
911.7948143622633
 20
249.9999999999854
 30
0.0
  0
ENDBLK
  5
F9
330
F7
100
AcDbEntity
  8
0
100
AcDbBlockEnd
  0
BLOCK
  5
FE
330
FD
100
AcDbEntity
  8
0
100
AcDbBlockBegin
  2
jj 900
 70
0
 10
0.0
 20
0.0
 30
0.0
  3
jj 900
  1

  0
HATCH
  5
100
330
FD
100
AcDbEntity
  8
LN-HATCH
 48
0.5
100
AcDbHatch
 10
0.0
 20
0.0
 30
0.0
210
0.0
220
0.0
230
1.0
  2
ANSI31
 70
0
 71
0
 91
1
 92
1
 93
8
 72
1
 10
-911.7948143622632
 20
1.45519e-11
 11
-911.7948143622632
 21
-189.9999999999854
 72
1
 10
-911.7948143622632
 20
-189.9999999999854
 11
-905.7948143622637
 21
-189.9999999999854
 72
1
 10
-905.7948143622637
 20
-189.9999999999854
 11
-905.7948143622637
 21
-199.9999999999854
 72
1
 10
-905.7948143622637
 20
-199.9999999999854
 11
-911.7948143622632
 21
-199.9999999999854
 72
1
 10
-911.7948143622632
 20
-199.9999999999854
 11
-911.7948143622632
 21
-243.9999999999855
 72
1
 10
-911.7948143622632
 20
-243.9999999999855
 11
-886.7948143622632
 21
-243.9999999999855
 72
1
 10
-886.7948143622632
 20
-243.9999999999855
 11
-886.7948143622632
 21
1.45519e-11
 72
1
 10
-886.7948143622632
 20
1.45519e-11
 11
-911.7948143622632
 21
1.45519e-11
 97
0
 75
1
 76
1
 52
0.0
 41
50.0
 77
0
 78
1
 53
45.0
 43
0.0
 44
0.0
 45
-4.419417382415921
 46
4.419417382415921
 79
0
 98
1
 10
-4097307.066417053
 20
1708580.267299229
  0
HATCH
  5
101
330
FD
100
AcDbEntity
  8
LN-HATCH
 48
0.5
100
AcDbHatch
 10
0.0
 20
0.0
 30
0.0
210
0.0
220
0.0
230
1.0
  2
ANSI31
 70
0
 71
0
 91
1
 92
1
 93
4
 72
1
 10
-46.79481436226342
 20
-243.9999999999855
 11
-46.79481436226342
 21
-249.9999999999854
 72
1
 10
-46.79481436226342
 20
-249.9999999999854
 11
-11.79481436226342
 21
-249.9999999999854
 72
1
 10
-11.79481436226342
 20
-249.9999999999854
 11
-11.79481436226342
 21
-243.9999999999855
 72
1
 10
-11.79481436226342
 20
-243.9999999999855
 11
-46.79481436226342
 21
-243.9999999999855
 97
0
 75
1
 76
1
 52
0.0
 41
2.0
 77
0
 78
1
 53
45.0
 43
4208834.246730669
 44
1706614.740126447
 45
-4.490128060534575
 46
4.490128060534575
 79
0
 98
1
 10
-4097607.066417054
 20
1708580.267299229
  0
HATCH
  5
102
330
FD
100
AcDbEntity
  8
LN-HATCH
 48
0.5
100
AcDbHatch
 10
0.0
 20
0.0
 30
0.0
210
0.0
220
0.0
230
1.0
  2
ANSI31
 70
0
 71
0
 91
1
 92
1
 93
8
 72
1
 10
-11.79481436226342
 20
1.45519e-11
 11
-11.79481436226342
 21
-189.9999999999854
 72
1
 10
-11.79481436226342
 20
-189.9999999999854
 11
-17.79481436226342
 21
-189.9999999999854
 72
1
 10
-17.79481436226342
 20
-189.9999999999854
 11
-17.79481436226342
 21
-199.9999999999854
 72
1
 10
-17.79481436226342
 20
-199.9999999999854
 11
-11.79481436226342
 21
-199.9999999999854
 72
1
 10
-11.79481436226342
 20
-199.9999999999854
 11
-11.79481436226342
 21
-243.9999999999855
 72
1
 10
-11.79481436226342
 20
-243.9999999999855
 11
-36.79481436226343
 21
-243.9999999999855
 72
1
 10
-36.79481436226343
 20
-243.9999999999855
 11
-36.79481436226343
 21
1.45519e-11
 72
1
 10
-36.79481436226343
 20
1.45519e-11
 11
-11.79481436226342
 21
1.45519e-11
 97
0
 75
1
 76
1
 52
0.0
 41
2.0
 77
0
 78
1
 53
45.0
 43
4208834.246730669
 44
1706614.740126447
 45
-4.490128060534575
 46
4.490128060534575
 79
0
 98
1
 10
-4097607.066417054
 20
1708580.267299229
  0
HATCH
  5
103
330
FD
100
AcDbEntity
  8
LN-HATCH
 48
0.5
100
AcDbHatch
 10
0.0
 20
0.0
 30
0.0
210
0.0
220
0.0
230
1.0
  2
ANSI31
 70
0
 71
0
 91
1
 92
1
 93
4
 72
1
 10
-876.7948143622632
 20
-243.9999999999855
 11
-876.7948143622632
 21
-249.9999999999854
 72
1
 10
-876.7948143622632
 20
-249.9999999999854
 11
-911.7948143622632
 21
-249.9999999999854
 72
1
 10
-911.7948143622632
 20
-249.9999999999854
 11
-911.7948143622632
 21
-243.9999999999855
 72
1
 10
-911.7948143622632
 20
-243.9999999999855
 11
-876.7948143622632
 21
-243.9999999999855
 97
0
 75
1
 76
1
 52
0.0
 41
2.0
 77
0
 78
1
 53
45.0
 43
4209134.246730668
 44
1706614.740126447
 45
-4.490128060534575
 46
4.490128060534575
 79
0
 98
1
 10
-4097307.066417053
 20
1708580.267299229
  0
HATCH
  5
104
330
FD
100
AcDbEntity
  8
LN-HATCH
 48
0.5
100
AcDbHatch
 10
0.0
 20
0.0
 30
0.0
210
0.0
220
0.0
230
1.0
  2
ANSI31
 70
0
 71
0
 91
1
 92
1
 93
4
 72
1
 10
-36.79481436224887
 20
-40.0
 11
-886.7948143622632
 21
-39.99999999998546
 72
1
 10
-886.7948143622632
 20
-39.99999999998546
 11
-886.7948143622632
 21
-33.99999999998545
 72
1
 10
-886.7948143622632
 20
-33.99999999998545
 11
-36.79481436224887
 21
-34.0
 72
1
 10
-36.79481436224887
 20
-34.0
 11
-36.79481436224887
 21
-40.0
 97
0
 75
1
 76
1
 52
0.0
 41
2.0
 77
0
 78
1
 53
45.0
 43
4209134.246730668
 44
1706614.740126447
 45
-4.490128060534575
 46
4.490128060534575
 79
0
 98
1
 10
-4097307.066417053
 20
1708580.267299229
  0
LWPOLYLINE
  5
105
330
FD
100
AcDbEntity
  8
LN-ELEVATION-1
 48
0.5
100
AcDbPolyline
 90
8
 70
1
 10
-911.7948143622632
 20
1.45519e-11
 10
-911.7948143622632
 20
-189.9999999999854
 10
-905.7948143622637
 20
-189.9999999999854
 10
-905.7948143622637
 20
-199.9999999999854
 10
-911.7948143622632
 20
-199.9999999999854
 10
-911.7948143622632
 20
-243.9999999999855
 10
-886.7948143622632
 20
-243.9999999999855
 10
-886.7948143622632
 20
1.45519e-11
  0
LWPOLYLINE
  5
106
330
FD
100
AcDbEntity
  8
LN-ELEVATION-1
 48
0.5
100
AcDbPolyline
 90
8
 70
1
 10
-11.79481436226342
 20
1.45519e-11
 10
-11.79481436226342
 20
-189.9999999999854
 10
-17.79481436226342
 20
-189.9999999999854
 10
-17.79481436226342
 20
-199.9999999999854
 10
-11.79481436226342
 20
-199.9999999999854
 10
-11.79481436226342
 20
-243.9999999999855
 10
-36.79481436226343
 20
-243.9999999999855
 10
-36.79481436226343
 20
1.45519e-11
  0
LWPOLYLINE
  5
107
330
FD
100
AcDbEntity
  8
LN-ELEVATION-1
 48
0.5
100
AcDbPolyline
 90
4
 70
1
 10
-36.79481436226343
 20
-39.99999999998546
 10
-886.7948143622632
 20
-39.99999999998546
 10
-886.7948143622632
 20
-33.99999999998545
 10
-36.79481436226343
 20
-33.99999999998545
  0
LWPOLYLINE
  5
108
330
FD
100
AcDbEntity
  8
LN-ELEVATION-1
 48
0.5
100
AcDbPolyline
 90
4
 70
1
 10
-876.7948143622632
 20
-243.9999999999855
 10
-876.7948143622632
 20
-249.9999999999854
 10
-911.7948143622632
 20
-249.9999999999854
 10
-911.7948143622632
 20
-243.9999999999855
  0
LWPOLYLINE
  5
109
330
FD
100
AcDbEntity
  8
LN-ELEVATION-1
 48
0.5
100
AcDbPolyline
 90
4
 70
1
 10
-46.79481436226342
 20
-243.9999999999855
 10
-46.79481436226342
 20
-249.9999999999854
 10
-11.79481436226342
 20
-249.9999999999854
 10
-11.79481436226342
 20
-243.9999999999855
  0
LINE
  5
10A
330
FD
100
AcDbEntity
  8
LN-ELEVATION-3
 48
0.5
100
AcDbLine
 10
-46.79481436226342
 20
-249.9999999999854
 30
0.0
 11
-876.7948143622632
 21
-249.9999999999854
 31
0.0
  0
LINE
  5
10B
330
FD
100
AcDbEntity
  8
LN-ELEVATION-3
 48
0.5
100
AcDbLine
 10
-876.7948143622632
 20
-243.9999999999855
 30
0.0
 11
-46.79481436226342
 21
-243.9999999999855
 31
0.0
  0
LWPOLYLINE
  5
10C
330
FD
100
AcDbEntity
  8
LN-ELEVATION-4
  6
ACAD_ISO03W100
 48
0.05
100
AcDbPolyline
 90
4
 70
1
 10
-886.7948143622632
 20
-219.9999999999854
 10
-36.79481436226343
 20
-219.9999999999854
 10
-36.79481436226343
 20
-231.9999999999855
 10
-886.7948143622632
 20
-231.9999999999855
  0
LINE
  5
10D
330
FD
100
AcDbEntity
  8
LN-ELEVATION-3
 48
0.5
100
AcDbLine
 10
-886.7948143622632
 20
1.45519e-11
 30
0.0
 11
-36.79481436226343
 21
1.45519e-11
 31
0.0
  0
ENDBLK
  5
FF
330
FD
100
AcDbEntity
  8
0
100
AcDbBlockEnd
  0
BLOCK
  5
111
330
110
100
AcDbEntity
  8
0
100
AcDbBlockBegin
  2
VC_FIXTURE_LARGE_2
 70
0
 10
0.0
 20
0.0
 30
0.0
  3
VC_FIXTURE_LARGE_2
  1

  0
INSERT
  5
113
330
110
100
AcDbEntity
  8
I-LK FF&E
100
AcDbBlockReference
  2
12MM VC PLAN
 10
-4.547e-13
 20
0.0
 30
0.0
 41
-1.0
  0
ENDBLK
  5
112
330
110
100
AcDbEntity
  8
0
100
AcDbBlockEnd
  0
BLOCK
  5
118
330
117
100
AcDbEntity
  8
0
100
AcDbBlockBegin
  2
VC_FIXTURE_LARGE_3
 70
0
 10
0.0
 20
0.0
 30
0.0
  3
VC_FIXTURE_LARGE_3
  1

  0
INSERT
  5
11A
330
117
100
AcDbEntity
  8
I-LK FF&E
100
AcDbBlockReference
  2
12MM VC PLAN
 10
-4.547e-13
 20
0.0
 30
0.0
 41
-1.0
  0
ENDBLK
  5
119
330
117
100
AcDbEntity
  8
0
100
AcDbBlockEnd
  0
BLOCK
  5
11F
330
11E
100
AcDbEntity
  8
0
100
AcDbBlockBegin
  2
JJ_FIXTURE_MEDIUM_2
 70
0
 10
0.0
 20
0.0
 30
0.0
  3
JJ_FIXTURE_MEDIUM_2
  1

  0
INSERT
  5
121
330
11E
100
AcDbEntity
  8
I-LK FF&E
100
AcDbBlockReference
  2
JJ 900
 10
911.7948143622633
 20
249.9999999999854
 30
0.0
  0
ENDBLK
  5
120
330
11E
100
AcDbEntity
  8
0
100
AcDbBlockEnd
  0
BLOCK
  5
126
330
125
100
AcDbEntity
  8
0
100
AcDbBlockBegin
  2
JJ_FIXTURE_LARGE_1
 70
0
 10
0.0
 20
0.0
 30
0.0
  3
JJ_FIXTURE_LARGE_1
  1

  0
INSERT
  5
128
330
125
100
AcDbEntity
  8
I-LK FF&E
100
AcDbBlockReference
  2
JJ 1200
 10
792.0591651862491
 20
30.0
 30
0.0
 41
-1.0
  0
ENDBLK
  5
127
330
125
100
AcDbEntity
  8
0
100
AcDbBlockEnd
  0
BLOCK
  5
12B
330
12A
100
AcDbEntity
  8
0
100
AcDbBlockBegin
  2
jj 1200
 70
0
 10
0.0
 20
0.0
 30
0.0
  3
jj 1200
  1

  0
HATCH
  5
12D
330
12A
100
AcDbEntity
  8
LN-HATCH
 48
0.5
100
AcDbHatch
 10
0.0
 20
0.0
 30
0.0
210
0.0
220
0.0
230
1.0
  2
ANSI31
 70
0
 71
0
 91
5
 92
1
 93
8
 72
1
 10
792.0591651862488
 20
220.0
 11
792.0591651862488
 21
30.0
 72
1
 10
792.0591651862488
 20
30.0
 11
786.0591651862486
 21
30.0
 72
1
 10
786.0591651862486
 20
30.0
 11
786.0591651862486
 21
20.0
 72
1
 10
786.0591651862486
 20
20.0
 11
792.0591651862488
 21
20.0
 72
1
 10
792.0591651862488
 20
20.0
 11
792.0591651862488
 21
-24.0
 72
1
 10
792.0591651862488
 20
-24.0
 11
767.0591651862488
 21
-24.0
 72
1
 10
767.0591651862488
 20
-24.0
 11
767.0591651862488
 21
220.0
 72
1
 10
767.0591651862488
 20
220.0
 11
792.0591651862488
 21
220.0
 97
0
 92
1
 93
4
 72
1
 10
-382.9408348137513
 20
180.0
 11
767.0591651862487
 21
180.0
 72
1
 10
767.0591651862488
 20
180.0
 11
767.0591651862488
 21
186.0
 72
1
 10
767.0591651862488
 20
186.0
 11
-382.9408348137512
 21
186.0
 72
1
 10
-382.9408348137513
 20
186.0
 11
-382.9408348137513
 21
180.0
 97
0
 92
1
 93
4
 72
1
 10
757.0591651862486
 20
-24.0
 11
757.0591651862486
 21
-30.0
 72
1
 10
757.0591651862486
 20
-30.0
 11
792.0591651862488
 21
-30.0
 72
1
 10
792.0591651862488
 20
-30.0
 11
792.0591651862488
 21
-24.0
 72
1
 10
792.0591651862488
 20
-24.0
 11
757.0591651862486
 21
-24.0
 97
0
 92
1
 93
8
 72
1
 10
-407.9408348137512
 20
220.0
 11
-407.9408348137512
 21
30.0
 72
1
 10
-407.9408348137512
 20
30.0
 11
-401.9408348137512
 21
30.0
 72
1
 10
-401.9408348137512
 20
30.0
 11
-401.9408348137512
 21
20.0
 72
1
 10
-401.9408348137512
 20
20.0
 11
-407.9408348137512
 21
20.0
 72
1
 10
-407.9408348137512
 20
20.0
 11
-407.9408348137512
 21
-24.0
 72
1
 10
-407.9408348137512
 20
-24.0
 11
-382.9408348137513
 21
-24.0
 72
1
 10
-382.9408348137513
 20
-24.0
 11
-382.9408348137513
 21
220.0
 72
1
 10
-382.9408348137513
 20
220.0
 11
-407.9408348137512
 21
220.0
 97
0
 92
1
 93
4
 72
1
 10
-372.9408348137513
 20
-24.0
 11
-372.9408348137513
 21
-30.0
 72
1
 10
-372.9408348137513
 20
-30.0
 11
-407.9408348137512
 21
-30.0
 72
1
 10
-407.9408348137512
 20
-30.0
 11
-407.9408348137512
 21
-24.0
 72
1
 10
-407.9408348137512
 20
-24.0
 11
-372.9408348137513
 21
-24.0
 97
0
 75
1
 76
1
 52
0.0
 41
2.0
 77
0
 78
1
 53
45.0
 43
4097187.330767878
 44
1708800.267299229
 45
-4.490128060534575
 46
4.490128060534575
 79
0
 98
1
 10
4097187.330767878
 20
1708800.267299229
  0
LWPOLYLINE
  5
12E
330
12A
100
AcDbEntity
  8
LN-ELEVATION-1
 48
0.5
100
AcDbPolyline
 90
8
 70
1
 10
792.0591651862488
 20
220.0
 10
792.0591651862488
 20
30.0
 10
786.0591651862486
 20
30.0
 10
786.0591651862486
 20
20.0
 10
792.0591651862488
 20
20.0
 10
792.0591651862488
 20
-24.0
 10
767.0591651862488
 20
-24.0
 10
767.0591651862488
 20
220.0
  0
LWPOLYLINE
  5
12F
330
12A
100
AcDbEntity
  8
LN-ELEVATION-1
 48
0.5
100
AcDbPolyline
 90
8
 70
1
 10
-407.9408348137512
 20
220.0
 10
-407.9408348137512
 20
30.0
 10
-401.9408348137512
 20
30.0
 10
-401.9408348137512
 20
20.0
 10
-407.9408348137512
 20
20.0
 10
-407.9408348137512
 20
-24.0
 10
-382.9408348137513
 20
-24.0
 10
-382.9408348137513
 20
220.0
  0
LWPOLYLINE
  5
130
330
12A
100
AcDbEntity
  8
LN-ELEVATION-1
 48
0.5
100
AcDbPolyline
 90
4
 70
1
 10
-382.9408348137513
 20
180.0
 10
767.0591651862488
 20
180.0
 10
767.0591651862488
 20
186.0
 10
-382.9408348137513
 20
186.0
  0
LWPOLYLINE
  5
131
330
12A
100
AcDbEntity
  8
LN-ELEVATION-1
 48
0.5
100
AcDbPolyline
 90
4
 70
1
 10
757.0591651862486
 20
-24.0
 10
757.0591651862486
 20
-30.0
 10
792.0591651862488
 20
-30.0
 10
792.0591651862488
 20
-24.0
  0
LWPOLYLINE
  5
132
330
12A
100
AcDbEntity
  8
LN-ELEVATION-1
 48
0.5
100
AcDbPolyline
 90
4
 70
1
 10
-372.9408348137513
 20
-24.0
 10
-372.9408348137513
 20
-30.0
 10
-407.9408348137512
 20
-30.0
 10
-407.9408348137512
 20
-24.0
  0
LINE
  5
133
330
12A
100
AcDbEntity
  8
LN-ELEVATION-3
 48
0.5
100
AcDbLine
 10
-372.9408348137513
 20
-30.0
 30
0.0
 11
757.0591651862486
 21
-30.0
 31
0.0
  0
LINE
  5
134
330
12A
100
AcDbEntity
  8
LN-ELEVATION-3
 48
0.5
100
AcDbLine
 10
757.0591651862486
 20
-24.0
 30
0.0
 11
-372.9408348137513
 21
-24.0
 31
0.0
  0
LWPOLYLINE
  5
135
330
12A
100
AcDbEntity
  8
LN-ELEVATION-4
  6
ACAD_ISO03W100
 48
0.05
100
AcDbPolyline
 90
4
 70
1
 10
767.0591651862488
 20
0.0
 10
-382.9408348137513
 20
0.0
 10
-382.9408348137513
 20
-12.0
 10
767.0591651862488
 20
-12.0
  0
LINE
  5
136
330
12A
100
AcDbEntity
  8
LN-ELEVATION-3
 48
0.5
100
AcDbLine
 10
767.0591651862488
 20
220.0
 30
0.0
 11
-382.9408348137513
 21
220.0
 31
0.0
  0
ENDBLK
  5
12C
330
12A
100
AcDbEntity
  8
0
100
AcDbBlockEnd
  0
BLOCK
  5
13A
330
139
100
AcDbEntity
  8
0
100
AcDbBlockBegin
  2
VC_FIXTURE_LARGE_4
 70
0
 10
0.0
 20
0.0
 30
0.0
  3
VC_FIXTURE_LARGE_4
  1

  0
INSERT
  5
13C
330
139
100
AcDbEntity
  8
I-LK FF&E
100
AcDbBlockReference
  2
12MM VC PLAN
 10
-4.547e-13
 20
0.0
 30
0.0
 41
-1.0
  0
ENDBLK
  5
13B
330
139
100
AcDbEntity
  8
0
100
AcDbBlockEnd
  0
BLOCK
  5
141
330
140
100
AcDbEntity
  8
0
100
AcDbBlockBegin
  2
VC_FIXTURE_LARGE_5
 70
0
 10
0.0
 20
0.0
 30
0.0
  3
VC_FIXTURE_LARGE_5
  1

  0
INSERT
  5
143
330
140
100
AcDbEntity
  8
I-LK FF&E
100
AcDbBlockReference
  2
12MM VC PLAN
 10
-4.547e-13
 20
0.0
 30
0.0
 41
-1.0
  0
ENDBLK
  5
142
330
140
100
AcDbEntity
  8
0
100
AcDbBlockEnd
  0
BLOCK
  5
148
330
147
100
AcDbEntity
  8
0
100
AcDbBlockBegin
  2
JJ_FIXTURE_LARGE_2
 70
0
 10
0.0
 20
0.0
 30
0.0
  3
JJ_FIXTURE_LARGE_2
  1

  0
INSERT
  5
14A
330
147
100
AcDbEntity
  8
I-LK FF&E
100
AcDbBlockReference
  2
JJ 1200
 10
792.0591651862491
 20
30.0
 30
0.0
 41
-1.0
  0
ENDBLK
  5
149
330
147
100
AcDbEntity
  8
0
100
AcDbBlockEnd
  0
BLOCK
  5
14F
330
14E
100
AcDbEntity
  8
0
100
AcDbBlockBegin
  2
MIRROR_2
 70
0
 10
0.0
 20
0.0
 30
0.0
  3
MIRROR_2
  1

  0
INSERT
  5
151
330
14E
100
AcDbEntity
  8
I-LK FF&E
100
AcDbBlockReference
  2
MIRROR UNIT SEE THRU
 10
150.0000000000586
 20
300.0
 30
0.0
  0
ENDBLK
  5
150
330
14E
100
AcDbEntity
  8
0
100
AcDbBlockEnd
  0
BLOCK
  5
158
330
157
100
AcDbEntity
  8
0
100
AcDbBlockBegin
  2
MIRROR_3
 70
0
 10
0.0
 20
0.0
 30
0.0
  3
MIRROR_3
  1

  0
INSERT
  5
15A
330
157
100
AcDbEntity
  8
I-LK FF&E
100
AcDbBlockReference
  2
MIRROR UNIT SEE THRU
 10
150.0000000000586
 20
300.0
 30
0.0
  0
ENDBLK
  5
159
330
157
100
AcDbEntity
  8
0
100
AcDbBlockEnd
  0
BLOCK
  5
161
330
160
100
AcDbEntity
  8
0
100
AcDbBlockBegin
  2
MIRROR_4
 70
0
 10
0.0
 20
0.0
 30
0.0
  3
MIRROR_4
  1

  0
INSERT
  5
163
330
160
100
AcDbEntity
  8
I-LK FF&E
100
AcDbBlockReference
  2
MIRROR UNIT SEE THRU
 10
150.0000000000586
 20
300.0
 30
0.0
  0
ENDBLK
  5
162
330
160
100
AcDbEntity
  8
0
100
AcDbBlockEnd
  0
BLOCK
  5
16A
330
169
100
AcDbEntity
  8
0
100
AcDbBlockBegin
  2
MIRROR_5
 70
0
 10
0.0
 20
0.0
 30
0.0
  3
MIRROR_5
  1

  0
INSERT
  5
16C
330
169
100
AcDbEntity
  8
I-LK FF&E
100
AcDbBlockReference
  2
MIRROR UNIT SEE THRU
 10
150.0000000000586
 20
300.0
 30
0.0
  0
ENDBLK
  5
16B
330
169
100
AcDbEntity
  8
0
100
AcDbBlockEnd
  0
BLOCK
  5
173
330
172
100
AcDbEntity
  8
0
100
AcDbBlockBegin
  2
MIRROR_6
 70
0
 10
0.0
 20
0.0
 30
0.0
  3
MIRROR_6
  1

  0
INSERT
  5
175
330
172
100
AcDbEntity
  8
I-LK FF&E
100
AcDbBlockReference
  2
MIRROR UNIT SEE THRU
 10
150.0000000000586
 20
300.0
 30
0.0
  0
ENDBLK
  5
174
330
172
100
AcDbEntity
  8
0
100
AcDbBlockEnd
  0
BLOCK
  5
17C
330
17B
100
AcDbEntity
  8
0
100
AcDbBlockBegin
  2
MIRROR_7
 70
0
 10
0.0
 20
0.0
 30
0.0
  3
MIRROR_7
  1

  0
INSERT
  5
17E
330
17B
100
AcDbEntity
  8
I-LK FF&E
100
AcDbBlockReference
  2
MIRROR UNIT SEE THRU
 10
150.0000000000586
 20
300.0
 30
0.0
  0
ENDBLK
  5
17D
330
17B
100
AcDbEntity
  8
0
100
AcDbBlockEnd
  0
BLOCK
  5
185
330
184
100
AcDbEntity
  8
0
100
AcDbBlockBegin
  2
MIRROR_8
 70
0
 10
0.0
 20
0.0
 30
0.0
  3
MIRROR_8
  1

  0
INSERT
  5
187
330
184
100
AcDbEntity
  8
I-LK FF&E
100
AcDbBlockReference
  2
MIRROR UNIT SEE THRU
 10
150.0000000000586
 20
300.0
 30
0.0
  0
ENDBLK
  5
186
330
184
100
AcDbEntity
  8
0
100
AcDbBlockEnd
  0
BLOCK
  5
18E
330
18D
100
AcDbEntity
  8
0
100
AcDbBlockBegin
  2
MIRROR_9
 70
0
 10
0.0
 20
0.0
 30
0.0
  3
MIRROR_9
  1

  0
INSERT
  5
190
330
18D
100
AcDbEntity
  8
I-LK FF&E
100
AcDbBlockReference
  2
MIRROR UNIT SEE THRU
 10
150.0000000000586
 20
300.0
 30
0.0
  0
ENDBLK
  5
18F
330
18D
100
AcDbEntity
  8
0
100
AcDbBlockEnd
  0
BLOCK
  5
197
330
196
100
AcDbEntity
  8
0
100
AcDbBlockBegin
  2
VC_FIXTURE_LARGE_6
 70
0
 10
0.0
 20
0.0
 30
0.0
  3
VC_FIXTURE_LARGE_6
  1

  0
INSERT
  5
199
330
196
100
AcDbEntity
  8
I-LK FF&E
100
AcDbBlockReference
  2
12MM VC PLAN
 10
-4.547e-13
 20
0.0
 30
0.0
 41
-1.0
  0
ENDBLK
  5
198
330
196
100
AcDbEntity
  8
0
100
AcDbBlockEnd
  0
BLOCK
  5
19E
330
19D
100
AcDbEntity
  8
0
100
AcDbBlockBegin
  2
JJ_FIXTURE_LARGE_3
 70
0
 10
0.0
 20
0.0
 30
0.0
  3
JJ_FIXTURE_LARGE_3
  1

  0
INSERT
  5
1A0
330
19D
100
AcDbEntity
  8
I-LK FF&E
100
AcDbBlockReference
  2
JJ 1200
 10
792.0591651862491
 20
30.0
 30
0.0
 41
-1.0
  0
ENDBLK
  5
19F
330
19D
100
AcDbEntity
  8
0
100
AcDbBlockEnd
  0
BLOCK
  5
1A5
330
1A4
100
AcDbEntity
  8
0
100
AcDbBlockBegin
  2
VC_FIXTURE_LARGE_7
 70
0
 10
0.0
 20
0.0
 30
0.0
  3
VC_FIXTURE_LARGE_7
  1

  0
INSERT
  5
1A7
330
1A4
100
AcDbEntity
  8
I-LK FF&E
100
AcDbBlockReference
  2
12MM VC PLAN
 10
-4.547e-13
 20
0.0
 30
0.0
 41
-1.0
  0
ENDBLK
  5
1A6
330
1A4
100
AcDbEntity
  8
0
100
AcDbBlockEnd
  0
BLOCK
  5
1AC
330
1AB
100
AcDbEntity
  8
0
100
AcDbBlockBegin
  2
VC_FIXTURE_LARGE_8
 70
0
 10
0.0
 20
0.0
 30
0.0
  3
VC_FIXTURE_LARGE_8
  1

  0
INSERT
  5
1AE
330
1AB
100
AcDbEntity
  8
I-LK FF&E
100
AcDbBlockReference
  2
12MM VC PLAN
 10
-4.547e-13
 20
0.0
 30
0.0
 41
-1.0
  0
ENDBLK
  5
1AD
330
1AB
100
AcDbEntity
  8
0
100
AcDbBlockEnd
  0
BLOCK
  5
1B3
330
1B2
100
AcDbEntity
  8
0
100
AcDbBlockBegin
  2
JJ_FIXTURE_MEDIUM_3
 70
0
 10
0.0
 20
0.0
 30
0.0
  3
JJ_FIXTURE_MEDIUM_3
  1

  0
INSERT
  5
1B5
330
1B2
100
AcDbEntity
  8
I-LK FF&E
100
AcDbBlockReference
  2
JJ 900
 10
911.7948143622633
 20
249.9999999999854
 30
0.0
  0
ENDBLK
  5
1B4
330
1B2
100
AcDbEntity
  8
0
100
AcDbBlockEnd
  0
BLOCK
  5
1BA
330
1B9
100
AcDbEntity
  8
0
100
AcDbBlockBegin
  2
JJ_FIXTURE_LARGE_4
 70
0
 10
0.0
 20
0.0
 30
0.0
  3
JJ_FIXTURE_LARGE_4
  1

  0
INSERT
  5
1BC
330
1B9
100
AcDbEntity
  8
I-LK FF&E
100
AcDbBlockReference
  2
JJ 1200
 10
792.0591651862491
 20
30.0
 30
0.0
 41
-1.0
  0
ENDBLK
  5
1BB
330
1B9
100
AcDbEntity
  8
0
100
AcDbBlockEnd
  0
BLOCK
  5
1C1
330
1C0
100
AcDbEntity
  8
0
100
AcDbBlockBegin
  2
VC_FIXTURE_LARGE_9
 70
0
 10
0.0
 20
0.0
 30
0.0
  3
VC_FIXTURE_LARGE_9
  1

  0
INSERT
  5
1C3
330
1C0
100
AcDbEntity
  8
I-LK FF&E
100
AcDbBlockReference
  2
12MM VC PLAN
 10
-4.547e-13
 20
0.0
 30
0.0
 41
-1.0
  0
ENDBLK
  5
1C2
330
1C0
100
AcDbEntity
  8
0
100
AcDbBlockEnd
  0
BLOCK
  5
1C8
330
1C7
100
AcDbEntity
  8
0
100
AcDbBlockBegin
  2
VC_FIXTURE_LARGE_10
 70
0
 10
0.0
 20
0.0
 30
0.0
  3
VC_FIXTURE_LARGE_10
  1

  0
INSERT
  5
1CA
330
1C7
100
AcDbEntity
  8
I-LK FF&E
100
AcDbBlockReference
  2
12MM VC PLAN
 10
-4.547e-13
 20
0.0
 30
0.0
 41
-1.0
  0
ENDBLK
  5
1C9
330
1C7
100
AcDbEntity
  8
0
100
AcDbBlockEnd
  0
BLOCK
  5
1CF
330
1CE
100
AcDbEntity
  8
0
100
AcDbBlockBegin
  2
VC_FIXTURE_LARGE_11
 70
0
 10
0.0
 20
0.0
 30
0.0
  3
VC_FIXTURE_LARGE_11
  1

  0
INSERT
  5
1D1
330
1CE
100
AcDbEntity
  8
I-LK FF&E
100
AcDbBlockReference
  2
12MM VC PLAN
 10
-4.547e-13
 20
0.0
 30
0.0
 41
-1.0
  0
ENDBLK
  5
1D0
330
1CE
100
AcDbEntity
  8
0
100
AcDbBlockEnd
  0
BLOCK
  5
1D6
330
1D5
100
AcDbEntity
  8
0
100
AcDbBlockBegin
  2
MIRROR_10
 70
0
 10
0.0
 20
0.0
 30
0.0
  3
MIRROR_10
  1

  0
INSERT
  5
1D8
330
1D5
100
AcDbEntity
  8
I-LK FF&E
100
AcDbBlockReference
  2
MIRROR UNIT SEE THRU
 10
150.0000000000586
 20
300.0
 30
0.0
  0
ENDBLK
  5
1D7
330
1D5
100
AcDbEntity
  8
0
100
AcDbBlockEnd
  0
BLOCK
  5
1DF
330
1DE
100
AcDbEntity
  8
0
100
AcDbBlockBegin
  2
MIRROR_11
 70
0
 10
0.0
 20
0.0
 30
0.0
  3
MIRROR_11
  1

  0
INSERT
  5
1E1
330
1DE
100
AcDbEntity
  8
I-LK FF&E
100
AcDbBlockReference
  2
MIRROR UNIT SEE THRU
 10
150.0000000000586
 20
300.0
 30
0.0
  0
ENDBLK
  5
1E0
330
1DE
100
AcDbEntity
  8
0
100
AcDbBlockEnd
  0
BLOCK
  5
1E8
330
1E7
100
AcDbEntity
  8
0
100
AcDbBlockBegin
  2
MIRROR_12
 70
0
 10
0.0
 20
0.0
 30
0.0
  3
MIRROR_12
  1

  0
INSERT
  5
1EA
330
1E7
100
AcDbEntity
  8
I-LK FF&E
100
AcDbBlockReference
  2
MIRROR UNIT SEE THRU
 10
150.0000000000586
 20
300.0
 30
0.0
  0
ENDBLK
  5
1E9
330
1E7
100
AcDbEntity
  8
0
100
AcDbBlockEnd
  0
BLOCK
  5
1F1
330
1F0
100
AcDbEntity
  8
0
100
AcDbBlockBegin
  2
MIRROR_13
 70
0
 10
0.0
 20
0.0
 30
0.0
  3
MIRROR_13
  1

  0
INSERT
  5
1F3
330
1F0
100
AcDbEntity
  8
I-LK FF&E
100
AcDbBlockReference
  2
MIRROR UNIT SEE THRU
 10
150.0000000000586
 20
300.0
 30
0.0
  0
ENDBLK
  5
1F2
330
1F0
100
AcDbEntity
  8
0
100
AcDbBlockEnd
  0
BLOCK
  5
1FA
330
1F9
100
AcDbEntity
  8
0
100
AcDbBlockBegin
  2
MIRROR_14
 70
0
 10
0.0
 20
0.0
 30
0.0
  3
MIRROR_14
  1

  0
INSERT
  5
1FC
330
1F9
100
AcDbEntity
  8
I-LK FF&E
100
AcDbBlockReference
  2
MIRROR UNIT SEE THRU
 10
150.0000000000586
 20
300.0
 30
0.0
  0
ENDBLK
  5
1FB
330
1F9
100
AcDbEntity
  8
0
100
AcDbBlockEnd
  0
BLOCK
  5
203
330
202
100
AcDbEntity
  8
0
100
AcDbBlockBegin
  2
MIRROR_15
 70
0
 10
0.0
 20
0.0
 30
0.0
  3
MIRROR_15
  1

  0
INSERT
  5
205
330
202
100
AcDbEntity
  8
I-LK FF&E
100
AcDbBlockReference
  2
MIRROR UNIT SEE THRU
 10
150.0000000000586
 20
300.0
 30
0.0
  0
ENDBLK
  5
204
330
202
100
AcDbEntity
  8
0
100
AcDbBlockEnd
  0
BLOCK
  5
20C
330
20B
100
AcDbEntity
  8
0
100
AcDbBlockBegin
  2
MIRROR_16
 70
0
 10
0.0
 20
0.0
 30
0.0
  3
MIRROR_16
  1

  0
INSERT
  5
20E
330
20B
100
AcDbEntity
  8
I-LK FF&E
100
AcDbBlockReference
  2
MIRROR UNIT SEE THRU
 10
150.0000000000586
 20
300.0
 30
0.0
  0
ENDBLK
  5
20D
330
20B
100
AcDbEntity
  8
0
100
AcDbBlockEnd
  0
BLOCK
  5
215
330
214
100
AcDbEntity
  8
0
100
AcDbBlockBegin
  2
MIRROR_17
 70
0
 10
0.0
 20
0.0
 30
0.0
  3
MIRROR_17
  1

  0
INSERT
  5
217
330
214
100
AcDbEntity
  8
I-LK FF&E
100
AcDbBlockReference
  2
MIRROR UNIT SEE THRU
 10
150.0000000000586
 20
300.0
 30
0.0
  0
ENDBLK
  5
216
330
214
100
AcDbEntity
  8
0
100
AcDbBlockEnd
  0
BLOCK
  5
21E
330
21D
100
AcDbEntity
  8
0
100
AcDbBlockBegin
  2
SCREEN_55_1
 70
0
 10
0.0
 20
0.0
 30
0.0
  3
SCREEN_55_1
  1

  0
LINE
  5
220
330
21D
100
AcDbEntity
  8
I-LK IT
  6
DASHDOT2
 62
1
 48
3.0
100
AcDbLine
 10
620.5001770032977
 20
23.08002232541912
 30
0.0
 11
620.5001770032977
 21
512.096999242578
 31
0.0
  0
MTEXT
  5
221
102
{ACAD_XDICTIONARY
360
222
102
}
330
21D
100
AcDbEntity
  8
I-LK TEXT
  6
Continuous
 62
0
 48
3.0
100
AcDbMText
 10
612.037833511683
 20
38.80457025920623
 30
0.0
 40
75.0
 41
783.9636358173434
 46
0.0
 71
5
 72
5
  1
\pxqc,t3;55" SCREEN
  7
LK TXT
  0
INSERT
  5
223
330
21D
100
AcDbEntity
  8
I-LK IT
100
AcDbBlockReference
  2
IT 55INCH TV
 10
-1134449.450467437
 20
2111972.682131715
 30
0.0
 50
270.0
  0
INSERT
  5
225
330
21D
100
AcDbEntity
  8
I-LK IT
100
AcDbBlockReference
  2
IT 55INCH TV
 10
-1134449.450467437
 20
-2111437.505110139
 30
0.0
 41
-1.0
 50
270.0
  0
CIRCLE
  5
227
330
21D
100
AcDbEntity
  8
I-LK IT
 62
1
100
AcDbCircle
 10
620.5001770032977
 20
267.5885107849281
 30
0.0
 40
25.0
  0
LWPOLYLINE
  5
228
330
21D
100
AcDbEntity
  8
I-LK IT
100
AcDbPolyline
 90
5
 70
0
 10
633.0001770032977
 20
289.2391458802485
 10
633.0001770032977
 20
355.0034541838359
 10
608.0001770032977
 20
355.0034541838359
 10
608.0001770032977
 20
289.2391458802485
 42
-0.26794919244356
 10
633.0001770032977
 20
289.2391458802485
 42
1.0
  0
LWPOLYLINE
  5
229
330
21D
100
AcDbEntity
  8
I-LK IT
100
AcDbPolyline
 90
4
 70
1
 10
670.5001770032977
 20
365.0034541838359
 10
570.5001770032977
 20
365.0034541838359
 10
570.5001770032977
 20
355.0034541838359
 10
670.5001770032977
 20
355.0034541838359
  0
LWPOLYLINE
  5
22A
330
21D
100
AcDbEntity
  8
I-LK IT
100
AcDbPolyline
 90
5
 70
0
 10
633.0001770032977
 20
245.9378756896185
 10
633.0001770032977
 20
180.1735673860203
 10
608.0001770032977
 20
180.1735673860203
 10
608.0001770032977
 20
245.9378756896185
 42
0.26794919244356
 10
633.0001770032977
 20
245.9378756896185
 42
-1.0
  0
LWPOLYLINE
  5
22B
330
21D
100
AcDbEntity
  8
I-LK IT
100
AcDbPolyline
 90
4
 70
1
 10
670.5001770032977
 20
170.1735673860203
 10
570.5001770032977
 20
170.1735673860203
 10
570.5001770032977
 20
180.1735673860203
 10
670.5001770032977
 20
180.1735673860203
  0
MTEXT
  5
22C
102
{ACAD_XDICTIONARY
360
22D
102
}
330
21D
100
AcDbEntity
  8
I-LK TEXT
  6
Continuous
 62
0
 48
3.0
100
AcDbMText
 10
612.037833511683
 20
485.8045702592062
 30
0.0
 40
75.0
 41
783.9636358173434
 46
0.0
 71
5
 72
5
  1
\pxqc,t3;55" SCREEN
  7
LK TXT
  0
ENDBLK
  5
21F
330
21D
100
AcDbEntity
  8
0
100
AcDbBlockEnd
  0
BLOCK
  5
232
330
231
100
AcDbEntity
  8
0
100
AcDbBlockBegin
  2
it 55inch tv
 70
0
 10
0.0
 20
0.0
 30
0.0
  3
it 55inch tv
  1

  0
LWPOLYLINE
  5
234
330
231
100
AcDbEntity
  8
I-LK EQPMT
100
AcDbPolyline
 90
4
 70
1
 10
2111627.20517066
 20
1134562.665896999
 10
2111627.205337125
 20
1134600.89927008
 10
2111665.438710206
 20
1134600.899103615
 10
2111665.438543742
 20
1134562.665730534
  0
LWPOLYLINE
  5
235
330
231
100
AcDbEntity
  8
I-LK EQPMT
100
AcDbPolyline
 90
4
 70
1
 10
2111631.028524615
 20
1134566.489217661
 10
2111631.028657787
 20
1134597.075916125
 10
2111661.615356252
 20
1134597.075782954
 10
2111661.61522308
 20
1134566.489084489
  0
LWPOLYLINE
  5
236
330
231
100
AcDbEntity
  8
I-LK EQPMT
100
AcDbPolyline
 90
4
 70
1
 10
2111627.204187012
 20
1135577.7428048
 10
2111627.204020548
 20
1135539.509431719
 10
2111665.437393629
 20
1135539.509265254
 10
2111665.437560093
 20
1135577.742638335
  0
LWPOLYLINE
  5
237
330
231
100
AcDbEntity
  8
I-LK EQPMT
100
AcDbPolyline
 90
4
 70
1
 10
2111631.027507674
 20
1135573.919450845
 10
2111631.027374502
 20
1135543.33275238
 10
2111661.614072967
 20
1135543.332619209
 10
2111661.614206139
 20
1135573.919317673
  0
LINE
  5
238
330
231
100
AcDbEntity
  8
I-LK EQPMT
100
AcDbLine
 10
2111661.615356252
 20
1134597.075782954
 30
0.0
 11
2111631.028524615
 21
1134566.489217661
 31
0.0
  0
LINE
  5
239
330
231
100
AcDbEntity
  8
I-LK EQPMT
100
AcDbLine
 10
2111661.614072967
 20
1135543.332619209
 30
0.0
 11
2111631.027507674
 21
1135573.919450845
 31
0.0
  0
LINE
  5
23A
330
231
100
AcDbEntity
  8
I-LK EQPMT
100
AcDbLine
 10
2111661.614206139
 20
1135573.919317673
 30
0.0
 11
2111631.027374502
 21
1135543.33275238
 31
0.0
  0
LINE
  5
23B
330
231
100
AcDbEntity
  8
I-LK EQPMT
 48
12.0
100
AcDbLine
 10
2111627.205367106
 20
1134610.5634114
 30
0.0
 11
2111607.679381233
 21
1134610.563496415
 31
0.0
  0
LINE
  5
23C
330
231
100
AcDbEntity
  8
I-LK EQPMT
 48
12.0
100
AcDbLine
 10
2111627.205367106
 20
1134610.5634114
 30
0.0
 11
2111627.205112064
 21
1134551.985453779
 31
0.0
  0
LINE
  5
23D
330
231
100
AcDbEntity
  8
I-LK EQPMT
 48
12.0
100
AcDbLine
 10
2111607.678233332
 20
1135587.915183341
 30
0.0
 11
2111627.204219206
 21
1135587.915098327
 31
0.0
  0
LINE
  5
23E
330
231
100
AcDbEntity
  8
I-LK EQPMT
 48
12.0
100
AcDbLine
 10
2111627.203964163
 20
1135529.337140705
 30
0.0
 11
2111607.677978289
 21
1135529.33722572
 31
0.0
  0
LINE
  5
23F
330
231
100
AcDbEntity
  8
I-LK EQPMT
 48
12.0
100
AcDbLine
 10
2111607.678786133
 20
1134473.881595298
 30
0.0
 11
2111607.67857339
 21
1135666.019126837
 31
0.0
  0
LWPOLYLINE
  5
240
330
231
100
AcDbEntity
  8
I-LK EQPMT
 48
12.0
100
AcDbPolyline
 90
4
 70
1
 10
2111542.593620929
 20
1135690.450644441
 10
2111558.8162113
 20
1135690.45057381
 10
2111558.8162113
 20
1134449.45057381
 10
2111542.593620929
 20
1134449.450644441
  0
LINE
  5
241
330
231
100
AcDbEntity
  8
I-LK EQPMT
 48
12.0
100
AcDbLine
 10
2111558.8162113
 20
1135690.45057381
 30
0.0
 11
2111583.24744553
 21
1135690.450467439
 31
0.0
  0
LINE
  5
242
330
231
100
AcDbEntity
  8
I-LK EQPMT
 48
12.0
100
AcDbLine
 10
2111558.8162113
 20
1134449.45057381
 30
0.0
 11
2111583.247445531
 21
1134449.450467438
 31
0.0
  0
LINE
  5
243
330
231
100
AcDbEntity
  8
I-LK EQPMT
 48
12.0
100
AcDbLine
 10
2111583.24744553
 20
1135690.450467439
 30
0.0
 11
2111607.67857339
 21
1135666.019126837
 31
0.0
  0
LINE
  5
244
330
231
100
AcDbEntity
  8
I-LK EQPMT
 48
12.0
100
AcDbLine
 10
2111583.247445531
 20
1134449.450467438
 30
0.0
 11
2111607.678786133
 21
1134473.881595298
 31
0.0
  0
LINE
  5
245
330
231
100
AcDbEntity
  8
I-LK EQPMT
 48
12.0
100
AcDbLine
 10
2111607.679126189
 20
1134551.985538793
 30
0.0
 11
2111627.205112064
 21
1134551.985453779
 31
0.0
  0
LINE
  5
246
330
231
100
AcDbEntity
  8
I-LK EQPMT
 48
12.0
100
AcDbLine
 10
2111627.204219206
 20
1135587.915098327
 30
0.0
 11
2111627.203964163
 21
1135529.337140705
 31
0.0
  0
ENDBLK
  5
233
330
231
100
AcDbEntity
  8
0
100
AcDbBlockEnd
  0
BLOCK
  5
24A
330
249
100
AcDbEntity
  8
0
100
AcDbBlockBegin
  2
MIRROR_DIFFERENT_1
 70
0
 10
0.0
 20
0.0
 30
0.0
  3
MIRROR_DIFFERENT_1
  1

  0
INSERT
  5
24C
330
249
100
AcDbEntity
  8
I-LK FF&E
100
AcDbBlockReference
  2
MIRROR UNIT
 10
-212.9447889634028
 20
148.6592409225377
 30
0.0
  0
ENDBLK
  5
24B
330
249
100
AcDbEntity
  8
0
100
AcDbBlockEnd
  0
BLOCK
  5
24F
330
24E
100
AcDbEntity
  8
0
100
AcDbBlockBegin
  2
mirror unit
 70
0
 10
0.0
 20
0.0
 30
0.0
  3
mirror unit
  1

  0
LWPOLYLINE
  5
251
330
24E
100
AcDbEntity
  8
LN-ELEVATION-1
100
AcDbPolyline
 90
8
 70
1
 10
504.944788963403
 20
-148.6592409225377
 10
504.944788963403
 20
-147.1592409225377
 10
509.444788963403
 20
-147.1592409225377
 10
509.444788963403
 20
-129.1592409225377
 10
487.9447889634028
 20
-129.1592409225377
 10
487.9447889634028
 20
-127.6592409225377
 10
510.9447889634028
 20
-127.6592409225377
 10
510.9447889634028
 20
-148.6592409225377
  0
LWPOLYLINE
  5
252
330
24E
100
AcDbEntity
  8
LN-ELEVATION-1
100
AcDbPolyline
 90
8
 70
1
 10
259.944788963403
 20
-141.6592409225377
 10
259.944788963403
 20
-127.6592409225377
 10
214.944788963403
 20
-127.6592409225377
 10
214.944788963403
 20
-148.6592409225377
 10
223.944788963403
 20
-148.6592409225377
 10
223.944788963403
 20
-147.1592409225377
 10
216.444788963403
 20
-147.1592409225377
 10
216.444788963403
 20
-141.6592409225377
  0
LWPOLYLINE
  5
253
330
24E
100
AcDbEntity
  8
LN-ELEVATION-1
100
AcDbPolyline
 90
8
 70
1
 10
442.944788963403
 20
-141.6592409225377
 10
442.944788963403
 20
-127.6592409225377
 10
487.9447889634028
 20
-127.6592409225377
 10
487.9447889634028
 20
-148.6592409225377
 10
478.9447889634026
 20
-148.6592409225377
 10
478.9447889634026
 20
-147.1592409225377
 10
486.4447889634027
 20
-147.1592409225377
 10
486.4447889634027
 20
-141.6592409225377
  0
LWPOLYLINE
  5
254
330
24E
100
AcDbEntity
  8
LN-ELEVATION-2
100
AcDbPolyline
 90
4
 70
1
 10
259.944788963403
 20
-141.6592409225377
 10
442.944788963403
 20
-141.6592409225377
 10
442.944788963403
 20
-127.6592409225377
 10
259.944788963403
 20
-127.6592409225377
  0
LWPOLYLINE
  5
255
330
24E
100
AcDbEntity
  8
LN-ELEVATION-2
 62
4
370
0
100
AcDbPolyline
 90
4
 70
1
 10
216.444788963403
 20
-141.6592409225377
 10
486.4447889634027
 20
-141.6592409225377
 10
486.4447889634027
 20
-147.1592409225377
 10
216.444788963403
 20
-147.1592409225377
  0
LINE
  5
256
330
24E
100
AcDbEntity
  8
LN-ELEVATION-4
 48
0.5
100
AcDbLine
 10
478.9447889634026
 20
-148.6592409225377
 30
0.0
 11
223.944788963403
 21
-148.6592409225377
 31
0.0
  0
HATCH
  5
257
330
24E
100
AcDbEntity
  8
LN-HATCH
 48
0.5
100
AcDbHatch
 10
0.0
 20
0.0
 30
0.0
210
0.0
220
0.0
230
1.0
  2
ANSI31
 70
0
 71
0
 91
3
 92
1
 93
4
 72
1
 10
212.944788963403
 20
101.3407590774622
 11
230.944788963403
 21
101.3407590774622
 72
1
 10
230.944788963403
 20
101.3407590774622
 11
230.944788963403
 21
-127.6592409225377
 72
1
 10
230.944788963403
 20
-127.6592409225377
 11
212.944788963403
 21
-127.6592409225377
 72
1
 10
212.944788963403
 20
-127.6592409225377
 11
212.944788963403
 21
101.3407590774622
 97
0
 92
1
 93
4
 72
1
 10
230.944788963403
 20
95.34075907746227
 11
494.9447889634027
 21
95.34075907746227
 72
1
 10
494.9447889634027
 20
95.34075907746227
 11
494.9447889634027
 21
101.3407590774622
 72
1
 10
494.9447889634027
 20
101.3407590774622
 11
230.944788963403
 21
101.3407590774622
 72
1
 10
230.944788963403
 20
101.3407590774622
 11
230.944788963403
 21
95.34075907746227
 97
0
 92
1
 93
4
 72
1
 10
512.9447889634027
 20
101.3407590774622
 11
494.9447889634027
 21
101.3407590774622
 72
1
 10
494.9447889634027
 20
101.3407590774622
 11
494.9447889634027
 21
-127.6592409225377
 72
1
 10
494.9447889634027
 20
-127.6592409225377
 11
512.9447889634027
 21
-127.6592409225377
 72
1
 10
512.9447889634027
 20
-127.6592409225377
 11
512.9447889634027
 21
101.3407590774622
 97
0
 75
1
 76
1
 52
0.0
 41
2.0
 77
0
 78
1
 53
45.0
 43
4060433.741624544
 44
1708720.786904081
 45
-4.490128060534575
 46
4.490128060534575
 79
0
 98
1
 10
4060433.741624544
 20
1708720.786904081
  0
LWPOLYLINE
  5
258
330
24E
100
AcDbEntity
  8
LN-ELEVATION-1
100
AcDbPolyline
 90
4
 70
1
 10
512.9447889634027
 20
101.3407590774622
 10
494.9447889634027
 20
101.3407590774622
 10
494.9447889634027
 20
-127.6592409225377
 10
512.9447889634027
 20
-127.6592409225377
  0
LWPOLYLINE
  5
259
330
24E
100
AcDbEntity
  8
LN-ELEVATION-1
100
AcDbPolyline
 90
4
 70
1
 10
212.944788963403
 20
101.3407590774622
 10
230.944788963403
 20
101.3407590774622
 10
230.944788963403
 20
-127.6592409225377
 10
212.944788963403
 20
-127.6592409225377
  0
LWPOLYLINE
  5
25A
330
24E
100
AcDbEntity
  8
LN-ELEVATION-1
100
AcDbPolyline
 90
4
 70
1
 10
230.944788963403
 20
95.34075907746227
 10
494.9447889634027
 20
95.34075907746227
 10
494.9447889634027
 20
101.3407590774622
 10
230.944788963403
 20
101.3407590774622
  0
LWPOLYLINE
  5
25B
330
24E
100
AcDbEntity
  8
Defpoints
100
AcDbPolyline
 90
4
 70
1
 10
512.9447889634027
 20
101.3407590774622
 10
212.944788963403
 20
101.3407590774622
 10
212.944788963403
 20
-148.6592409225377
 10
512.9447889634027
 20
-148.6592409225377
  0
ENDBLK
  5
250
330
24E
100
AcDbEntity
  8
0
100
AcDbBlockEnd
  0
BLOCK
  5
25F
330
25E
100
AcDbEntity
  8
0
100
AcDbBlockBegin
  2
MIRROR_DIFFERENT_2
 70
0
 10
0.0
 20
0.0
 30
0.0
  3
MIRROR_DIFFERENT_2
  1

  0
INSERT
  5
261
330
25E
100
AcDbEntity
  8
I-LK FF&E
100
AcDbBlockReference
  2
MIRROR UNIT
 10
-212.9447889634028
 20
148.6592409225377
 30
0.0
  0
ENDBLK
  5
260
330
25E
100
AcDbEntity
  8
0
100
AcDbBlockEnd
  0
BLOCK
  5
266
330
265
100
AcDbEntity
  8
0
100
AcDbBlockBegin
  2
MIRROR_DIFFERENT_3
 70
0
 10
0.0
 20
0.0
 30
0.0
  3
MIRROR_DIFFERENT_3
  1

  0
INSERT
  5
268
330
265
100
AcDbEntity
  8
I-LK FF&E
100
AcDbBlockReference
  2
MIRROR UNIT
 10
-212.9447889634028
 20
148.6592409225377
 30
0.0
  0
ENDBLK
  5
267
330
265
100
AcDbEntity
  8
0
100
AcDbBlockEnd
  0
BLOCK
  5
26D
330
26C
100
AcDbEntity
  8
0
100
AcDbBlockBegin
  2
MIRROR_DIFFERENT_4
 70
0
 10
0.0
 20
0.0
 30
0.0
  3
MIRROR_DIFFERENT_4
  1

  0
INSERT
  5
26F
330
26C
100
AcDbEntity
  8
I-LK FF&E
100
AcDbBlockReference
  2
MIRROR UNIT
 10
-212.9447889634028
 20
148.6592409225377
 30
0.0
  0
ENDBLK
  5
26E
330
26C
100
AcDbEntity
  8
0
100
AcDbBlockEnd
  0
BLOCK
  5
274
330
273
100
AcDbEntity
  8
0
100
AcDbBlockBegin
  2
MIRROR_DIFFERENT_5
 70
0
 10
0.0
 20
0.0
 30
0.0
  3
MIRROR_DIFFERENT_5
  1

  0
INSERT
  5
276
330
273
100
AcDbEntity
  8
I-LK FF&E
100
AcDbBlockReference
  2
MIRROR UNIT
 10
-212.9447889634028
 20
148.6592409225377
 30
0.0
  0
ENDBLK
  5
275
330
273
100
AcDbEntity
  8
0
100
AcDbBlockEnd
  0
BLOCK
  5
27B
330
27A
100
AcDbEntity
  8
0
100
AcDbBlockBegin
  2
MIRROR_DIFFERENT_6
 70
0
 10
0.0
 20
0.0
 30
0.0
  3
MIRROR_DIFFERENT_6
  1

  0
INSERT
  5
27D
330
27A
100
AcDbEntity
  8
I-LK FF&E
100
AcDbBlockReference
  2
MIRROR UNIT
 10
-212.9447889634028
 20
148.6592409225377
 30
0.0
  0
ENDBLK
  5
27C
330
27A
100
AcDbEntity
  8
0
100
AcDbBlockEnd
  0
BLOCK
  5
282
330
281
100
AcDbEntity
  8
0
100
AcDbBlockBegin
  2
EURO_CENTRE_1
 70
0
 10
0.0
 20
0.0
 30
0.0
  3
EURO_CENTRE_1
  1

  0
INSERT
  5
284
330
281
100
AcDbEntity
  8
I-LK FF&E
100
AcDbBlockReference
  2
EUROCENTER 1040
 10
520.0000000000001
 20
517.434990927577
 30
0.0
  0
ENDBLK
  5
283
330
281
100
AcDbEntity
  8
0
100
AcDbBlockEnd
  0
BLOCK
  5
289
330
288
100
AcDbEntity
  8
0
100
AcDbBlockBegin
  2
euro mirror
 70
0
 10
0.0
 20
0.0
 30
0.0
  3
euro mirror
  1

  0
LWPOLYLINE
  5
28B
330
288
100
AcDbEntity
  8
LN-ELEVATION-5
  6
ACAD_ISO03W100
 48
0.1
100
AcDbPolyline
 90
4
 70
1
 10
140.0
 20
-41.46233547315932
 10
140.0
 20
-67.14025533781387
 10
-160.0
 20
-67.14025533781387
 10
-160.0
 20
-41.46233547315932
  0
LWPOLYLINE
  5
28C
330
288
100
AcDbEntity
  8
LN-ELEVATION-5
  6
ACAD_ISO03W100
 48
0.1
100
AcDbPolyline
 90
4
 70
0
 10
140.0
 20
-67.14025533781387
 10
140.0
 20
-241.0752462653909
 10
-160.0
 20
-241.0752462653909
 10
-160.0
 20
-67.14025533781387
  0
LWPOLYLINE
  5
28D
330
288
100
AcDbEntity
  8
LN-ELEVATION-5
  6
ACAD_ISO03W100
 48
0.1
100
AcDbPolyline
 90
4
 70
1
 10
140.0
 20
72.9897628070321
 10
140.0
 20
47.31184294237753
 10
-160.0
 20
47.31184294237753
 10
-160.0
 20
72.9897628070321
  0
LWPOLYLINE
  5
28E
330
288
100
AcDbEntity
  8
LN-ELEVATION-5
  6
ACAD_ISO03W100
 48
0.1
100
AcDbPolyline
 90
4
 70
0
 10
140.0
 20
72.9897628070321
 10
140.0
 20
246.9247537346091
 10
-160.0
 20
246.9247537346091
 10
-160.0
 20
72.9897628070321
  0
LWPOLYLINE
  5
28F
330
288
100
AcDbEntity
  8
LN-ELEVATION-4
  6
ACAD_ISO03W100
 48
0.1
100
AcDbPolyline
 90
4
 70
1
 10
0.0
 20
47.31184294237753
 10
0.0
 20
-41.46233547315932
 10
-20.0
 20
-41.46233547315932
 10
-20.0
 20
47.31184294237753
  0
LINE
  5
290
330
288
100
AcDbEntity
  8
LN-ELEVATION-5
  6
ACAD_ISO03W100
 48
0.1
100
AcDbLine
 10
139.8999999999069
 20
246.9247537346091
 30
0.0
 11
139.8999999999069
 21
47.31184294237753
 31
0.0
  0
LINE
  5
291
330
288
100
AcDbEntity
  8
LN-ELEVATION-5
  6
ACAD_ISO03W100
 48
0.1
100
AcDbLine
 10
139.8999999999069
 20
-41.46233547315932
 30
0.0
 11
139.8999999999069
 21
-241.0752462653909
 31
0.0
  0
LINE
  5
292
330
288
100
AcDbEntity
  8
LN-ELEVATION-5
  6
ACAD_ISO03W100
 48
0.1
100
AcDbLine
 10
139.6999999997206
 20
246.9247537346091
 30
0.0
 11
139.6999999997206
 21
47.31184294237753
 31
0.0
  0
LINE
  5
293
330
288
100
AcDbEntity
  8
LN-ELEVATION-5
  6
ACAD_ISO03W100
 48
0.1
100
AcDbLine
 10
139.6999999997206
 20
-41.46233547315932
 30
0.0
 11
139.6999999997206
 21
-241.0752462653909
 31
0.0
  0
LINE
  5
294
330
288
100
AcDbEntity
  8
LN-ELEVATION-5
  6
ACAD_ISO03W100
 48
0.1
100
AcDbLine
 10
139.3999999999069
 20
246.9247537346091
 30
0.0
 11
139.3999999999069
 21
47.31184294237753
 31
0.0
  0
LINE
  5
295
330
288
100
AcDbEntity
  8
LN-ELEVATION-5
  6
ACAD_ISO03W100
 48
0.1
100
AcDbLine
 10
139.3999999999069
 20
-41.46233547315932
 30
0.0
 11
139.3999999999069
 21
-241.0752462653909
 31
0.0
  0
LINE
  5
296
330
288
100
AcDbEntity
  8
LN-ELEVATION-5
  6
ACAD_ISO03W100
 48
0.1
100
AcDbLine
 10
139.0
 20
246.9247537346091
 30
0.0
 11
139.0
 21
47.31184294237753
 31
0.0
  0
LINE
  5
297
330
288
100
AcDbEntity
  8
LN-ELEVATION-5
  6
ACAD_ISO03W100
 48
0.1
100
AcDbLine
 10
139.0
 20
-41.46233547315932
 30
0.0
 11
139.0
 21
-241.0752462653909
 31
0.0
  0
LINE
  5
298
330
288
100
AcDbEntity
  8
LN-ELEVATION-5
  6
ACAD_ISO03W100
 48
0.1
100
AcDbLine
 10
138.5
 20
246.9247537346091
 30
0.0
 11
138.5
 21
47.31184294237753
 31
0.0
  0
LINE
  5
299
330
288
100
AcDbEntity
  8
LN-ELEVATION-5
  6
ACAD_ISO03W100
 48
0.1
100
AcDbLine
 10
138.5
 20
-41.46233547315932
 30
0.0
 11
138.5
 21
-241.0752462653909
 31
0.0
  0
LINE
  5
29A
330
288
100
AcDbEntity
  8
LN-ELEVATION-5
  6
ACAD_ISO03W100
 48
0.1
100
AcDbLine
 10
137.8999999999069
 20
246.9247537346091
 30
0.0
 11
137.8999999999069
 21
47.31184294237753
 31
0.0
  0
LINE
  5
29B
330
288
100
AcDbEntity
  8
LN-ELEVATION-5
  6
ACAD_ISO03W100
 48
0.1
100
AcDbLine
 10
137.8999999999069
 20
-41.46233547315932
 30
0.0
 11
137.8999999999069
 21
-241.0752462653909
 31
0.0
  0
LINE
  5
29C
330
288
100
AcDbEntity
  8
LN-ELEVATION-5
  6
ACAD_ISO03W100
 48
0.1
100
AcDbLine
 10
137.1000000000931
 20
246.9247537346091
 30
0.0
 11
137.1000000000931
 21
47.31184294237753
 31
0.0
  0
LINE
  5
29D
330
288
100
AcDbEntity
  8
LN-ELEVATION-5
  6
ACAD_ISO03W100
 48
0.1
100
AcDbLine
 10
137.1000000000931
 20
-41.46233547315932
 30
0.0
 11
137.1000000000931
 21
-241.0752462653909
 31
0.0
  0
LINE
  5
29E
330
288
100
AcDbEntity
  8
LN-ELEVATION-5
  6
ACAD_ISO03W100
 48
0.1
100
AcDbLine
 10
136.1000000000931
 20
246.9247537346091
 30
0.0
 11
136.1000000000931
 21
47.31184294237753
 31
0.0
  0
LINE
  5
29F
330
288
100
AcDbEntity
  8
LN-ELEVATION-5
  6
ACAD_ISO03W100
 48
0.1
100
AcDbLine
 10
136.1000000000931
 20
-41.46233547315932
 30
0.0
 11
136.1000000000931
 21
-241.0752462653909
 31
0.0
  0
LINE
  5
2A0
330
288
100
AcDbEntity
  8
LN-ELEVATION-5
  6
ACAD_ISO03W100
 48
0.1
100
AcDbLine
 10
134.1000000000931
 20
246.9247537346091
 30
0.0
 11
134.1000000000931
 21
47.31184294237753
 31
0.0
  0
LINE
  5
2A1
330
288
100
AcDbEntity
  8
LN-ELEVATION-5
  6
ACAD_ISO03W100
 48
0.1
100
AcDbLine
 10
134.1000000000931
 20
-41.46233547315932
 30
0.0
 11
134.1000000000931
 21
-241.0752462653909
 31
0.0
  0
LINE
  5
2A2
330
288
100
AcDbEntity
  8
LN-ELEVATION-5
  6
ACAD_ISO03W100
 48
0.1
100
AcDbLine
 10
131.1000000000931
 20
246.9247537346091
 30
0.0
 11
131.1000000000931
 21
47.31184294237753
 31
0.0
  0
LINE
  5
2A3
330
288
100
AcDbEntity
  8
LN-ELEVATION-5
  6
ACAD_ISO03W100
 48
0.1
100
AcDbLine
 10
131.1000000000931
 20
-41.46233547315932
 30
0.0
 11
131.1000000000931
 21
-241.0752462653909
 31
0.0
  0
LINE
  5
2A4
330
288
100
AcDbEntity
  8
LN-ELEVATION-5
  6
ACAD_ISO03W100
 48
0.1
100
AcDbLine
 10
126.1000000000931
 20
246.9247537346091
 30
0.0
 11
126.1000000000931
 21
47.31184294237753
 31
0.0
  0
LINE
  5
2A5
330
288
100
AcDbEntity
  8
LN-ELEVATION-5
  6
ACAD_ISO03W100
 48
0.1
100
AcDbLine
 10
126.1000000000931
 20
-41.46233547315932
 30
0.0
 11
126.1000000000931
 21
-241.0752462653909
 31
0.0
  0
LINE
  5
2A6
330
288
100
AcDbEntity
  8
LN-ELEVATION-5
  6
ACAD_ISO03W100
 48
0.1
100
AcDbLine
 10
121.1000000000931
 20
246.9247537346091
 30
0.0
 11
121.1000000000931
 21
47.31184294237753
 31
0.0
  0
LINE
  5
2A7
330
288
100
AcDbEntity
  8
LN-ELEVATION-5
  6
ACAD_ISO03W100
 48
0.1
100
AcDbLine
 10
121.1000000000931
 20
-41.46233547315932
 30
0.0
 11
121.1000000000931
 21
-241.0752462653909
 31
0.0
  0
LINE
  5
2A8
330
288
100
AcDbEntity
  8
LN-ELEVATION-5
  6
ACAD_ISO03W100
 48
0.1
100
AcDbLine
 10
115.1000000000931
 20
246.9247537346091
 30
0.0
 11
115.1000000000931
 21
47.31184294237753
 31
0.0
  0
LINE
  5
2A9
330
288
100
AcDbEntity
  8
LN-ELEVATION-5
  6
ACAD_ISO03W100
 48
0.1
100
AcDbLine
 10
115.1000000000931
 20
-41.46233547315932
 30
0.0
 11
115.1000000000931
 21
-241.0752462653909
 31
0.0
  0
LINE
  5
2AA
330
288
100
AcDbEntity
  8
LN-ELEVATION-5
  6
ACAD_ISO03W100
 48
0.1
100
AcDbLine
 10
108.1000000000931
 20
246.9247537346091
 30
0.0
 11
108.1000000000931
 21
47.31184294237753
 31
0.0
  0
LINE
  5
2AB
330
288
100
AcDbEntity
  8
LN-ELEVATION-5
  6
ACAD_ISO03W100
 48
0.1
100
AcDbLine
 10
108.1000000000931
 20
-41.46233547315932
 30
0.0
 11
108.1000000000931
 21
-241.0752462653909
 31
0.0
  0
LINE
  5
2AC
330
288
100
AcDbEntity
  8
LN-ELEVATION-5
  6
ACAD_ISO03W100
 48
0.1
100
AcDbLine
 10
100.1000000000931
 20
246.9247537346091
 30
0.0
 11
100.1000000000931
 21
47.31184294237753
 31
0.0
  0
LINE
  5
2AD
330
288
100
AcDbEntity
  8
LN-ELEVATION-5
  6
ACAD_ISO03W100
 48
0.1
100
AcDbLine
 10
100.1000000000931
 20
-41.46233547315932
 30
0.0
 11
100.1000000000931
 21
-241.0752462653909
 31
0.0
  0
LINE
  5
2AE
330
288
100
AcDbEntity
  8
LN-ELEVATION-5
  6
ACAD_ISO03W100
 48
0.1
100
AcDbLine
 10
91.10000000009312
 20
246.9247537346091
 30
0.0
 11
91.10000000009312
 21
47.31184294237753
 31
0.0
  0
LINE
  5
2AF
330
288
100
AcDbEntity
  8
LN-ELEVATION-5
  6
ACAD_ISO03W100
 48
0.1
100
AcDbLine
 10
91.10000000009312
 20
-41.46233547315932
 30
0.0
 11
91.10000000009312
 21
-241.0752462653909
 31
0.0
  0
LINE
  5
2B0
330
288
100
AcDbEntity
  8
LN-ELEVATION-5
  6
ACAD_ISO03W100
 48
0.1
100
AcDbLine
 10
82.10000000009315
 20
246.9247537346091
 30
0.0
 11
82.10000000009315
 21
47.31184294237753
 31
0.0
  0
LINE
  5
2B1
330
288
100
AcDbEntity
  8
LN-ELEVATION-5
  6
ACAD_ISO03W100
 48
0.1
100
AcDbLine
 10
82.10000000009315
 20
-41.46233547315932
 30
0.0
 11
82.10000000009315
 21
-241.0752462653909
 31
0.0
  0
LINE
  5
2B2
330
288
100
AcDbEntity
  8
LN-ELEVATION-5
  6
ACAD_ISO03W100
 48
0.1
100
AcDbLine
 10
65.0
 20
246.9247537346091
 30
0.0
 11
65.0
 21
47.31184294237753
 31
0.0
  0
LINE
  5
2B3
330
288
100
AcDbEntity
  8
LN-ELEVATION-5
  6
ACAD_ISO03W100
 48
0.1
100
AcDbLine
 10
65.0
 20
-41.46233547315932
 30
0.0
 11
65.0
 21
-241.0752462653909
 31
0.0
  0
LINE
  5
2B4
330
288
100
AcDbEntity
  8
LN-ELEVATION-5
  6
ACAD_ISO03W100
 48
0.1
100
AcDbLine
 10
-159.8999999999069
 20
246.9247537346091
 30
0.0
 11
-159.8999999999069
 21
47.31184294237753
 31
0.0
  0
LINE
  5
2B5
330
288
100
AcDbEntity
  8
LN-ELEVATION-5
  6
ACAD_ISO03W100
 48
0.1
100
AcDbLine
 10
-159.8999999999069
 20
-41.46233547315932
 30
0.0
 11
-159.8999999999069
 21
-241.0752462653909
 31
0.0
  0
LINE
  5
2B6
330
288
100
AcDbEntity
  8
LN-ELEVATION-5
  6
ACAD_ISO03W100
 48
0.1
100
AcDbLine
 10
-159.6999999997206
 20
246.9247537346091
 30
0.0
 11
-159.6999999997206
 21
47.31184294237753
 31
0.0
  0
LINE
  5
2B7
330
288
100
AcDbEntity
  8
LN-ELEVATION-5
  6
ACAD_ISO03W100
 48
0.1
100
AcDbLine
 10
-159.6999999997206
 20
-41.46233547315932
 30
0.0
 11
-159.6999999997206
 21
-241.0752462653909
 31
0.0
  0
LINE
  5
2B8
330
288
100
AcDbEntity
  8
LN-ELEVATION-5
  6
ACAD_ISO03W100
 48
0.1
100
AcDbLine
 10
-159.3999999999069
 20
246.9247537346091
 30
0.0
 11
-159.3999999999069
 21
47.31184294237753
 31
0.0
  0
LINE
  5
2B9
330
288
100
AcDbEntity
  8
LN-ELEVATION-5
  6
ACAD_ISO03W100
 48
0.1
100
AcDbLine
 10
-159.3999999999069
 20
-41.46233547315932
 30
0.0
 11
-159.3999999999069
 21
-241.0752462653909
 31
0.0
  0
LINE
  5
2BA
330
288
100
AcDbEntity
  8
LN-ELEVATION-5
  6
ACAD_ISO03W100
 48
0.1
100
AcDbLine
 10
-159.0
 20
246.9247537346091
 30
0.0
 11
-159.0
 21
47.31184294237753
 31
0.0
  0
LINE
  5
2BB
330
288
100
AcDbEntity
  8
LN-ELEVATION-5
  6
ACAD_ISO03W100
 48
0.1
100
AcDbLine
 10
-159.0
 20
-41.46233547315932
 30
0.0
 11
-159.0
 21
-241.0752462653909
 31
0.0
  0
LINE
  5
2BC
330
288
100
AcDbEntity
  8
LN-ELEVATION-5
  6
ACAD_ISO03W100
 48
0.1
100
AcDbLine
 10
-158.5
 20
246.9247537346091
 30
0.0
 11
-158.5
 21
47.31184294237753
 31
0.0
  0
LINE
  5
2BD
330
288
100
AcDbEntity
  8
LN-ELEVATION-5
  6
ACAD_ISO03W100
 48
0.1
100
AcDbLine
 10
-158.5
 20
-41.46233547315932
 30
0.0
 11
-158.5
 21
-241.0752462653909
 31
0.0
  0
LINE
  5
2BE
330
288
100
AcDbEntity
  8
LN-ELEVATION-5
  6
ACAD_ISO03W100
 48
0.1
100
AcDbLine
 10
-157.8999999999069
 20
246.9247537346091
 30
0.0
 11
-157.8999999999069
 21
47.31184294237753
 31
0.0
  0
LINE
  5
2BF
330
288
100
AcDbEntity
  8
LN-ELEVATION-5
  6
ACAD_ISO03W100
 48
0.1
100
AcDbLine
 10
-157.8999999999069
 20
-41.46233547315932
 30
0.0
 11
-157.8999999999069
 21
-241.0752462653909
 31
0.0
  0
LINE
  5
2C0
330
288
100
AcDbEntity
  8
LN-ELEVATION-5
  6
ACAD_ISO03W100
 48
0.1
100
AcDbLine
 10
-157.1000000000931
 20
246.9247537346091
 30
0.0
 11
-157.1000000000931
 21
47.31184294237753
 31
0.0
  0
LINE
  5
2C1
330
288
100
AcDbEntity
  8
LN-ELEVATION-5
  6
ACAD_ISO03W100
 48
0.1
100
AcDbLine
 10
-157.1000000000931
 20
-41.46233547315932
 30
0.0
 11
-157.1000000000931
 21
-241.0752462653909
 31
0.0
  0
LINE
  5
2C2
330
288
100
AcDbEntity
  8
LN-ELEVATION-5
  6
ACAD_ISO03W100
 48
0.1
100
AcDbLine
 10
-156.1000000000931
 20
246.9247537346091
 30
0.0
 11
-156.1000000000931
 21
47.31184294237753
 31
0.0
  0
LINE
  5
2C3
330
288
100
AcDbEntity
  8
LN-ELEVATION-5
  6
ACAD_ISO03W100
 48
0.1
100
AcDbLine
 10
-156.1000000000931
 20
-41.46233547315932
 30
0.0
 11
-156.1000000000931
 21
-241.0752462653909
 31
0.0
  0
LINE
  5
2C4
330
288
100
AcDbEntity
  8
LN-ELEVATION-5
  6
ACAD_ISO03W100
 48
0.1
100
AcDbLine
 10
-154.1000000000931
 20
246.9247537346091
 30
0.0
 11
-154.1000000000931
 21
47.31184294237753
 31
0.0
  0
LINE
  5
2C5
330
288
100
AcDbEntity
  8
LN-ELEVATION-5
  6
ACAD_ISO03W100
 48
0.1
100
AcDbLine
 10
-154.1000000000931
 20
-41.46233547315932
 30
0.0
 11
-154.1000000000931
 21
-241.0752462653909
 31
0.0
  0
LINE
  5
2C6
330
288
100
AcDbEntity
  8
LN-ELEVATION-5
  6
ACAD_ISO03W100
 48
0.1
100
AcDbLine
 10
-151.1000000000931
 20
246.9247537346091
 30
0.0
 11
-151.1000000000931
 21
47.31184294237753
 31
0.0
  0
LINE
  5
2C7
330
288
100
AcDbEntity
  8
LN-ELEVATION-5
  6
ACAD_ISO03W100
 48
0.1
100
AcDbLine
 10
-151.1000000000931
 20
-41.46233547315932
 30
0.0
 11
-151.1000000000931
 21
-241.0752462653909
 31
0.0
  0
LINE
  5
2C8
330
288
100
AcDbEntity
  8
LN-ELEVATION-5
  6
ACAD_ISO03W100
 48
0.1
100
AcDbLine
 10
-146.1000000000931
 20
246.9247537346091
 30
0.0
 11
-146.1000000000931
 21
47.31184294237753
 31
0.0
  0
LINE
  5
2C9
330
288
100
AcDbEntity
  8
LN-ELEVATION-5
  6
ACAD_ISO03W100
 48
0.1
100
AcDbLine
 10
-146.1000000000931
 20
-41.46233547315932
 30
0.0
 11
-146.1000000000931
 21
-241.0752462653909
 31
0.0
  0
LINE
  5
2CA
330
288
100
AcDbEntity
  8
LN-ELEVATION-5
  6
ACAD_ISO03W100
 48
0.1
100
AcDbLine
 10
-141.1000000000931
 20
246.9247537346091
 30
0.0
 11
-141.1000000000931
 21
47.31184294237753
 31
0.0
  0
LINE
  5
2CB
330
288
100
AcDbEntity
  8
LN-ELEVATION-5
  6
ACAD_ISO03W100
 48
0.1
100
AcDbLine
 10
-141.1000000000931
 20
-41.46233547315932
 30
0.0
 11
-141.1000000000931
 21
-241.0752462653909
 31
0.0
  0
LINE
  5
2CC
330
288
100
AcDbEntity
  8
LN-ELEVATION-5
  6
ACAD_ISO03W100
 48
0.1
100
AcDbLine
 10
-135.1000000000931
 20
246.9247537346091
 30
0.0
 11
-135.1000000000931
 21
47.31184294237753
 31
0.0
  0
LINE
  5
2CD
330
288
100
AcDbEntity
  8
LN-ELEVATION-5
  6
ACAD_ISO03W100
 48
0.1
100
AcDbLine
 10
-135.1000000000931
 20
-41.46233547315932
 30
0.0
 11
-135.1000000000931
 21
-241.0752462653909
 31
0.0
  0
LINE
  5
2CE
330
288
100
AcDbEntity
  8
LN-ELEVATION-5
  6
ACAD_ISO03W100
 48
0.1
100
AcDbLine
 10
-128.1000000000931
 20
246.9247537346091
 30
0.0
 11
-128.1000000000931
 21
47.31184294237753
 31
0.0
  0
LINE
  5
2CF
330
288
100
AcDbEntity
  8
LN-ELEVATION-5
  6
ACAD_ISO03W100
 48
0.1
100
AcDbLine
 10
-128.1000000000931
 20
-41.46233547315932
 30
0.0
 11
-128.1000000000931
 21
-241.0752462653909
 31
0.0
  0
LINE
  5
2D0
330
288
100
AcDbEntity
  8
LN-ELEVATION-5
  6
ACAD_ISO03W100
 48
0.1
100
AcDbLine
 10
-120.1000000000931
 20
246.9247537346091
 30
0.0
 11
-120.1000000000931
 21
47.31184294237753
 31
0.0
  0
LINE
  5
2D1
330
288
100
AcDbEntity
  8
LN-ELEVATION-5
  6
ACAD_ISO03W100
 48
0.1
100
AcDbLine
 10
-120.1000000000931
 20
-41.46233547315932
 30
0.0
 11
-120.1000000000931
 21
-241.0752462653909
 31
0.0
  0
LINE
  5
2D2
330
288
100
AcDbEntity
  8
LN-ELEVATION-5
  6
ACAD_ISO03W100
 48
0.1
100
AcDbLine
 10
-111.1000000000931
 20
246.9247537346091
 30
0.0
 11
-111.1000000000931
 21
47.31184294237753
 31
0.0
  0
LINE
  5
2D3
330
288
100
AcDbEntity
  8
LN-ELEVATION-5
  6
ACAD_ISO03W100
 48
0.1
100
AcDbLine
 10
-111.1000000000931
 20
-41.46233547315932
 30
0.0
 11
-111.1000000000931
 21
-241.0752462653909
 31
0.0
  0
LINE
  5
2D4
330
288
100
AcDbEntity
  8
LN-ELEVATION-5
  6
ACAD_ISO03W100
 48
0.1
100
AcDbLine
 10
-102.1000000000931
 20
246.9247537346091
 30
0.0
 11
-102.1000000000931
 21
47.31184294237753
 31
0.0
  0
LINE
  5
2D5
330
288
100
AcDbEntity
  8
LN-ELEVATION-5
  6
ACAD_ISO03W100
 48
0.1
100
AcDbLine
 10
-102.1000000000931
 20
-41.46233547315932
 30
0.0
 11
-102.1000000000931
 21
-241.0752462653909
 31
0.0
  0
LINE
  5
2D6
330
288
100
AcDbEntity
  8
LN-ELEVATION-5
  6
ACAD_ISO03W100
 48
0.1
100
AcDbLine
 10
-85.0
 20
246.9247537346091
 30
0.0
 11
-85.0
 21
47.31184294237753
 31
0.0
  0
LINE
  5
2D7
330
288
100
AcDbEntity
  8
LN-ELEVATION-5
  6
ACAD_ISO03W100
 48
0.1
100
AcDbLine
 10
-85.0
 20
-41.46233547315932
 30
0.0
 11
-85.0
 21
-241.0752462653909
 31
0.0
  0
ENDBLK
  5
28A
330
288
100
AcDbEntity
  8
0
100
AcDbBlockEnd
  0
BLOCK
  5
2D9
330
2D8
100
AcDbEntity
  8
0
100
AcDbBlockBegin
  2
eurocenter 1040
 70
0
 10
0.0
 20
0.0
 30
0.0
  3
eurocenter 1040
  1

  0
LWPOLYLINE
  5
2DB
330
2D8
100
AcDbEntity
  8
LN-ELEVATION-2
100
AcDbPolyline
 90
4
 70
1
 10
-520.0
 20
-357.434990927577
 10
520.0
 20
-357.434990927577
 10
520.0
 20
497.565009072423
 10
-520.0
 20
497.565009072423
  0
LWPOLYLINE
  5
2DC
330
2D8
100
AcDbEntity
  8
LN-ELEVATION-1
100
AcDbPolyline
 90
4
 70
1
 10
-470.0
 20
-327.434990927577
 10
470.0
 20
-327.434990927577
 10
470.0
 20
467.565009072423
 10
-470.0
 20
467.565009072423
  0
LWPOLYLINE
  5
2DD
330
2D8
100
AcDbEntity
  8
LN-ELEVATION-1
100
AcDbPolyline
 90
4
 70
1
 10
-470.0
 20
85.06500907242298
 10
470.0
 20
85.06500907242298
 10
470.0
 20
55.06500907242298
 10
-470.0
 20
55.06500907242298
  0
LWPOLYLINE
  5
2DE
330
2D8
100
AcDbEntity
  8
LN-ELEVATION-1
100
AcDbPolyline
 90
4
 70
1
 10
-470.0
 20
55.06500907242298
 10
470.0
 20
55.06500907242298
 10
470.0
 20
-327.434990927577
 10
-470.0
 20
-327.434990927577
  0
LWPOLYLINE
  5
2DF
330
2D8
100
AcDbEntity
  8
LN-ELEVATION-1
100
AcDbPolyline
 90
2
 70
0
 10
-464.0
 20
-171.059990927577
 10
-464.0
 20
-101.684990927577
  0
LWPOLYLINE
  5
2E0
330
2D8
100
AcDbEntity
  8
LN-ELEVATION-1
100
AcDbPolyline
 90
2
 70
0
 10
-464.0
 20
-95.68499092757702
 10
-464.0
 20
-26.30999092757702
  0
LWPOLYLINE
  5
2E1
330
2D8
100
AcDbEntity
  8
LN-ELEVATION-1
100
AcDbPolyline
 90
3
 70
0
 10
-464.0
 20
-20.30999092757702
 10
-464.0
 20
49.06500907242298
 10
-283.2000000029802
 20
49.06500907242298
  0
LWPOLYLINE
  5
2E2
330
2D8
100
AcDbEntity
  8
LN-ELEVATION-1
100
AcDbPolyline
 90
2
 70
0
 10
-277.2000000029802
 20
49.06500907242298
 10
-96.40000000596046
 20
49.06500907242298
  0
LWPOLYLINE
  5
2E3
330
2D8
100
AcDbEntity
  8
LN-ELEVATION-1
100
AcDbPolyline
 90
2
 70
0
 10
-90.40000000596045
 20
49.06500907242298
 10
90.3999999910593
 20
49.06500907242298
  0
LWPOLYLINE
  5
2E4
330
2D8
100
AcDbEntity
  8
LN-ELEVATION-1
100
AcDbPolyline
 90
2
 70
0
 10
96.3999999910593
 20
49.06500907242298
 10
277.1999999880791
 20
49.06500907242298
  0
LWPOLYLINE
  5
2E5
330
2D8
100
AcDbEntity
  8
LN-ELEVATION-1
100
AcDbPolyline
 90
3
 70
0
 10
283.1999999880791
 20
49.06500907242298
 10
464.0
 20
49.06500907242298
 10
464.0
 20
-20.30999092757702
  0
LWPOLYLINE
  5
2E6
330
2D8
100
AcDbEntity
  8
LN-ELEVATION-1
100
AcDbPolyline
 90
2
 70
0
 10
464.0
 20
-26.30999092757702
 10
464.0
 20
-95.68499092757702
  0
LWPOLYLINE
  5
2E7
330
2D8
100
AcDbEntity
  8
LN-ELEVATION-1
100
AcDbPolyline
 90
2
 70
0
 10
464.0
 20
-101.684990927577
 10
464.0
 20
-171.059990927577
  0
LWPOLYLINE
  5
2E8
330
2D8
100
AcDbEntity
  8
LN-ELEVATION-1
100
AcDbPolyline
 90
3
 70
0
 10
464.0
 20
-177.059990927577
 10
464.0
 20
-321.434990927577
 10
283.1999999880791
 20
-321.434990927577
  0
LWPOLYLINE
  5
2E9
330
2D8
100
AcDbEntity
  8
LN-ELEVATION-1
100
AcDbPolyline
 90
2
 70
0
 10
277.1999999880791
 20
-321.434990927577
 10
96.3999999910593
 20
-321.434990927577
  0
LWPOLYLINE
  5
2EA
330
2D8
100
AcDbEntity
  8
LN-ELEVATION-1
100
AcDbPolyline
 90
2
 70
0
 10
90.3999999910593
 20
-321.434990927577
 10
-90.40000000596045
 20
-321.434990927577
  0
LWPOLYLINE
  5
2EB
330
2D8
100
AcDbEntity
  8
LN-ELEVATION-1
100
AcDbPolyline
 90
2
 70
0
 10
-96.40000000596046
 20
-321.434990927577
 10
-277.2000000029802
 20
-321.434990927577
  0
LWPOLYLINE
  5
2EC
330
2D8
100
AcDbEntity
  8
LN-ELEVATION-1
100
AcDbPolyline
 90
3
 70
0
 10
-283.2000000029802
 20
-321.434990927577
 10
-464.0
 20
-321.434990927577
 10
-464.0
 20
-177.059990927577
  0
LWPOLYLINE
  5
2ED
330
2D8
100
AcDbEntity
  8
LN-ELEVATION-1
100
AcDbPolyline
 90
4
 70
1
 10
-283.2000000029802
 20
55.06500907242298
 10
-277.2000000029802
 20
55.06500907242298
 10
-277.2000000029802
 20
-327.434990927577
 10
-283.2000000029802
 20
-327.434990927577
  0
LWPOLYLINE
  5
2EE
330
2D8
100
AcDbEntity
  8
LN-ELEVATION-1
100
AcDbPolyline
 90
4
 70
1
 10
-96.40000000596046
 20
55.06500907242298
 10
-90.40000000596045
 20
55.06500907242298
 10
-90.40000000596045
 20
-327.434990927577
 10
-96.40000000596046
 20
-327.434990927577
  0
LWPOLYLINE
  5
2EF
330
2D8
100
AcDbEntity
  8
LN-ELEVATION-1
100
AcDbPolyline
 90
4
 70
1
 10
90.3999999910593
 20
55.06500907242298
 10
96.3999999910593
 20
55.06500907242298
 10
96.3999999910593
 20
-327.434990927577
 10
90.3999999910593
 20
-327.434990927577
  0
LWPOLYLINE
  5
2F0
330
2D8
100
AcDbEntity
  8
LN-ELEVATION-1
100
AcDbPolyline
 90
4
 70
1
 10
277.1999999880791
 20
55.06500907242298
 10
283.1999999880791
 20
55.06500907242298
 10
283.1999999880791
 20
-327.434990927577
 10
277.1999999880791
 20
-327.434990927577
  0
LWPOLYLINE
  5
2F1
330
2D8
100
AcDbEntity
  8
LN-ELEVATION-1
100
AcDbPolyline
 90
4
 70
1
 10
283.1999999880791
 20
-20.30999092757702
 10
470.0
 20
-20.30999092757702
 10
470.0
 20
-26.30999092757702
 10
283.1999999880791
 20
-26.30999092757702
  0
LWPOLYLINE
  5
2F2
330
2D8
100
AcDbEntity
  8
LN-ELEVATION-1
100
AcDbPolyline
 90
4
 70
1
 10
283.1999999880791
 20
-95.68499092757702
 10
470.0
 20
-95.68499092757702
 10
470.0
 20
-101.684990927577
 10
283.1999999880791
 20
-101.684990927577
  0
LWPOLYLINE
  5
2F3
330
2D8
100
AcDbEntity
  8
LN-ELEVATION-1
100
AcDbPolyline
 90
4
 70
1
 10
283.1999999880791
 20
-171.059990927577
 10
470.0
 20
-171.059990927577
 10
470.0
 20
-177.059990927577
 10
283.1999999880791
 20
-177.059990927577
  0
LWPOLYLINE
  5
2F4
330
2D8
100
AcDbEntity
  8
LN-ELEVATION-1
100
AcDbPolyline
 90
4
 70
1
 10
96.39999997615817
 20
-20.30999092757702
 10
277.1999999880791
 20
-20.30999092757702
 10
277.1999999880791
 20
-26.30999092757702
 10
96.39999997615817
 20
-26.30999092757702
  0
LWPOLYLINE
  5
2F5
330
2D8
100
AcDbEntity
  8
LN-ELEVATION-1
100
AcDbPolyline
 90
4
 70
1
 10
96.39999997615817
 20
-95.68499092757702
 10
277.1999999880791
 20
-95.68499092757702
 10
277.1999999880791
 20
-101.684990927577
 10
96.39999997615817
 20
-101.684990927577
  0
LWPOLYLINE
  5
2F6
330
2D8
100
AcDbEntity
  8
LN-ELEVATION-1
100
AcDbPolyline
 90
4
 70
1
 10
96.39999997615817
 20
-171.059990927577
 10
277.1999999880791
 20
-171.059990927577
 10
277.1999999880791
 20
-177.059990927577
 10
96.39999997615817
 20
-177.059990927577
  0
LWPOLYLINE
  5
2F7
330
2D8
100
AcDbEntity
  8
LN-ELEVATION-1
100
AcDbPolyline
 90
4
 70
1
 10
-90.40000002086165
 20
-20.30999092757702
 10
90.3999999910593
 20
-20.30999092757702
 10
90.3999999910593
 20
-26.30999092757702
 10
-90.40000002086165
 20
-26.30999092757702
  0
LWPOLYLINE
  5
2F8
330
2D8
100
AcDbEntity
  8
LN-ELEVATION-1
100
AcDbPolyline
 90
4
 70
1
 10
-90.40000002086165
 20
-95.68499092757702
 10
90.3999999910593
 20
-95.68499092757702
 10
90.3999999910593
 20
-101.684990927577
 10
-90.40000002086165
 20
-101.684990927577
  0
LWPOLYLINE
  5
2F9
330
2D8
100
AcDbEntity
  8
LN-ELEVATION-1
100
AcDbPolyline
 90
4
 70
1
 10
-90.40000002086165
 20
-171.059990927577
 10
90.3999999910593
 20
-171.059990927577
 10
90.3999999910593
 20
-177.059990927577
 10
-90.40000002086165
 20
-177.059990927577
  0
LWPOLYLINE
  5
2FA
330
2D8
100
AcDbEntity
  8
LN-ELEVATION-1
100
AcDbPolyline
 90
4
 70
1
 10
-277.2000000178814
 20
-20.30999092757702
 10
-96.40000000596046
 20
-20.30999092757702
 10
-96.40000000596046
 20
-26.30999092757702
 10
-277.2000000178814
 20
-26.30999092757702
  0
LWPOLYLINE
  5
2FB
330
2D8
100
AcDbEntity
  8
LN-ELEVATION-1
100
AcDbPolyline
 90
4
 70
1
 10
-277.2000000178814
 20
-95.68499092757702
 10
-96.40000000596046
 20
-95.68499092757702
 10
-96.40000000596046
 20
-101.684990927577
 10
-277.2000000178814
 20
-101.684990927577
  0
LWPOLYLINE
  5
2FC
330
2D8
100
AcDbEntity
  8
LN-ELEVATION-1
100
AcDbPolyline
 90
4
 70
1
 10
-277.2000000178814
 20
-171.059990927577
 10
-96.40000000596046
 20
-171.059990927577
 10
-96.40000000596046
 20
-177.059990927577
 10
-277.2000000178814
 20
-177.059990927577
  0
LWPOLYLINE
  5
2FD
330
2D8
100
AcDbEntity
  8
LN-ELEVATION-1
100
AcDbPolyline
 90
4
 70
1
 10
-470.0000000149012
 20
-20.30999092757702
 10
-283.2000000029802
 20
-20.30999092757702
 10
-283.2000000029802
 20
-26.30999092757702
 10
-470.0000000149012
 20
-26.30999092757702
  0
LWPOLYLINE
  5
2FE
330
2D8
100
AcDbEntity
  8
LN-ELEVATION-1
100
AcDbPolyline
 90
4
 70
1
 10
-470.0000000149012
 20
-95.68499092757702
 10
-283.2000000029802
 20
-95.68499092757702
 10
-283.2000000029802
 20
-101.684990927577
 10
-470.0000000149012
 20
-101.684990927577
  0
LWPOLYLINE
  5
2FF
330
2D8
100
AcDbEntity
  8
LN-ELEVATION-1
100
AcDbPolyline
 90
4
 70
1
 10
-470.0000000149012
 20
-171.059990927577
 10
-283.2000000029802
 20
-171.059990927577
 10
-283.2000000029802
 20
-177.059990927577
 10
-470.0000000149012
 20
-177.059990927577
  0
LWPOLYLINE
  5
300
330
2D8
100
AcDbEntity
  8
LN-ELEVATION-2
100
AcDbPolyline
 90
2
 70
0
 10
470.0
 20
467.565009072423
 10
520.0
 20
497.565009072423
  0
LWPOLYLINE
  5
301
330
2D8
100
AcDbEntity
  8
LN-ELEVATION-2
100
AcDbPolyline
 90
2
 70
0
 10
470.0
 20
-327.434990927577
 10
520.0
 20
-357.434990927577
  0
LWPOLYLINE
  5
302
330
2D8
100
AcDbEntity
  8
LN-ELEVATION-2
100
AcDbPolyline
 90
2
 70
0
 10
-470.0
 20
467.565009072423
 10
-520.0
 20
497.565009072423
  0
LWPOLYLINE
  5
303
330
2D8
100
AcDbEntity
  8
LN-ELEVATION-2
100
AcDbPolyline
 90
2
 70
0
 10
-470.0
 20
-327.434990927577
 10
-520.0
 20
-357.434990927577
  0
LWPOLYLINE
  5
304
330
2D8
100
AcDbEntity
  8
LN-ELEVATION-3
100
AcDbPolyline
 90
4
 70
1
 10
-500.0
 20
-419.434990927577
 10
500.0
 20
-419.434990927577
 10
500.0
 20
-437.4349909275768
 10
-500.0
 20
-437.4349909275768
  0
LWPOLYLINE
  5
305
330
2D8
100
AcDbEntity
  8
LN-ELEVATION-3
100
AcDbPolyline
 90
4
 70
1
 10
470.0
 20
-357.434990927577
 10
500.0
 20
-357.434990927577
 10
500.0
 20
-419.434990927577
 10
470.0
 20
-419.434990927577
  0
LWPOLYLINE
  5
306
330
2D8
100
AcDbEntity
  8
LN-ELEVATION-3
100
AcDbPolyline
 90
4
 70
1
 10
-500.0
 20
-357.434990927577
 10
-470.0
 20
-357.434990927577
 10
-470.0
 20
-419.434990927577
 10
-500.0
 20
-419.434990927577
  0
LWPOLYLINE
  5
307
330
2D8
100
AcDbEntity
  8
LN-ELEVATION-4
100
AcDbPolyline
 90
4
 70
1
 10
-500.0
 20
-499.4349909275769
 10
500.0
 20
-499.4349909275769
 10
500.0
 20
-517.434990927577
 10
-500.0
 20
-517.434990927577
  0
LWPOLYLINE
  5
308
330
2D8
100
AcDbEntity
  8
LN-ELEVATION-4
100
AcDbPolyline
 90
4
 70
1
 10
470.0
 20
-437.4349909275768
 10
500.0
 20
-437.4349909275768
 10
500.0
 20
-499.4349909275769
 10
470.0
 20
-499.4349909275769
  0
LWPOLYLINE
  5
309
330
2D8
100
AcDbEntity
  8
LN-ELEVATION-4
100
AcDbPolyline
 90
4
 70
1
 10
-500.0
 20
-437.4349909275768
 10
-470.0
 20
-437.4349909275768
 10
-470.0
 20
-499.4349909275769
 10
-500.0
 20
-499.4349909275769
  0
LWPOLYLINE
  5
30A
330
2D8
100
AcDbEntity
  8
LN-ELEVATION-1
100
AcDbPolyline
 90
4
 70
1
 10
-470.0
 20
85.06500907242298
 10
470.0
 20
85.06500907242298
 10
470.0
 20
467.565009072423
 10
-470.0
 20
467.565009072423
  0
LWPOLYLINE
  5
30B
330
2D8
100
AcDbEntity
  8
LN-ELEVATION-1
100
AcDbPolyline
 90
2
 70
0
 10
-464.0
 20
311.190009072423
 10
-464.0
 20
241.815009072423
  0
LWPOLYLINE
  5
30C
330
2D8
100
AcDbEntity
  8
LN-ELEVATION-1
100
AcDbPolyline
 90
2
 70
0
 10
-464.0
 20
235.815009072423
 10
-464.0
 20
166.440009072423
  0
LWPOLYLINE
  5
30D
330
2D8
100
AcDbEntity
  8
LN-ELEVATION-1
100
AcDbPolyline
 90
3
 70
0
 10
-464.0
 20
160.440009072423
 10
-464.0
 20
91.06500907242297
 10
-283.2000000029802
 20
91.06500907242297
  0
LWPOLYLINE
  5
30E
330
2D8
100
AcDbEntity
  8
LN-ELEVATION-1
100
AcDbPolyline
 90
2
 70
0
 10
-277.2000000029802
 20
91.06500907242297
 10
-96.40000000596046
 20
91.06500907242297
  0
LWPOLYLINE
  5
30F
330
2D8
100
AcDbEntity
  8
LN-ELEVATION-1
100
AcDbPolyline
 90
2
 70
0
 10
-90.40000000596045
 20
91.06500907242297
 10
90.3999999910593
 20
91.06500907242297
  0
LWPOLYLINE
  5
310
330
2D8
100
AcDbEntity
  8
LN-ELEVATION-1
100
AcDbPolyline
 90
2
 70
0
 10
96.3999999910593
 20
91.06500907242297
 10
277.1999999880791
 20
91.06500907242297
  0
LWPOLYLINE
  5
311
330
2D8
100
AcDbEntity
  8
LN-ELEVATION-1
100
AcDbPolyline
 90
3
 70
0
 10
283.1999999880791
 20
91.06500907242297
 10
464.0
 20
91.06500907242297
 10
464.0
 20
160.440009072423
  0
LWPOLYLINE
  5
312
330
2D8
100
AcDbEntity
  8
LN-ELEVATION-1
100
AcDbPolyline
 90
2
 70
0
 10
464.0
 20
166.440009072423
 10
464.0
 20
235.815009072423
  0
LWPOLYLINE
  5
313
330
2D8
100
AcDbEntity
  8
LN-ELEVATION-1
100
AcDbPolyline
 90
2
 70
0
 10
464.0
 20
241.815009072423
 10
464.0
 20
311.190009072423
  0
LWPOLYLINE
  5
314
330
2D8
100
AcDbEntity
  8
LN-ELEVATION-1
100
AcDbPolyline
 90
3
 70
0
 10
464.0
 20
317.190009072423
 10
464.0
 20
461.565009072423
 10
283.1999999880791
 20
461.565009072423
  0
LWPOLYLINE
  5
315
330
2D8
100
AcDbEntity
  8
LN-ELEVATION-1
100
AcDbPolyline
 90
2
 70
0
 10
277.1999999880791
 20
461.565009072423
 10
96.3999999910593
 20
461.565009072423
  0
LWPOLYLINE
  5
316
330
2D8
100
AcDbEntity
  8
LN-ELEVATION-1
100
AcDbPolyline
 90
2
 70
0
 10
90.3999999910593
 20
461.565009072423
 10
-90.40000000596045
 20
461.565009072423
  0
LWPOLYLINE
  5
317
330
2D8
100
AcDbEntity
  8
LN-ELEVATION-1
100
AcDbPolyline
 90
2
 70
0
 10
-96.40000000596046
 20
461.565009072423
 10
-277.2000000029802
 20
461.565009072423
  0
LWPOLYLINE
  5
318
330
2D8
100
AcDbEntity
  8
LN-ELEVATION-1
100
AcDbPolyline
 90
3
 70
0
 10
-283.2000000029802
 20
461.565009072423
 10
-464.0
 20
461.565009072423
 10
-464.0
 20
317.190009072423
  0
LWPOLYLINE
  5
319
330
2D8
100
AcDbEntity
  8
LN-ELEVATION-1
100
AcDbPolyline
 90
4
 70
1
 10
-283.2000000029802
 20
85.06500907242298
 10
-277.2000000029802
 20
85.06500907242298
 10
-277.2000000029802
 20
467.565009072423
 10
-283.2000000029802
 20
467.565009072423
  0
LWPOLYLINE
  5
31A
330
2D8
100
AcDbEntity
  8
LN-ELEVATION-1
100
AcDbPolyline
 90
4
 70
1
 10
-96.40000000596046
 20
85.06500907242298
 10
-90.40000000596045
 20
85.06500907242298
 10
-90.40000000596045
 20
467.565009072423
 10
-96.40000000596046
 20
467.565009072423
  0
LWPOLYLINE
  5
31B
330
2D8
100
AcDbEntity
  8
LN-ELEVATION-1
100
AcDbPolyline
 90
4
 70
1
 10
90.3999999910593
 20
85.06500907242298
 10
96.3999999910593
 20
85.06500907242298
 10
96.3999999910593
 20
467.565009072423
 10
90.3999999910593
 20
467.565009072423
  0
LWPOLYLINE
  5
31C
330
2D8
100
AcDbEntity
  8
LN-ELEVATION-1
100
AcDbPolyline
 90
4
 70
1
 10
277.1999999880791
 20
85.06500907242298
 10
283.1999999880791
 20
85.06500907242298
 10
283.1999999880791
 20
467.565009072423
 10
277.1999999880791
 20
467.565009072423
  0
LWPOLYLINE
  5
31D
330
2D8
100
AcDbEntity
  8
LN-ELEVATION-1
100
AcDbPolyline
 90
4
 70
1
 10
283.1999999880791
 20
160.440009072423
 10
470.0
 20
160.440009072423
 10
470.0
 20
166.440009072423
 10
283.1999999880791
 20
166.440009072423
  0
LWPOLYLINE
  5
31E
330
2D8
100
AcDbEntity
  8
LN-ELEVATION-1
100
AcDbPolyline
 90
4
 70
1
 10
283.1999999880791
 20
235.815009072423
 10
470.0
 20
235.815009072423
 10
470.0
 20
241.815009072423
 10
283.1999999880791
 20
241.815009072423
  0
LWPOLYLINE
  5
31F
330
2D8
100
AcDbEntity
  8
LN-ELEVATION-1
100
AcDbPolyline
 90
4
 70
1
 10
283.1999999880791
 20
311.190009072423
 10
470.0
 20
311.190009072423
 10
470.0
 20
317.190009072423
 10
283.1999999880791
 20
317.190009072423
  0
LWPOLYLINE
  5
320
330
2D8
100
AcDbEntity
  8
LN-ELEVATION-1
100
AcDbPolyline
 90
4
 70
1
 10
96.39999997615817
 20
160.440009072423
 10
277.1999999880791
 20
160.440009072423
 10
277.1999999880791
 20
166.440009072423
 10
96.39999997615817
 20
166.440009072423
  0
LWPOLYLINE
  5
321
330
2D8
100
AcDbEntity
  8
LN-ELEVATION-1
100
AcDbPolyline
 90
4
 70
1
 10
96.39999997615817
 20
235.815009072423
 10
277.1999999880791
 20
235.815009072423
 10
277.1999999880791
 20
241.815009072423
 10
96.39999997615817
 20
241.815009072423
  0
LWPOLYLINE
  5
322
330
2D8
100
AcDbEntity
  8
LN-ELEVATION-1
100
AcDbPolyline
 90
4
 70
1
 10
96.39999997615817
 20
311.190009072423
 10
277.1999999880791
 20
311.190009072423
 10
277.1999999880791
 20
317.190009072423
 10
96.39999997615817
 20
317.190009072423
  0
LWPOLYLINE
  5
323
330
2D8
100
AcDbEntity
  8
LN-ELEVATION-1
100
AcDbPolyline
 90
4
 70
1
 10
-90.40000002086165
 20
160.440009072423
 10
90.3999999910593
 20
160.440009072423
 10
90.3999999910593
 20
166.440009072423
 10
-90.40000002086165
 20
166.440009072423
  0
LWPOLYLINE
  5
324
330
2D8
100
AcDbEntity
  8
LN-ELEVATION-1
100
AcDbPolyline
 90
4
 70
1
 10
-90.40000002086165
 20
235.815009072423
 10
90.3999999910593
 20
235.815009072423
 10
90.3999999910593
 20
241.815009072423
 10
-90.40000002086165
 20
241.815009072423
  0
LWPOLYLINE
  5
325
330
2D8
100
AcDbEntity
  8
LN-ELEVATION-1
100
AcDbPolyline
 90
4
 70
1
 10
-90.40000002086165
 20
311.190009072423
 10
90.3999999910593
 20
311.190009072423
 10
90.3999999910593
 20
317.190009072423
 10
-90.40000002086165
 20
317.190009072423
  0
LWPOLYLINE
  5
326
330
2D8
100
AcDbEntity
  8
LN-ELEVATION-1
100
AcDbPolyline
 90
4
 70
1
 10
-277.2000000178814
 20
160.440009072423
 10
-96.40000000596046
 20
160.440009072423
 10
-96.40000000596046
 20
166.440009072423
 10
-277.2000000178814
 20
166.440009072423
  0
LWPOLYLINE
  5
327
330
2D8
100
AcDbEntity
  8
LN-ELEVATION-1
100
AcDbPolyline
 90
4
 70
1
 10
-277.2000000178814
 20
235.815009072423
 10
-96.40000000596046
 20
235.815009072423
 10
-96.40000000596046
 20
241.815009072423
 10
-277.2000000178814
 20
241.815009072423
  0
LWPOLYLINE
  5
328
330
2D8
100
AcDbEntity
  8
LN-ELEVATION-1
100
AcDbPolyline
 90
4
 70
1
 10
-277.2000000178814
 20
311.190009072423
 10
-96.40000000596046
 20
311.190009072423
 10
-96.40000000596046
 20
317.190009072423
 10
-277.2000000178814
 20
317.190009072423
  0
LWPOLYLINE
  5
329
330
2D8
100
AcDbEntity
  8
LN-ELEVATION-1
100
AcDbPolyline
 90
4
 70
1
 10
-470.0000000149012
 20
160.440009072423
 10
-283.2000000029802
 20
160.440009072423
 10
-283.2000000029802
 20
166.440009072423
 10
-470.0000000149012
 20
166.440009072423
  0
LWPOLYLINE
  5
32A
330
2D8
100
AcDbEntity
  8
LN-ELEVATION-1
100
AcDbPolyline
 90
4
 70
1
 10
-470.0000000149012
 20
235.815009072423
 10
-283.2000000029802
 20
235.815009072423
 10
-283.2000000029802
 20
241.815009072423
 10
-470.0000000149012
 20
241.815009072423
  0
LWPOLYLINE
  5
32B
330
2D8
100
AcDbEntity
  8
LN-ELEVATION-1
100
AcDbPolyline
 90
4
 70
1
 10
-470.0000000149012
 20
311.190009072423
 10
-283.2000000029802
 20
311.190009072423
 10
-283.2000000029802
 20
317.190009072423
 10
-470.0000000149012
 20
317.190009072423
  0
LWPOLYLINE
  5
32C
330
2D8
100
AcDbEntity
  8
LN-ELEVATION-4
100
AcDbPolyline
 90
4
 70
1
 10
-470.0
 20
-357.434990927577
 10
-464.0
 20
-357.434990927577
 10
-464.0
 20
-419.434990927577
 10
-470.0
 20
-419.434990927577
  0
LWPOLYLINE
  5
32D
330
2D8
100
AcDbEntity
  8
LN-ELEVATION-4
100
AcDbPolyline
 90
4
 70
1
 10
-464.0
 20
-413.4349909275768
 10
-283.2000000029802
 20
-413.4349909275768
 10
-283.2000000029802
 20
-419.434990927577
 10
-464.0
 20
-419.434990927577
  0
LWPOLYLINE
  5
32E
330
2D8
100
AcDbEntity
  8
LN-ELEVATION-4
100
AcDbPolyline
 90
4
 70
1
 10
-283.2000000029802
 20
-357.434990927577
 10
-277.2000000029802
 20
-357.434990927577
 10
-277.2000000029802
 20
-419.434990927577
 10
-283.2000000029802
 20
-419.434990927577
  0
LWPOLYLINE
  5
32F
330
2D8
100
AcDbEntity
  8
LN-ELEVATION-4
100
AcDbPolyline
 90
4
 70
1
 10
-96.40000000596046
 20
-357.434990927577
 10
-90.40000000596045
 20
-357.434990927577
 10
-90.40000000596045
 20
-419.434990927577
 10
-96.40000000596046
 20
-419.434990927577
  0
LWPOLYLINE
  5
330
330
2D8
100
AcDbEntity
  8
LN-ELEVATION-4
100
AcDbPolyline
 90
4
 70
1
 10
90.3999999910593
 20
-357.434990927577
 10
96.3999999910593
 20
-357.434990927577
 10
96.3999999910593
 20
-419.434990927577
 10
90.3999999910593
 20
-419.434990927577
  0
LWPOLYLINE
  5
331
330
2D8
100
AcDbEntity
  8
LN-ELEVATION-4
100
AcDbPolyline
 90
4
 70
1
 10
277.1999999880791
 20
-357.434990927577
 10
283.1999999880791
 20
-357.434990927577
 10
283.1999999880791
 20
-419.434990927577
 10
277.1999999880791
 20
-419.434990927577
  0
LWPOLYLINE
  5
332
330
2D8
100
AcDbEntity
  8
LN-ELEVATION-4
100
AcDbPolyline
 90
4
 70
1
 10
464.0
 20
-357.434990927577
 10
470.0
 20
-357.434990927577
 10
470.0
 20
-419.434990927577
 10
464.0
 20
-419.434990927577
  0
LWPOLYLINE
  5
333
330
2D8
100
AcDbEntity
  8
LN-ELEVATION-4
100
AcDbPolyline
 90
4
 70
1
 10
-277.2000000029802
 20
-413.4349909275768
 10
-96.40000000596046
 20
-413.4349909275768
 10
-96.40000000596046
 20
-419.434990927577
 10
-277.2000000029802
 20
-419.434990927577
  0
LWPOLYLINE
  5
334
330
2D8
100
AcDbEntity
  8
LN-ELEVATION-4
100
AcDbPolyline
 90
4
 70
1
 10
-90.40000000596045
 20
-413.4349909275768
 10
90.3999999910593
 20
-413.4349909275768
 10
90.3999999910593
 20
-419.434990927577
 10
-90.40000000596045
 20
-419.434990927577
  0
LWPOLYLINE
  5
335
330
2D8
100
AcDbEntity
  8
LN-ELEVATION-4
100
AcDbPolyline
 90
4
 70
1
 10
96.3999999910593
 20
-413.4349909275768
 10
277.1999999880791
 20
-413.4349909275768
 10
277.1999999880791
 20
-419.434990927577
 10
96.3999999910593
 20
-419.434990927577
  0
LWPOLYLINE
  5
336
330
2D8
100
AcDbEntity
  8
LN-ELEVATION-4
100
AcDbPolyline
 90
4
 70
1
 10
283.1999999880791
 20
-413.4349909275768
 10
463.9999999850988
 20
-413.4349909275768
 10
463.9999999850988
 20
-419.434990927577
 10
283.1999999880791
 20
-419.434990927577
  0
LWPOLYLINE
  5
337
330
2D8
100
AcDbEntity
  8
LN-ELEVATION-5
100
AcDbPolyline
 90
4
 70
1
 10
-470.0
 20
-437.4349909275768
 10
-464.0
 20
-437.4349909275768
 10
-464.0
 20
-499.4349909275769
 10
-470.0
 20
-499.4349909275769
  0
LWPOLYLINE
  5
338
330
2D8
100
AcDbEntity
  8
LN-ELEVATION-5
100
AcDbPolyline
 90
4
 70
1
 10
-464.0
 20
-493.4349909275769
 10
-283.2000000029802
 20
-493.4349909275769
 10
-283.2000000029802
 20
-499.4349909275769
 10
-464.0
 20
-499.4349909275769
  0
LWPOLYLINE
  5
339
330
2D8
100
AcDbEntity
  8
LN-ELEVATION-5
100
AcDbPolyline
 90
4
 70
1
 10
-283.2000000029802
 20
-437.4349909275768
 10
-277.2000000029802
 20
-437.4349909275768
 10
-277.2000000029802
 20
-499.4349909275769
 10
-283.2000000029802
 20
-499.4349909275769
  0
LWPOLYLINE
  5
33A
330
2D8
100
AcDbEntity
  8
LN-ELEVATION-5
100
AcDbPolyline
 90
4
 70
1
 10
-96.40000000596046
 20
-437.4349909275768
 10
-90.40000000596045
 20
-437.4349909275768
 10
-90.40000000596045
 20
-499.4349909275769
 10
-96.40000000596046
 20
-499.4349909275769
  0
LWPOLYLINE
  5
33B
330
2D8
100
AcDbEntity
  8
LN-ELEVATION-5
100
AcDbPolyline
 90
4
 70
1
 10
90.3999999910593
 20
-437.4349909275768
 10
96.3999999910593
 20
-437.4349909275768
 10
96.3999999910593
 20
-499.4349909275769
 10
90.3999999910593
 20
-499.4349909275769
  0
LWPOLYLINE
  5
33C
330
2D8
100
AcDbEntity
  8
LN-ELEVATION-5
100
AcDbPolyline
 90
4
 70
1
 10
277.1999999880791
 20
-437.4349909275768
 10
283.1999999880791
 20
-437.4349909275768
 10
283.1999999880791
 20
-499.4349909275769
 10
277.1999999880791
 20
-499.4349909275769
  0
LWPOLYLINE
  5
33D
330
2D8
100
AcDbEntity
  8
LN-ELEVATION-5
100
AcDbPolyline
 90
4
 70
1
 10
464.0
 20
-437.4349909275768
 10
470.0
 20
-437.4349909275768
 10
470.0
 20
-499.4349909275769
 10
464.0
 20
-499.4349909275769
  0
LWPOLYLINE
  5
33E
330
2D8
100
AcDbEntity
  8
LN-ELEVATION-5
100
AcDbPolyline
 90
4
 70
1
 10
-277.2000000029802
 20
-493.4349909275769
 10
-96.40000000596046
 20
-493.4349909275769
 10
-96.40000000596046
 20
-499.4349909275769
 10
-277.2000000029802
 20
-499.4349909275769
  0
LWPOLYLINE
  5
33F
330
2D8
100
AcDbEntity
  8
LN-ELEVATION-5
100
AcDbPolyline
 90
4
 70
1
 10
-90.40000000596045
 20
-493.4349909275769
 10
90.3999999910593
 20
-493.4349909275769
 10
90.3999999910593
 20
-499.4349909275769
 10
-90.40000000596045
 20
-499.4349909275769
  0
LWPOLYLINE
  5
340
330
2D8
100
AcDbEntity
  8
LN-ELEVATION-5
100
AcDbPolyline
 90
4
 70
1
 10
96.3999999910593
 20
-493.4349909275769
 10
277.1999999880791
 20
-493.4349909275769
 10
277.1999999880791
 20
-499.4349909275769
 10
96.3999999910593
 20
-499.4349909275769
  0
LWPOLYLINE
  5
341
330
2D8
100
AcDbEntity
  8
LN-ELEVATION-5
100
AcDbPolyline
 90
4
 70
1
 10
283.1999999880791
 20
-493.4349909275769
 10
463.9999999850988
 20
-493.4349909275769
 10
463.9999999850988
 20
-499.4349909275769
 10
283.1999999880791
 20
-499.4349909275769
  0
LWPOLYLINE
  5
342
330
2D8
100
AcDbEntity
  8
LN-ELEVATION-3
100
AcDbPolyline
 90
4
 70
1
 10
-500.0
 20
559.5650090724229
 10
500.0
 20
559.5650090724229
 10
500.0
 20
577.5650090724228
 10
-500.0
 20
577.5650090724228
  0
LWPOLYLINE
  5
343
330
2D8
100
AcDbEntity
  8
LN-ELEVATION-3
100
AcDbPolyline
 90
4
 70
1
 10
470.0
 20
497.565009072423
 10
500.0
 20
497.565009072423
 10
500.0
 20
559.5650090724229
 10
470.0
 20
559.5650090724229
  0
LWPOLYLINE
  5
344
330
2D8
100
AcDbEntity
  8
LN-ELEVATION-3
100
AcDbPolyline
 90
4
 70
1
 10
-500.0
 20
497.565009072423
 10
-470.0
 20
497.565009072423
 10
-470.0
 20
559.5650090724229
 10
-500.0
 20
559.5650090724229
  0
LWPOLYLINE
  5
345
330
2D8
100
AcDbEntity
  8
LN-ELEVATION-4
100
AcDbPolyline
 90
4
 70
1
 10
-500.0
 20
639.5650090724228
 10
500.0
 20
639.5650090724228
 10
500.0
 20
657.565009072423
 10
-500.0
 20
657.565009072423
  0
LWPOLYLINE
  5
346
330
2D8
100
AcDbEntity
  8
LN-ELEVATION-4
100
AcDbPolyline
 90
4
 70
1
 10
470.0
 20
577.5650090724228
 10
500.0
 20
577.5650090724228
 10
500.0
 20
639.5650090724228
 10
470.0
 20
639.5650090724228
  0
LWPOLYLINE
  5
347
330
2D8
100
AcDbEntity
  8
LN-ELEVATION-4
100
AcDbPolyline
 90
4
 70
1
 10
-500.0
 20
577.5650090724228
 10
-470.0
 20
577.5650090724228
 10
-470.0
 20
639.5650090724228
 10
-500.0
 20
639.5650090724228
  0
LWPOLYLINE
  5
348
330
2D8
100
AcDbEntity
  8
LN-ELEVATION-4
100
AcDbPolyline
 90
4
 70
1
 10
-470.0
 20
497.565009072423
 10
-464.0
 20
497.565009072423
 10
-464.0
 20
559.5650090724229
 10
-470.0
 20
559.5650090724229
  0
LWPOLYLINE
  5
349
330
2D8
100
AcDbEntity
  8
LN-ELEVATION-4
100
AcDbPolyline
 90
4
 70
1
 10
-464.0
 20
553.565009072423
 10
-283.2000000029802
 20
553.565009072423
 10
-283.2000000029802
 20
559.5650090724229
 10
-464.0
 20
559.5650090724229
  0
LWPOLYLINE
  5
34A
330
2D8
100
AcDbEntity
  8
LN-ELEVATION-4
100
AcDbPolyline
 90
4
 70
1
 10
-283.2000000029802
 20
497.565009072423
 10
-277.2000000029802
 20
497.565009072423
 10
-277.2000000029802
 20
559.5650090724229
 10
-283.2000000029802
 20
559.5650090724229
  0
LWPOLYLINE
  5
34B
330
2D8
100
AcDbEntity
  8
LN-ELEVATION-4
100
AcDbPolyline
 90
4
 70
1
 10
-96.40000000596046
 20
497.565009072423
 10
-90.40000000596045
 20
497.565009072423
 10
-90.40000000596045
 20
559.5650090724229
 10
-96.40000000596046
 20
559.5650090724229
  0
LWPOLYLINE
  5
34C
330
2D8
100
AcDbEntity
  8
LN-ELEVATION-4
100
AcDbPolyline
 90
4
 70
1
 10
90.3999999910593
 20
497.565009072423
 10
96.3999999910593
 20
497.565009072423
 10
96.3999999910593
 20
559.5650090724229
 10
90.3999999910593
 20
559.5650090724229
  0
LWPOLYLINE
  5
34D
330
2D8
100
AcDbEntity
  8
LN-ELEVATION-4
100
AcDbPolyline
 90
4
 70
1
 10
277.1999999880791
 20
497.565009072423
 10
283.1999999880791
 20
497.565009072423
 10
283.1999999880791
 20
559.5650090724229
 10
277.1999999880791
 20
559.5650090724229
  0
LWPOLYLINE
  5
34E
330
2D8
100
AcDbEntity
  8
LN-ELEVATION-4
100
AcDbPolyline
 90
4
 70
1
 10
464.0
 20
497.565009072423
 10
470.0
 20
497.565009072423
 10
470.0
 20
559.5650090724229
 10
464.0
 20
559.5650090724229
  0
LWPOLYLINE
  5
34F
330
2D8
100
AcDbEntity
  8
LN-ELEVATION-4
100
AcDbPolyline
 90
4
 70
1
 10
-277.2000000029802
 20
553.565009072423
 10
-96.40000000596046
 20
553.565009072423
 10
-96.40000000596046
 20
559.5650090724229
 10
-277.2000000029802
 20
559.5650090724229
  0
LWPOLYLINE
  5
350
330
2D8
100
AcDbEntity
  8
LN-ELEVATION-4
100
AcDbPolyline
 90
4
 70
1
 10
-90.40000000596045
 20
553.565009072423
 10
90.3999999910593
 20
553.565009072423
 10
90.3999999910593
 20
559.5650090724229
 10
-90.40000000596045
 20
559.5650090724229
  0
LWPOLYLINE
  5
351
330
2D8
100
AcDbEntity
  8
LN-ELEVATION-4
100
AcDbPolyline
 90
4
 70
1
 10
96.3999999910593
 20
553.565009072423
 10
277.1999999880791
 20
553.565009072423
 10
277.1999999880791
 20
559.5650090724229
 10
96.3999999910593
 20
559.5650090724229
  0
LWPOLYLINE
  5
352
330
2D8
100
AcDbEntity
  8
LN-ELEVATION-4
100
AcDbPolyline
 90
4
 70
1
 10
283.1999999880791
 20
553.565009072423
 10
463.9999999850988
 20
553.565009072423
 10
463.9999999850988
 20
559.5650090724229
 10
283.1999999880791
 20
559.5650090724229
  0
LWPOLYLINE
  5
353
330
2D8
100
AcDbEntity
  8
LN-ELEVATION-5
100
AcDbPolyline
 90
4
 70
1
 10
-470.0
 20
577.5650090724228
 10
-464.0
 20
577.5650090724228
 10
-464.0
 20
639.5650090724228
 10
-470.0
 20
639.5650090724228
  0
LWPOLYLINE
  5
354
330
2D8
100
AcDbEntity
  8
LN-ELEVATION-5
100
AcDbPolyline
 90
4
 70
1
 10
-464.0
 20
633.565009072423
 10
-283.2000000029802
 20
633.565009072423
 10
-283.2000000029802
 20
639.5650090724228
 10
-464.0
 20
639.5650090724228
  0
LWPOLYLINE
  5
355
330
2D8
100
AcDbEntity
  8
LN-ELEVATION-5
100
AcDbPolyline
 90
4
 70
1
 10
-283.2000000029802
 20
577.5650090724228
 10
-277.2000000029802
 20
577.5650090724228
 10
-277.2000000029802
 20
639.5650090724228
 10
-283.2000000029802
 20
639.5650090724228
  0
LWPOLYLINE
  5
356
330
2D8
100
AcDbEntity
  8
LN-ELEVATION-5
100
AcDbPolyline
 90
4
 70
1
 10
-96.40000000596046
 20
577.5650090724228
 10
-90.40000000596045
 20
577.5650090724228
 10
-90.40000000596045
 20
639.5650090724228
 10
-96.40000000596046
 20
639.5650090724228
  0
LWPOLYLINE
  5
357
330
2D8
100
AcDbEntity
  8
LN-ELEVATION-5
100
AcDbPolyline
 90
4
 70
1
 10
90.3999999910593
 20
577.5650090724228
 10
96.3999999910593
 20
577.5650090724228
 10
96.3999999910593
 20
639.5650090724228
 10
90.3999999910593
 20
639.5650090724228
  0
LWPOLYLINE
  5
358
330
2D8
100
AcDbEntity
  8
LN-ELEVATION-5
100
AcDbPolyline
 90
4
 70
1
 10
277.1999999880791
 20
577.5650090724228
 10
283.1999999880791
 20
577.5650090724228
 10
283.1999999880791
 20
639.5650090724228
 10
277.1999999880791
 20
639.5650090724228
  0
LWPOLYLINE
  5
359
330
2D8
100
AcDbEntity
  8
LN-ELEVATION-5
100
AcDbPolyline
 90
4
 70
1
 10
464.0
 20
577.5650090724228
 10
470.0
 20
577.5650090724228
 10
470.0
 20
639.5650090724228
 10
464.0
 20
639.5650090724228
  0
LWPOLYLINE
  5
35A
330
2D8
100
AcDbEntity
  8
LN-ELEVATION-5
100
AcDbPolyline
 90
4
 70
1
 10
-277.2000000029802
 20
633.565009072423
 10
-96.40000000596046
 20
633.565009072423
 10
-96.40000000596046
 20
639.5650090724228
 10
-277.2000000029802
 20
639.5650090724228
  0
LWPOLYLINE
  5
35B
330
2D8
100
AcDbEntity
  8
LN-ELEVATION-5
100
AcDbPolyline
 90
4
 70
1
 10
-90.40000000596045
 20
633.565009072423
 10
90.3999999910593
 20
633.565009072423
 10
90.3999999910593
 20
639.5650090724228
 10
-90.40000000596045
 20
639.5650090724228
  0
LWPOLYLINE
  5
35C
330
2D8
100
AcDbEntity
  8
LN-ELEVATION-5
100
AcDbPolyline
 90
4
 70
1
 10
96.3999999910593
 20
633.565009072423
 10
277.1999999880791
 20
633.565009072423
 10
277.1999999880791
 20
639.5650090724228
 10
96.3999999910593
 20
639.5650090724228
  0
LWPOLYLINE
  5
35D
330
2D8
100
AcDbEntity
  8
LN-ELEVATION-5
100
AcDbPolyline
 90
4
 70
1
 10
283.1999999880791
 20
633.565009072423
 10
463.9999999850988
 20
633.565009072423
 10
463.9999999850988
 20
639.5650090724228
 10
283.1999999880791
 20
639.5650090724228
  0
INSERT
  5
35E
330
2D8
100
AcDbEntity
  8
I-LK DIM
100
AcDbBlockReference
  2
EURO MIRROR
 10
10.0
 20
67.14025533781387
 30
0.0
  0
LWPOLYLINE
  5
360
330
2D8
100
AcDbEntity
  8
LN-ELEVATION-1
100
AcDbPolyline
 90
4
 70
1
 10
283.1999999880791
 20
-246.434990927577
 10
470.0
 20
-246.434990927577
 10
470.0
 20
-252.434990927577
 10
283.1999999880791
 20
-252.434990927577
  0
LWPOLYLINE
  5
361
330
2D8
100
AcDbEntity
  8
LN-ELEVATION-1
100
AcDbPolyline
 90
4
 70
1
 10
96.39999997615817
 20
-246.434990927577
 10
277.1999999880791
 20
-246.434990927577
 10
277.1999999880791
 20
-252.434990927577
 10
96.39999997615817
 20
-252.434990927577
  0
LWPOLYLINE
  5
362
330
2D8
100
AcDbEntity
  8
LN-ELEVATION-1
100
AcDbPolyline
 90
4
 70
1
 10
-90.40000002086165
 20
-246.434990927577
 10
90.3999999910593
 20
-246.434990927577
 10
90.3999999910593
 20
-252.434990927577
 10
-90.40000002086165
 20
-252.434990927577
  0
LWPOLYLINE
  5
363
330
2D8
100
AcDbEntity
  8
LN-ELEVATION-1
100
AcDbPolyline
 90
4
 70
1
 10
-277.2000000178814
 20
-246.434990927577
 10
-96.40000000596046
 20
-246.434990927577
 10
-96.40000000596046
 20
-252.434990927577
 10
-277.2000000178814
 20
-252.434990927577
  0
LWPOLYLINE
  5
364
330
2D8
100
AcDbEntity
  8
LN-ELEVATION-1
100
AcDbPolyline
 90
4
 70
1
 10
-470.0000000149012
 20
-246.434990927577
 10
-283.2000000029802
 20
-246.434990927577
 10
-283.2000000029802
 20
-252.434990927577
 10
-470.0000000149012
 20
-252.434990927577
  0
LWPOLYLINE
  5
365
330
2D8
100
AcDbEntity
  8
LN-ELEVATION-1
100
AcDbPolyline
 90
4
 70
1
 10
283.1999999880791
 20
386.565009072423
 10
470.0
 20
386.565009072423
 10
470.0
 20
392.565009072423
 10
283.1999999880791
 20
392.565009072423
  0
LWPOLYLINE
  5
366
330
2D8
100
AcDbEntity
  8
LN-ELEVATION-1
100
AcDbPolyline
 90
4
 70
1
 10
96.39999997615817
 20
386.565009072423
 10
277.1999999880791
 20
386.565009072423
 10
277.1999999880791
 20
392.565009072423
 10
96.39999997615817
 20
392.565009072423
  0
LWPOLYLINE
  5
367
330
2D8
100
AcDbEntity
  8
LN-ELEVATION-1
100
AcDbPolyline
 90
4
 70
1
 10
-90.40000002086165
 20
386.565009072423
 10
90.3999999910593
 20
386.565009072423
 10
90.3999999910593
 20
392.565009072423
 10
-90.40000002086165
 20
392.565009072423
  0
LWPOLYLINE
  5
368
330
2D8
100
AcDbEntity
  8
LN-ELEVATION-1
100
AcDbPolyline
 90
4
 70
1
 10
-277.2000000178814
 20
386.565009072423
 10
-96.40000000596046
 20
386.565009072423
 10
-96.40000000596046
 20
392.565009072423
 10
-277.2000000178814
 20
392.565009072423
  0
LWPOLYLINE
  5
369
330
2D8
100
AcDbEntity
  8
LN-ELEVATION-1
100
AcDbPolyline
 90
4
 70
1
 10
-470.0000000149012
 20
386.565009072423
 10
-283.2000000029802
 20
386.565009072423
 10
-283.2000000029802
 20
392.565009072423
 10
-470.0000000149012
 20
392.565009072423
  0
ENDBLK
  5
2DA
330
2D8
100
AcDbEntity
  8
0
100
AcDbBlockEnd
  0
BLOCK
  5
36D
330
36C
100
AcDbEntity
  8
0
100
AcDbBlockBegin
  2
EURO_CENTRE_2
 70
0
 10
0.0
 20
0.0
 30
0.0
  3
EURO_CENTRE_2
  1

  0
INSERT
  5
36F
330
36C
100
AcDbEntity
  8
I-LK FF&E
100
AcDbBlockReference
  2
EUROCENTER 1040
 10
520.0000000000001
 20
517.434990927577
 30
0.0
  0
ENDBLK
  5
36E
330
36C
100
AcDbEntity
  8
0
100
AcDbBlockEnd
  0
BLOCK
  5
376
330
375
100
AcDbEntity
  8
0
100
AcDbBlockBegin
  2
EURO_CENTRE_3
 70
0
 10
0.0
 20
0.0
 30
0.0
  3
EURO_CENTRE_3
  1

  0
INSERT
  5
378
330
375
100
AcDbEntity
  8
I-LK FF&E
100
AcDbBlockReference
  2
EUROCENTER 1040
 10
520.0000000000001
 20
517.434990927577
 30
0.0
  0
ENDBLK
  5
377
330
375
100
AcDbEntity
  8
0
100
AcDbBlockEnd
  0
BLOCK
  5
387
330
386
100
AcDbEntity
  8
0
100
AcDbBlockBegin
  2
EURO_CENTRE_4
 70
0
 10
0.0
 20
0.0
 30
0.0
  3
EURO_CENTRE_4
  1

  0
INSERT
  5
389
330
386
100
AcDbEntity
  8
I-LK FF&E
100
AcDbBlockReference
  2
EUROCENTER 1040
 10
520.0000000000001
 20
517.434990927577
 30
0.0
  0
ENDBLK
  5
388
330
386
100
AcDbEntity
  8
0
100
AcDbBlockEnd
  0
BLOCK
  5
390
330
38F
100
AcDbEntity
  8
0
100
AcDbBlockBegin
  2
EURO_CENTRE_5
 70
0
 10
0.0
 20
0.0
 30
0.0
  3
EURO_CENTRE_5
  1

  0
INSERT
  5
392
330
38F
100
AcDbEntity
  8
I-LK FF&E
100
AcDbBlockReference
  2
EUROCENTER 1040
 10
520.0000000000001
 20
517.434990927577
 30
0.0
  0
ENDBLK
  5
391
330
38F
100
AcDbEntity
  8
0
100
AcDbBlockEnd
  0
BLOCK
  5
399
330
398
100
AcDbEntity
  8
0
100
AcDbBlockBegin
  2
SOFA_4
 70
0
 10
0.0
 20
0.0
 30
0.0
  3
SOFA_4
  1

  0
INSERT
  5
39B
330
398
100
AcDbEntity
  8
I-LK FF&E
100
AcDbBlockReference
  2
NESTING TABLES
 10
674.9999999999999
 20
487.5
 30
0.0
 50
180.0
  0
ENDBLK
  5
39A
330
398
100
AcDbEntity
  8
0
100
AcDbBlockEnd
  0
BLOCK
  5
3BA
330
3B9
100
AcDbEntity
  8
0
100
AcDbBlockBegin
  2
SOFA_5
 70
0
 10
0.0
 20
0.0
 30
0.0
  3
SOFA_5
  1

  0
INSERT
  5
3BC
330
3B9
100
AcDbEntity
  8
I-LK FF&E
100
AcDbBlockReference
  2
NESTING TABLES
 10
674.9999999999999
 20
487.5
 30
0.0
 50
180.0
  0
ENDBLK
  5
3BB
330
3B9
100
AcDbEntity
  8
0
100
AcDbBlockEnd
  0
ENDSEC
  0
SECTION
  2
ENTITIES
  0
LWPOLYLINE
  5
32
330
17
100
AcDbEntity
  8
FloorPlan
100
AcDbPolyline
 90
5
 70
1
 10
12674.024155435764
 20
10074.548967400919
 10
1713.002510645304
 20
13011.545865342578
 10
-1326.3395336248514
 20
1668.5669345461038
 10
9634.68211116561
 20
-1268.429963395557
 10
12674.024155435764
 20
10074.548967400919
  0
LWPOLYLINE
  5
33
330
17
100
AcDbEntity
  8
Fixtures
100
AcDbPolyline
 90
4
 70
1
 10
2243.753207085605
 20
587.9668943404004
 10
3223.778665319848
 20
587.9668943404004
 10
3223.778665319848
 20
1444.7654440646884
 10
2243.753207085605
 20
1444.7654440646884
  0
TEXT
  5
34
330
17
100
AcDbEntity
  8
FixtureLabels
100
AcDbText
 10
2733.7659362027266
 20
1016.3661692025444
 30
0.0
 40
171.35970994485763
  1
regular_clinic
 72
1
 11
2733.7659362027266
 21
1016.3661692025444
 31
0.0
100
AcDbText
 73
2
  0
LWPOLYLINE
  5
35
330
17
100
AcDbEntity
  8
Fixtures
100
AcDbPolyline
 90
4
 70
1
 10
3643.789575991667
 20
587.9668943404004
 10
4623.81503422591
 20
587.9668943404004
 10
4623.81503422591
 20
1444.7654440646884
 10
3643.789575991667
 20
1444.7654440646884
  0
TEXT
  5
36
330
17
100
AcDbEntity
  8
FixtureLabels
100
AcDbText
 10
4133.8023051087885
 20
1016.3661692025444
 30
0.0
 40
171.35970994485763
  1
regular_clinic
 72
1
 11
4133.8023051087885
 21
1016.3661692025444
 31
0.0
100
AcDbText
 73
2
  0
INSERT
  5
5E
330
17
100
AcDbEntity
  8
0
100
AcDbBlockReference
  2
SOFA_1
 10
5533.838674014849
 20
1016.3661692025444
 30
0.0
  0
INSERT
  5
65
330
17
100
AcDbEntity
  8
0
100
AcDbBlockReference
  2
SOFA_2
 10
7213.882316702123
 20
730.7666526277819
 30
0.0
  0
INSERT
  5
6C
330
17
100
AcDbEntity
  8
0
100
AcDbBlockReference
  2
SOFA_3
 10
5533.838674014849
 20
2158.764235501595
 30
0.0
  0
LWPOLYLINE
  5
6E
330
17
100
AcDbEntity
  8
Fixtures
100
AcDbPolyline
 90
4
 70
1
 10
4973.824126452426
 20
2587.1635103637395
 10
5253.831400233637
 20
2587.1635103637395
 10
5253.831400233637
 20
2872.763026938502
 10
4973.824126452426
 20
2872.763026938502
  0
TEXT
  5
6F
330
17
100
AcDbEntity
  8
FixtureLabels
100
AcDbText
 10
5113.827763343032
 20
2729.963268651121
 30
0.0
 40
56.00145475624246
  1
bench
 72
1
 11
5113.827763343032
 21
2729.963268651121
 31
0.0
100
AcDbText
 73
2
  0
LWPOLYLINE
  5
70
330
17
100
AcDbEntity
  8
Fixtures
100
AcDbPolyline
 90
4
 70
1
 10
5813.845947796062
 20
2587.1635103637395
 10
6093.853221577274
 20
2587.1635103637395
 10
6093.853221577274
 20
2872.763026938502
 10
5813.845947796062
 20
2872.763026938502
  0
TEXT
  5
71
330
17
100
AcDbEntity
  8
FixtureLabels
100
AcDbText
 10
5953.849584686668
 20
2729.963268651121
 30
0.0
 40
56.00145475624246
  1
bench
 72
1
 11
5953.849584686668
 21
2729.963268651121
 31
0.0
100
AcDbText
 73
2
  0
LWPOLYLINE
  5
72
330
17
100
AcDbEntity
  8
Fixtures
100
AcDbPolyline
 90
4
 70
1
 10
913.7186566248471
 20
1730.3649606394515
 10
1193.7259304060594
 20
1730.3649606394515
 10
1193.7259304060594
 20
3443.9620600880276
 10
913.7186566248471
 20
3443.9620600880276
  0
TEXT
  5
73
330
17
100
AcDbEntity
  8
FixtureLabels
100
AcDbText
 10
1053.7222935154532
 20
2587.1635103637395
 30
0.0
 40
56.00145475624246
  1
repair_table
 72
1
 11
1053.7222935154532
 21
2587.1635103637395
 31
0.0
100
AcDbText
 73
2
  0
INSERT
  5
89
330
17
100
AcDbEntity
  8
0
100
AcDbBlockReference
  2
MIRROR_1
 10
1193.725930406059
 20
730.7666526277819
 30
0.0
  0
INSERT
  5
92
330
17
100
AcDbEntity
  8
0
100
AcDbBlockReference
  2
STAFF_RACK_1
 10
1753.740477968484
 20
730.7666526277819
 30
0.0
  0
INSERT
  5
9A
330
17
100
AcDbEntity
  8
0
100
AcDbBlockReference
  2
STAFF_RACK_2
 10
2593.762299312121
 20
2158.764235501595
 30
0.0
  0
INSERT
  5
A2
330
17
100
AcDbEntity
  8
0
100
AcDbBlockReference
  2
STAFF_RACK_3
 10
3153.7768468745453
 20
2158.764235501595
 30
0.0
  0
INSERT
  5
AA
330
17
100
AcDbEntity
  8
0
100
AcDbBlockReference
  2
STAFF_RACK_4
 10
6793.871406030305
 20
1730.364960639451
 30
0.0
  0
INSERT
  5
B2
330
17
100
AcDbEntity
  8
0
100
AcDbBlockReference
  2
STAFF_RACK_5
 10
7353.885953592729
 20
1730.364960639451
 30
0.0
  0
INSERT
  5
BA
330
17
100
AcDbEntity
  8
0
100
AcDbBlockReference
  2
STAFF_RACK_6
 10
9733.947780733033
 20
159.56761947825635
 30
0.0
  0
INSERT
  5
C2
330
17
100
AcDbEntity
  8
0
100
AcDbBlockReference
  2
STAFF_RACK_7
 10
10993.98051274849
 20
159.56761947825635
 30
0.0
  0
LWPOLYLINE
  5
C4
330
17
100
AcDbEntity
  8
Fixtures
100
AcDbPolyline
 90
4
 70
1
 10
9243.935051615912
 20
1016.3661692025444
 10
10223.960509850154
 20
1016.3661692025444
 10
10223.960509850154
 20
2158.764235501595
 10
9243.935051615912
 20
2158.764235501595
  0
TEXT
  5
C5
330
17
100
AcDbEntity
  8
FixtureLabels
100
AcDbText
 10
9733.947780733033
 20
1587.5652023520697
 30
0.0
 40
196.00509164684863
  1
pos_ar
 72
1
 11
9733.947780733033
 21
1587.5652023520697
 31
0.0
100
AcDbText
 73
2
  0
LWPOLYLINE
  5
C6
330
17
100
AcDbEntity
  8
Fixtures
100
AcDbPolyline
 90
4
 70
1
 10
10573.96960207667
 20
1159.1659274899257
 10
10853.976875857881
 20
1159.1659274899257
 10
10853.976875857881
 20
1444.7654440646884
 10
10573.96960207667
 20
1444.7654440646884
  0
TEXT
  5
C7
330
17
100
AcDbEntity
  8
FixtureLabels
100
AcDbText
 10
10713.973238967275
 20
1301.965685777307
 30
0.0
 40
56.00145475624246
  1
bench
 72
1
 11
10713.973238967275
 21
1301.965685777307
 31
0.0
100
AcDbText
 73
2
  0
LWPOLYLINE
  5
C8
330
17
100
AcDbEntity
  8
Fixtures
100
AcDbPolyline
 90
4
 70
1
 10
10573.96960207667
 20
2015.9644772142137
 10
10853.976875857881
 20
2015.9644772142137
 10
10853.976875857881
 20
2301.5639937889764
 10
10573.96960207667
 20
2301.5639937889764
  0
TEXT
  5
C9
330
17
100
AcDbEntity
  8
FixtureLabels
100
AcDbText
 10
10713.973238967275
 20
2158.764235501595
 30
0.0
 40
56.00145475624246
  1
bench
 72
1
 11
10713.973238967275
 21
2158.764235501595
 31
0.0
100
AcDbText
 73
2
  0
LWPOLYLINE
  5
CA
330
17
100
AcDbEntity
  8
Fixtures
100
AcDbPolyline
 90
4
 70
1
 10
10433.965965186064
 20
2944.1629060821924
 10
10993.980512748487
 20
2944.1629060821924
 10
10993.980512748487
 20
3372.5621809443364
 10
10433.965965186064
 20
3372.5621809443364
  0
TEXT
  5
CB
330
17
100
AcDbEntity
  8
FixtureLabels
100
AcDbText
 10
10713.973238967275
 20
3158.3625435132644
 30
0.0
 40
85.67985497242881
  1
pos_ar
 72
1
 11
10713.973238967275
 21
3158.3625435132644
 31
0.0
100
AcDbText
 73
2
  0
LWPOLYLINE
  5
CC
330
17
100
AcDbEntity
  8
Fixtures
100
AcDbPolyline
 90
4
 70
1
 10
11133.984149639096
 20
3015.562785225883
 10
11413.991423420308
 20
3015.562785225883
 10
11413.991423420308
 20
3301.1623018006458
 10
11133.984149639096
 20
3301.1623018006458
  0
TEXT
  5
CD
330
17
100
AcDbEntity
  8
FixtureLabels
100
AcDbText
 10
11273.987786529702
 20
3158.3625435132644
 30
0.0
 40
56.00145475624246
  1
pos_ar
 72
1
 11
11273.987786529702
 21
3158.3625435132644
 31
0.0
100
AcDbText
 73
2
  0
INSERT
  5
F5
330
17
100
AcDbEntity
  8
0
100
AcDbBlockReference
  2
VC_FIXTURE_LARGE_1
 10
1053.7222935154532
 20
3443.962060088027
 30
0.0
  0
INSERT
  5
10E
330
17
100
AcDbEntity
  8
0
100
AcDbBlockReference
  2
JJ_FIXTURE_MEDIUM_1
 10
1053.7222935154532
 20
4157.960851524934
 30
0.0
  0
INSERT
  5
115
330
17
100
AcDbEntity
  8
0
100
AcDbBlockReference
  2
VC_FIXTURE_LARGE_2
 10
1053.7222935154532
 20
5014.759401249222
 30
0.0
  0
INSERT
  5
11C
330
17
100
AcDbEntity
  8
0
100
AcDbBlockReference
  2
VC_FIXTURE_LARGE_3
 10
1053.7222935154532
 20
5728.7581926861285
 30
0.0
  0
INSERT
  5
123
330
17
100
AcDbEntity
  8
0
100
AcDbBlockReference
  2
JJ_FIXTURE_MEDIUM_2
 10
1053.7222935154532
 20
6728.356500697799
 30
0.0
  0
INSERT
  5
137
330
17
100
AcDbEntity
  8
0
100
AcDbBlockReference
  2
JJ_FIXTURE_LARGE_1
 10
1053.7222935154532
 20
7442.3552921347045
 30
0.0
  0
INSERT
  5
13E
330
17
100
AcDbEntity
  8
0
100
AcDbBlockReference
  2
VC_FIXTURE_LARGE_4
 10
1053.7222935154532
 20
8441.953600146375
 30
0.0
  0
INSERT
  5
145
330
17
100
AcDbEntity
  8
0
100
AcDbBlockReference
  2
VC_FIXTURE_LARGE_5
 10
1053.7222935154532
 20
9155.95239158328
 30
0.0
  0
INSERT
  5
14C
330
17
100
AcDbEntity
  8
0
100
AcDbBlockReference
  2
JJ_FIXTURE_LARGE_2
 10
1053.7222935154532
 20
9869.951183020188
 30
0.0
  0
INSERT
  5
153
330
17
100
AcDbEntity
  8
0
100
AcDbBlockReference
  2
MIRROR_2
 10
353.7041090624223
 20
3443.962060088027
 30
0.0
  0
LWPOLYLINE
  5
155
330
17
100
AcDbEntity
  8
Fixtures
100
AcDbPolyline
 90
4
 70
1
 10
-66.3068016093961
 20
3301.1623018006458
 10
213.7004721718162
 20
3301.1623018006458
 10
213.7004721718162
 20
3586.7618183754084
 10
-66.3068016093961
 20
3586.7618183754084
  0
TEXT
  5
156
330
17
100
AcDbEntity
  8
FixtureLabels
100
AcDbText
 10
73.69683528121004
 20
3443.962060088027
 30
0.0
 40
56.00145475624246
  1
bench
 72
1
 11
73.69683528121004
 21
3443.962060088027
 31
0.0
100
AcDbText
 73
2
  0
INSERT
  5
15C
330
17
100
AcDbEntity
  8
0
100
AcDbBlockReference
  2
MIRROR_3
 10
353.7041090624223
 20
4157.960851524934
 30
0.0
  0
LWPOLYLINE
  5
15E
330
17
100
AcDbEntity
  8
Fixtures
100
AcDbPolyline
 90
4
 70
1
 10
-66.3068016093961
 20
4015.1610932375524
 10
213.7004721718162
 20
4015.1610932375524
 10
213.7004721718162
 20
4300.760609812315
 10
-66.3068016093961
 20
4300.760609812315
  0
TEXT
  5
15F
330
17
100
AcDbEntity
  8
FixtureLabels
100
AcDbText
 10
73.69683528121004
 20
4157.960851524934
 30
0.0
 40
56.00145475624246
  1
bench
 72
1
 11
73.69683528121004
 21
4157.960851524934
 31
0.0
100
AcDbText
 73
2
  0
INSERT
  5
165
330
17
100
AcDbEntity
  8
0
100
AcDbBlockReference
  2
MIRROR_4
 10
353.7041090624223
 20
5014.759401249222
 30
0.0
  0
LWPOLYLINE
  5
167
330
17
100
AcDbEntity
  8
Fixtures
100
AcDbPolyline
 90
4
 70
1
 10
-66.3068016093961
 20
4871.9596429618405
 10
213.7004721718162
 20
4871.9596429618405
 10
213.7004721718162
 20
5157.559159536603
 10
-66.3068016093961
 20
5157.559159536603
  0
TEXT
  5
168
330
17
100
AcDbEntity
  8
FixtureLabels
100
AcDbText
 10
73.69683528121004
 20
5014.759401249222
 30
0.0
 40
56.00145475624246
  1
bench
 72
1
 11
73.69683528121004
 21
5014.759401249222
 31
0.0
100
AcDbText
 73
2
  0
INSERT
  5
16E
330
17
100
AcDbEntity
  8
0
100
AcDbBlockReference
  2
MIRROR_5
 10
353.7041090624223
 20
5728.7581926861285
 30
0.0
  0
LWPOLYLINE
  5
170
330
17
100
AcDbEntity
  8
Fixtures
100
AcDbPolyline
 90
4
 70
1
 10
-66.3068016093961
 20
5585.958434398747
 10
213.7004721718162
 20
5585.958434398747
 10
213.7004721718162
 20
5871.55795097351
 10
-66.3068016093961
 20
5871.55795097351
  0
TEXT
  5
171
330
17
100
AcDbEntity
  8
FixtureLabels
100
AcDbText
 10
73.69683528121004
 20
5728.7581926861285
 30
0.0
 40
56.00145475624246
  1
bench
 72
1
 11
73.69683528121004
 21
5728.7581926861285
 31
0.0
100
AcDbText
 73
2
  0
INSERT
  5
177
330
17
100
AcDbEntity
  8
0
100
AcDbBlockReference
  2
MIRROR_6
 10
353.7041090624223
 20
7442.3552921347045
 30
0.0
  0
LWPOLYLINE
  5
179
330
17
100
AcDbEntity
  8
Fixtures
100
AcDbPolyline
 90
4
 70
1
 10
-66.3068016093961
 20
7299.555533847323
 10
213.7004721718162
 20
7299.555533847323
 10
213.7004721718162
 20
7585.155050422086
 10
-66.3068016093961
 20
7585.155050422086
  0
TEXT
  5
17A
330
17
100
AcDbEntity
  8
FixtureLabels
100
AcDbText
 10
73.69683528121004
 20
7442.3552921347045
 30
0.0
 40
56.00145475624246
  1
bench
 72
1
 11
73.69683528121004
 21
7442.3552921347045
 31
0.0
100
AcDbText
 73
2
  0
INSERT
  5
180
330
17
100
AcDbEntity
  8
0
100
AcDbBlockReference
  2
MIRROR_7
 10
353.7041090624223
 20
8441.953600146375
 30
0.0
  0
LWPOLYLINE
  5
182
330
17
100
AcDbEntity
  8
Fixtures
100
AcDbPolyline
 90
4
 70
1
 10
-66.3068016093961
 20
8299.153841858993
 10
213.7004721718162
 20
8299.153841858993
 10
213.7004721718162
 20
8584.753358433756
 10
-66.3068016093961
 20
8584.753358433756
  0
TEXT
  5
183
330
17
100
AcDbEntity
  8
FixtureLabels
100
AcDbText
 10
73.69683528121004
 20
8441.953600146375
 30
0.0
 40
56.00145475624246
  1
bench
 72
1
 11
73.69683528121004
 21
8441.953600146375
 31
0.0
100
AcDbText
 73
2
  0
INSERT
  5
189
330
17
100
AcDbEntity
  8
0
100
AcDbBlockReference
  2
MIRROR_8
 10
353.7041090624223
 20
9155.95239158328
 30
0.0
  0
LWPOLYLINE
  5
18B
330
17
100
AcDbEntity
  8
Fixtures
100
AcDbPolyline
 90
4
 70
1
 10
-66.3068016093961
 20
9013.152633295898
 10
213.7004721718162
 20
9013.152633295898
 10
213.7004721718162
 20
9298.752149870661
 10
-66.3068016093961
 20
9298.752149870661
  0
TEXT
  5
18C
330
17
100
AcDbEntity
  8
FixtureLabels
100
AcDbText
 10
73.69683528121004
 20
9155.95239158328
 30
0.0
 40
56.00145475624246
  1
bench
 72
1
 11
73.69683528121004
 21
9155.95239158328
 31
0.0
100
AcDbText
 73
2
  0
INSERT
  5
192
330
17
100
AcDbEntity
  8
0
100
AcDbBlockReference
  2
MIRROR_9
 10
353.7041090624223
 20
9869.951183020188
 30
0.0
  0
LWPOLYLINE
  5
194
330
17
100
AcDbEntity
  8
Fixtures
100
AcDbPolyline
 90
4
 70
1
 10
-66.3068016093961
 20
9727.151424732807
 10
213.7004721718162
 20
9727.151424732807
 10
213.7004721718162
 20
10012.75094130757
 10
-66.3068016093961
 20
10012.75094130757
  0
TEXT
  5
195
330
17
100
AcDbEntity
  8
FixtureLabels
100
AcDbText
 10
73.69683528121004
 20
9869.951183020188
 30
0.0
 40
56.00145475624246
  1
bench
 72
1
 11
73.69683528121004
 21
9869.951183020188
 31
0.0
100
AcDbText
 73
2
  0
INSERT
  5
19B
330
17
100
AcDbEntity
  8
0
100
AcDbBlockReference
  2
VC_FIXTURE_LARGE_6
 10
10013.955054514248
 20
4157.960851524934
 30
0.0
  0
INSERT
  5
1A2
330
17
100
AcDbEntity
  8
0
100
AcDbBlockReference
  2
JJ_FIXTURE_LARGE_3
 10
10013.955054514248
 20
4871.9596429618405
 30
0.0
  0
INSERT
  5
1A9
330
17
100
AcDbEntity
  8
0
100
AcDbBlockReference
  2
VC_FIXTURE_LARGE_7
 10
10013.955054514248
 20
5585.958434398747
 30
0.0
  0
INSERT
  5
1B0
330
17
100
AcDbEntity
  8
0
100
AcDbBlockReference
  2
VC_FIXTURE_LARGE_8
 10
10013.955054514248
 20
6299.957225835654
 30
0.0
  0
INSERT
  5
1B7
330
17
100
AcDbEntity
  8
0
100
AcDbBlockReference
  2
JJ_FIXTURE_MEDIUM_3
 10
10013.955054514248
 20
7299.555533847323
 30
0.0
  0
INSERT
  5
1BE
330
17
100
AcDbEntity
  8
0
100
AcDbBlockReference
  2
JJ_FIXTURE_LARGE_4
 10
10013.955054514248
 20
8013.55432528423
 30
0.0
  0
INSERT
  5
1C5
330
17
100
AcDbEntity
  8
0
100
AcDbBlockReference
  2
VC_FIXTURE_LARGE_9
 10
10013.955054514248
 20
9013.1526332959
 30
0.0
  0
INSERT
  5
1CC
330
17
100
AcDbEntity
  8
0
100
AcDbBlockReference
  2
VC_FIXTURE_LARGE_10
 10
10013.955054514248
 20
9727.151424732805
 30
0.0
  0
INSERT
  5
1D3
330
17
100
AcDbEntity
  8
0
100
AcDbBlockReference
  2
VC_FIXTURE_LARGE_11
 10
10013.955054514248
 20
10441.150216169714
 30
0.0
  0
INSERT
  5
1DA
330
17
100
AcDbEntity
  8
0
100
AcDbBlockReference
  2
MIRROR_10
 10
10853.976875857883
 20
4157.960851524934
 30
0.0
  0
LWPOLYLINE
  5
1DC
330
17
100
AcDbEntity
  8
Fixtures
100
AcDbPolyline
 90
4
 70
1
 10
10993.980512748489
 20
4015.1610932375524
 10
11273.9877865297
 20
4015.1610932375524
 10
11273.9877865297
 20
4300.760609812315
 10
10993.980512748489
 20
4300.760609812315
  0
TEXT
  5
1DD
330
17
100
AcDbEntity
  8
FixtureLabels
100
AcDbText
 10
11133.984149639095
 20
4157.960851524934
 30
0.0
 40
56.00145475624246
  1
bench
 72
1
 11
11133.984149639095
 21
4157.960851524934
 31
0.0
100
AcDbText
 73
2
  0
INSERT
  5
1E3
330
17
100
AcDbEntity
  8
0
100
AcDbBlockReference
  2
MIRROR_11
 10
10853.976875857883
 20
4871.9596429618405
 30
0.0
  0
LWPOLYLINE
  5
1E5
330
17
100
AcDbEntity
  8
Fixtures
100
AcDbPolyline
 90
4
 70
1
 10
10993.980512748489
 20
4729.159884674459
 10
11273.9877865297
 20
4729.159884674459
 10
11273.9877865297
 20
5014.759401249222
 10
10993.980512748489
 20
5014.759401249222
  0
TEXT
  5
1E6
330
17
100
AcDbEntity
  8
FixtureLabels
100
AcDbText
 10
11133.984149639095
 20
4871.9596429618405
 30
0.0
 40
56.00145475624246
  1
bench
 72
1
 11
11133.984149639095
 21
4871.9596429618405
 31
0.0
100
AcDbText
 73
2
  0
INSERT
  5
1EC
330
17
100
AcDbEntity
  8
0
100
AcDbBlockReference
  2
MIRROR_12
 10
10853.976875857883
 20
5585.958434398747
 30
0.0
  0
LWPOLYLINE
  5
1EE
330
17
100
AcDbEntity
  8
Fixtures
100
AcDbPolyline
 90
4
 70
1
 10
10993.980512748489
 20
5443.158676111366
 10
11273.9877865297
 20
5443.158676111366
 10
11273.9877865297
 20
5728.7581926861285
 10
10993.980512748489
 20
5728.7581926861285
  0
TEXT
  5
1EF
330
17
100
AcDbEntity
  8
FixtureLabels
100
AcDbText
 10
11133.984149639095
 20
5585.958434398747
 30
0.0
 40
56.00145475624246
  1
bench
 72
1
 11
11133.984149639095
 21
5585.958434398747
 31
0.0
100
AcDbText
 73
2
  0
INSERT
  5
1F5
330
17
100
AcDbEntity
  8
0
100
AcDbBlockReference
  2
MIRROR_13
 10
10853.976875857883
 20
6299.957225835654
 30
0.0
  0
LWPOLYLINE
  5
1F7
330
17
100
AcDbEntity
  8
Fixtures
100
AcDbPolyline
 90
4
 70
1
 10
10993.980512748489
 20
6157.1574675482725
 10
11273.9877865297
 20
6157.1574675482725
 10
11273.9877865297
 20
6442.756984123035
 10
10993.980512748489
 20
6442.756984123035
  0
TEXT
  5
1F8
330
17
100
AcDbEntity
  8
FixtureLabels
100
AcDbText
 10
11133.984149639095
 20
6299.957225835654
 30
0.0
 40
56.00145475624246
  1
bench
 72
1
 11
11133.984149639095
 21
6299.957225835654
 31
0.0
100
AcDbText
 73
2
  0
INSERT
  5
1FE
330
17
100
AcDbEntity
  8
0
100
AcDbBlockReference
  2
MIRROR_14
 10
10853.976875857883
 20
8013.55432528423
 30
0.0
  0
LWPOLYLINE
  5
200
330
17
100
AcDbEntity
  8
Fixtures
100
AcDbPolyline
 90
4
 70
1
 10
10993.980512748489
 20
7870.754566996849
 10
11273.9877865297
 20
7870.754566996849
 10
11273.9877865297
 20
8156.354083571611
 10
10993.980512748489
 20
8156.354083571611
  0
TEXT
  5
201
330
17
100
AcDbEntity
  8
FixtureLabels
100
AcDbText
 10
11133.984149639095
 20
8013.55432528423
 30
0.0
 40
56.00145475624246
  1
bench
 72
1
 11
11133.984149639095
 21
8013.55432528423
 31
0.0
100
AcDbText
 73
2
  0
INSERT
  5
207
330
17
100
AcDbEntity
  8
0
100
AcDbBlockReference
  2
MIRROR_15
 10
10853.976875857883
 20
9013.1526332959
 30
0.0
  0
LWPOLYLINE
  5
209
330
17
100
AcDbEntity
  8
Fixtures
100
AcDbPolyline
 90
4
 70
1
 10
10993.980512748489
 20
8870.352875008519
 10
11273.9877865297
 20
8870.352875008519
 10
11273.9877865297
 20
9155.952391583281
 10
10993.980512748489
 20
9155.952391583281
  0
TEXT
  5
20A
330
17
100
AcDbEntity
  8
FixtureLabels
100
AcDbText
 10
11133.984149639095
 20
9013.1526332959
 30
0.0
 40
56.00145475624246
  1
bench
 72
1
 11
11133.984149639095
 21
9013.1526332959
 31
0.0
100
AcDbText
 73
2
  0
INSERT
  5
210
330
17
100
AcDbEntity
  8
0
100
AcDbBlockReference
  2
MIRROR_16
 10
10853.976875857883
 20
9727.151424732805
 30
0.0
  0
LWPOLYLINE
  5
212
330
17
100
AcDbEntity
  8
Fixtures
100
AcDbPolyline
 90
4
 70
1
 10
10993.980512748489
 20
9584.351666445424
 10
11273.9877865297
 20
9584.351666445424
 10
11273.9877865297
 20
9869.951183020186
 10
10993.980512748489
 20
9869.951183020186
  0
TEXT
  5
213
330
17
100
AcDbEntity
  8
FixtureLabels
100
AcDbText
 10
11133.984149639095
 20
9727.151424732805
 30
0.0
 40
56.00145475624246
  1
bench
 72
1
 11
11133.984149639095
 21
9727.151424732805
 31
0.0
100
AcDbText
 73
2
  0
INSERT
  5
219
330
17
100
AcDbEntity
  8
0
100
AcDbBlockReference
  2
MIRROR_17
 10
10853.976875857883
 20
10441.150216169714
 30
0.0
  0
LWPOLYLINE
  5
21B
330
17
100
AcDbEntity
  8
Fixtures
100
AcDbPolyline
 90
4
 70
1
 10
10993.980512748489
 20
10298.350457882332
 10
11273.9877865297
 20
10298.350457882332
 10
11273.9877865297
 20
10583.949974457095
 10
10993.980512748489
 20
10583.949974457095
  0
TEXT
  5
21C
330
17
100
AcDbEntity
  8
FixtureLabels
100
AcDbText
 10
11133.984149639095
 20
10441.150216169714
 30
0.0
 40
56.00145475624246
  1
bench
 72
1
 11
11133.984149639095
 21
10441.150216169714
 31
0.0
100
AcDbText
 73
2
  0
INSERT
  5
247
330
17
100
AcDbEntity
  8
0
100
AcDbBlockReference
  2
SCREEN_55_1
 10
10713.973238967275
 20
11297.948765894002
 30
0.0
  0
INSERT
  5
25C
330
17
100
AcDbEntity
  8
0
100
AcDbBlockReference
  2
MIRROR_DIFFERENT_1
 10
2733.7659362027266
 20
4300.760609812315
 30
0.0
  0
INSERT
  5
263
330
17
100
AcDbEntity
  8
0
100
AcDbBlockReference
  2
MIRROR_DIFFERENT_2
 10
2733.7659362027266
 20
5728.7581926861285
 30
0.0
  0
INSERT
  5
26A
330
17
100
AcDbEntity
  8
0
100
AcDbBlockReference
  2
MIRROR_DIFFERENT_3
 10
2733.7659362027266
 20
8013.55432528423
 30
0.0
  0
INSERT
  5
271
330
17
100
AcDbEntity
  8
0
100
AcDbBlockReference
  2
MIRROR_DIFFERENT_4
 10
8193.907774936368
 20
4871.9596429618405
 30
0.0
  0
INSERT
  5
278
330
17
100
AcDbEntity
  8
0
100
AcDbBlockReference
  2
MIRROR_DIFFERENT_5
 10
8193.907774936368
 20
7013.9560172725605
 30
0.0
  0
INSERT
  5
27F
330
17
100
AcDbEntity
  8
0
100
AcDbBlockReference
  2
MIRROR_DIFFERENT_6
 10
8193.907774936368
 20
9441.551908158042
 30
0.0
  0
INSERT
  5
36A
330
17
100
AcDbEntity
  8
0
100
AcDbBlockReference
  2
EURO_CENTRE_1
 10
4553.813215780607
 20
3301.1623018006458
 30
0.0
  0
INSERT
  5
371
330
17
100
AcDbEntity
  8
0
100
AcDbBlockReference
  2
EURO_CENTRE_2
 10
4553.813215780607
 20
4157.960851524934
 30
0.0
  0
LWPOLYLINE
  5
373
330
17
100
AcDbEntity
  8
Fixtures
100
AcDbPolyline
 90
4
 70
1
 10
4903.822308007122
 20
4443.5603680996965
 10
5323.833218678941
 20
4443.5603680996965
 10
5323.833218678941
 20
4729.159884674459
 10
4903.822308007122
 20
4729.159884674459
  0
TEXT
  5
374
330
17
100
AcDbEntity
  8
FixtureLabels
100
AcDbText
 10
5113.827763343032
 20
4586.360126387078
 30
0.0
 40
57.11990331495254
  1
bench
 72
1
 11
5113.827763343032
 21
4586.360126387078
 31
0.0
100
AcDbText
 73
2
  0
INSERT
  5
37A
330
17
100
AcDbEntity
  8
0
100
AcDbBlockReference
  2
EURO_CENTRE_3
 10
4553.813215780607
 20
5157.559159536603
 30
0.0
  0
LWPOLYLINE
  5
37C
330
17
100
AcDbEntity
  8
Fixtures
100
AcDbPolyline
 90
4
 70
1
 10
4343.807760444697
 20
5443.158676111366
 10
4763.818671116516
 20
5443.158676111366
 10
4763.818671116516
 20
5728.7581926861285
 10
4343.807760444697
 20
5728.7581926861285
  0
TEXT
  5
37D
330
17
100
AcDbEntity
  8
FixtureLabels
100
AcDbText
 10
4553.813215780607
 20
5585.958434398747
 30
0.0
 40
57.11990331495254
  1
bench
 72
1
 11
4553.813215780607
 21
5585.958434398747
 31
0.0
100
AcDbText
 73
2
  0
LWPOLYLINE
  5
37E
330
17
100
AcDbEntity
  8
Fixtures
100
AcDbPolyline
 90
4
 70
1
 10
4343.807760444697
 20
5871.55795097351
 10
4763.818671116516
 20
5871.55795097351
 10
4763.818671116516
 20
6157.1574675482725
 10
4343.807760444697
 20
6157.1574675482725
  0
TEXT
  5
37F
330
17
100
AcDbEntity
  8
FixtureLabels
100
AcDbText
 10
4553.813215780607
 20
6014.357709260891
 30
0.0
 40
57.11990331495254
  1
bench
 72
1
 11
4553.813215780607
 21
6014.357709260891
 31
0.0
100
AcDbText
 73
2
  0
LWPOLYLINE
  5
380
330
17
100
AcDbEntity
  8
Fixtures
100
AcDbPolyline
 90
4
 70
1
 10
3923.796849772879
 20
6442.756984123036
 10
5183.8295817883345
 20
6442.756984123036
 10
5183.8295817883345
 20
6728.356500697799
 10
3923.796849772879
 20
6728.356500697799
  0
TEXT
  5
381
330
17
100
AcDbEntity
  8
FixtureLabels
100
AcDbText
 10
4553.813215780607
 20
6585.556742410417
 30
0.0
 40
57.11990331495254
  1
discussion_table
 72
1
 11
4553.813215780607
 21
6585.556742410417
 31
0.0
100
AcDbText
 73
2
  0
LWPOLYLINE
  5
382
330
17
100
AcDbEntity
  8
Fixtures
100
AcDbPolyline
 90
4
 70
1
 10
4343.807760444697
 20
6871.156258985179
 10
4763.818671116516
 20
6871.156258985179
 10
4763.818671116516
 20
7156.755775559942
 10
4343.807760444697
 20
7156.755775559942
  0
TEXT
  5
383
330
17
100
AcDbEntity
  8
FixtureLabels
100
AcDbText
 10
4553.813215780607
 20
7013.9560172725605
 30
0.0
 40
57.11990331495254
  1
bench
 72
1
 11
4553.813215780607
 21
7013.9560172725605
 31
0.0
100
AcDbText
 73
2
  0
LWPOLYLINE
  5
384
330
17
100
AcDbEntity
  8
Fixtures
100
AcDbPolyline
 90
4
 70
1
 10
3923.796849772879
 20
7299.555533847323
 10
5183.8295817883345
 20
7299.555533847323
 10
5183.8295817883345
 20
7585.155050422086
 10
3923.796849772879
 20
7585.155050422086
  0
TEXT
  5
385
330
17
100
AcDbEntity
  8
FixtureLabels
100
AcDbText
 10
4553.813215780607
 20
7442.3552921347045
 30
0.0
 40
57.11990331495254
  1
discussion_table
 72
1
 11
4553.813215780607
 21
7442.3552921347045
 31
0.0
100
AcDbText
 73
2
  0
INSERT
  5
38B
330
17
100
AcDbEntity
  8
0
100
AcDbBlockReference
  2
EURO_CENTRE_4
 10
4553.813215780607
 20
8156.354083571611
 30
0.0
  0
LWPOLYLINE
  5
38D
330
17
100
AcDbEntity
  8
Fixtures
100
AcDbPolyline
 90
4
 70
1
 10
4903.822308007122
 20
8441.953600146373
 10
5323.833218678941
 20
8441.953600146373
 10
5323.833218678941
 20
8727.553116721136
 10
4903.822308007122
 20
8727.553116721136
  0
TEXT
  5
38E
330
17
100
AcDbEntity
  8
FixtureLabels
100
AcDbText
 10
5113.827763343032
 20
8584.753358433754
 30
0.0
 40
57.11990331495254
  1
bench
 72
1
 11
5113.827763343032
 21
8584.753358433754
 31
0.0
100
AcDbText
 73
2
  0
INSERT
  5
394
330
17
100
AcDbEntity
  8
0
100
AcDbBlockReference
  2
EURO_CENTRE_5
 10
4553.813215780607
 20
9013.1526332959
 30
0.0
  0
LWPOLYLINE
  5
396
330
17
100
AcDbEntity
  8
Fixtures
100
AcDbPolyline
 90
4
 70
1
 10
4903.822308007122
 20
9298.752149870661
 10
5323.833218678941
 20
9298.752149870661
 10
5323.833218678941
 20
9584.351666445424
 10
4903.822308007122
 20
9584.351666445424
  0
TEXT
  5
397
330
17
100
AcDbEntity
  8
FixtureLabels
100
AcDbText
 10
5113.827763343032
 20
9441.551908158042
 30
0.0
 40
57.11990331495254
  1
bench
 72
1
 11
5113.827763343032
 21
9441.551908158042
 31
0.0
100
AcDbText
 73
2
  0
INSERT
  5
39D
330
17
100
AcDbEntity
  8
0
100
AcDbBlockReference
  2
SOFA_4
 10
6933.875042920911
 20
3301.1623018006458
 30
0.0
  0
LWPOLYLINE
  5
39F
330
17
100
AcDbEntity
  8
Fixtures
100
AcDbPolyline
 90
4
 70
1
 10
6723.869587585002
 20
3586.7618183754084
 10
7143.880498256821
 20
3586.7618183754084
 10
7143.880498256821
 20
3872.361334950171
 10
6723.869587585002
 20
3872.361334950171
  0
TEXT
  5
3A0
330
17
100
AcDbEntity
  8
FixtureLabels
100
AcDbText
 10
6933.875042920911
 20
3729.56157666279
 30
0.0
 40
57.11990331495254
  1
bench
 72
1
 11
6933.875042920911
 21
3729.56157666279
 31
0.0
100
AcDbText
 73
2
  0
LWPOLYLINE
  5
3A1
330
17
100
AcDbEntity
  8
Fixtures
100
AcDbPolyline
 90
4
 70
1
 10
6303.858676913183
 20
4015.1610932375524
 10
7563.891408928639
 20
4015.1610932375524
 10
7563.891408928639
 20
4300.760609812315
 10
6303.858676913183
 20
4300.760609812315
  0
TEXT
  5
3A2
330
17
100
AcDbEntity
  8
FixtureLabels
100
AcDbText
 10
6933.875042920911
 20
4157.960851524934
 30
0.0
 40
57.11990331495254
  1
discussion_table
 72
1
 11
6933.875042920911
 21
4157.960851524934
 31
0.0
100
AcDbText
 73
2
  0
LWPOLYLINE
  5
3A3
330
17
100
AcDbEntity
  8
Fixtures
100
AcDbPolyline
 90
4
 70
1
 10
6163.855040022578
 20
4443.5603680996965
 10
6583.865950694397
 20
4443.5603680996965
 10
6583.865950694397
 20
4729.159884674459
 10
6163.855040022578
 20
4729.159884674459
  0
TEXT
  5
3A4
330
17
100
AcDbEntity
  8
FixtureLabels
100
AcDbText
 10
6373.860495358487
 20
4586.360126387078
 30
0.0
 40
57.11990331495254
  1
bench
 72
1
 11
6373.860495358487
 21
4586.360126387078
 31
0.0
100
AcDbText
 73
2
  0
LWPOLYLINE
  5
3A5
330
17
100
AcDbEntity
  8
Fixtures
100
AcDbPolyline
 90
4
 70
1
 10
6723.869587585002
 20
4443.5603680996965
 10
7143.880498256821
 20
4443.5603680996965
 10
7143.880498256821
 20
4729.159884674459
 10
6723.869587585002
 20
4729.159884674459
  0
TEXT
  5
3A6
330
17
100
AcDbEntity
  8
FixtureLabels
100
AcDbText
 10
6933.875042920911
 20
4586.360126387078
 30
0.0
 40
57.11990331495254
  1
bench
 72
1
 11
6933.875042920911
 21
4586.360126387078
 31
0.0
100
AcDbText
 73
2
  0
LWPOLYLINE
  5
3A7
330
17
100
AcDbEntity
  8
Fixtures
100
AcDbPolyline
 90
4
 70
1
 10
6303.858676913183
 20
5014.759401249222
 10
7563.891408928639
 20
5014.759401249222
 10
7563.891408928639
 20
5300.3589178239845
 10
6303.858676913183
 20
5300.3589178239845
  0
TEXT
  5
3A8
330
17
100
AcDbEntity
  8
FixtureLabels
100
AcDbText
 10
6933.875042920911
 20
5157.559159536603
 30
0.0
 40
57.11990331495254
  1
discussion_table
 72
1
 11
6933.875042920911
 21
5157.559159536603
 31
0.0
100
AcDbText
 73
2
  0
LWPOLYLINE
  5
3A9
330
17
100
AcDbEntity
  8
Fixtures
100
AcDbPolyline
 90
4
 70
1
 10
7283.884135147427
 20
5443.158676111366
 10
7703.895045819246
 20
5443.158676111366
 10
7703.895045819246
 20
5728.7581926861285
 10
7283.884135147427
 20
5728.7581926861285
  0
TEXT
  5
3AA
330
17
100
AcDbEntity
  8
FixtureLabels
100
AcDbText
 10
7493.889590483336
 20
5585.958434398747
 30
0.0
 40
57.11990331495254
  1
bench
 72
1
 11
7493.889590483336
 21
5585.958434398747
 31
0.0
100
AcDbText
 73
2
  0
LWPOLYLINE
  5
3AB
330
17
100
AcDbEntity
  8
Fixtures
100
AcDbPolyline
 90
4
 70
1
 10
6303.858676913183
 20
5871.55795097351
 10
7563.891408928639
 20
5871.55795097351
 10
7563.891408928639
 20
6157.1574675482725
 10
6303.858676913183
 20
6157.1574675482725
  0
TEXT
  5
3AC
330
17
100
AcDbEntity
  8
FixtureLabels
100
AcDbText
 10
6933.875042920911
 20
6014.357709260891
 30
0.0
 40
57.11990331495254
  1
discussion_table
 72
1
 11
6933.875042920911
 21
6014.357709260891
 31
0.0
100
AcDbText
 73
2
  0
LWPOLYLINE
  5
3AD
330
17
100
AcDbEntity
  8
Fixtures
100
AcDbPolyline
 90
4
 70
1
 10
6303.858676913183
 20
6442.756984123036
 10
7563.891408928639
 20
6442.756984123036
 10
7563.891408928639
 20
6728.356500697799
 10
6303.858676913183
 20
6728.356500697799
  0
TEXT
  5
3AE
330
17
100
AcDbEntity
  8
FixtureLabels
100
AcDbText
 10
6933.875042920911
 20
6585.556742410417
 30
0.0
 40
57.11990331495254
  1
discussion_table
 72
1
 11
6933.875042920911
 21
6585.556742410417
 31
0.0
100
AcDbText
 73
2
  0
LWPOLYLINE
  5
3AF
330
17
100
AcDbEntity
  8
Fixtures
100
AcDbPolyline
 90
4
 70
1
 10
6163.855040022578
 20
6871.156258985179
 10
6583.865950694397
 20
6871.156258985179
 10
6583.865950694397
 20
7156.755775559942
 10
6163.855040022578
 20
7156.755775559942
  0
TEXT
  5
3B0
330
17
100
AcDbEntity
  8
FixtureLabels
100
AcDbText
 10
6373.860495358487
 20
7013.9560172725605
 30
0.0
 40
57.11990331495254
  1
bench
 72
1
 11
6373.860495358487
 21
7013.9560172725605
 31
0.0
100
AcDbText
 73
2
  0
LWPOLYLINE
  5
3B1
330
17
100
AcDbEntity
  8
Fixtures
100
AcDbPolyline
 90
4
 70
1
 10
6723.869587585002
 20
6871.156258985179
 10
7143.880498256821
 20
6871.156258985179
 10
7143.880498256821
 20
7156.755775559942
 10
6723.869587585002
 20
7156.755775559942
  0
TEXT
  5
3B2
330
17
100
AcDbEntity
  8
FixtureLabels
100
AcDbText
 10
6933.875042920911
 20
7013.9560172725605
 30
0.0
 40
57.11990331495254
  1
bench
 72
1
 11
6933.875042920911
 21
7013.9560172725605
 31
0.0
100
AcDbText
 73
2
  0
LWPOLYLINE
  5
3B3
330
17
100
AcDbEntity
  8
Fixtures
100
AcDbPolyline
 90
4
 70
1
 10
6303.858676913183
 20
7299.555533847323
 10
7563.891408928639
 20
7299.555533847323
 10
7563.891408928639
 20
7585.155050422086
 10
6303.858676913183
 20
7585.155050422086
  0
TEXT
  5
3B4
330
17
100
AcDbEntity
  8
FixtureLabels
100
AcDbText
 10
6933.875042920911
 20
7442.3552921347045
 30
0.0
 40
57.11990331495254
  1
discussion_table
 72
1
 11
6933.875042920911
 21
7442.3552921347045
 31
0.0
100
AcDbText
 73
2
  0
LWPOLYLINE
  5
3B5
330
17
100
AcDbEntity
  8
Fixtures
100
AcDbPolyline
 90
4
 70
1
 10
6303.858676913183
 20
8013.55432528423
 10
7563.891408928639
 20
8013.55432528423
 10
7563.891408928639
 20
8299.153841858992
 10
6303.858676913183
 20
8299.153841858992
  0
TEXT
  5
3B6
330
17
100
AcDbEntity
  8
FixtureLabels
100
AcDbText
 10
6933.875042920911
 20
8156.354083571611
 30
0.0
 40
57.11990331495254
  1
discussion_table
 72
1
 11
6933.875042920911
 21
8156.354083571611
 31
0.0
100
AcDbText
 73
2
  0
LWPOLYLINE
  5
3B7
330
17
100
AcDbEntity
  8
Fixtures
100
AcDbPolyline
 90
4
 70
1
 10
6163.855040022578
 20
8441.953600146373
 10
6583.865950694397
 20
8441.953600146373
 10
6583.865950694397
 20
8727.553116721136
 10
6163.855040022578
 20
8727.553116721136
  0
TEXT
  5
3B8
330
17
100
AcDbEntity
  8
FixtureLabels
100
AcDbText
 10
6373.860495358487
 20
8584.753358433754
 30
0.0
 40
57.11990331495254
  1
bench
 72
1
 11
6373.860495358487
 21
8584.753358433754
 31
0.0
100
AcDbText
 73
2
  0
INSERT
  5
3BE
330
17
100
AcDbEntity
  8
0
100
AcDbBlockReference
  2
SOFA_5
 10
6933.875042920911
 20
9013.1526332959
 30
0.0
  0
LWPOLYLINE
  5
3C0
330
17
100
AcDbEntity
  8
Fixtures
100
AcDbPolyline
 90
4
 70
1
 10
7283.884135147427
 20
9298.752149870661
 10
7703.895045819246
 20
9298.752149870661
 10
7703.895045819246
 20
9584.351666445424
 10
7283.884135147427
 20
9584.351666445424
  0
TEXT
  5
3C1
330
17
100
AcDbEntity
  8
FixtureLabels
100
AcDbText
 10
7493.889590483336
 20
9441.551908158042
 30
0.0
 40
57.11990331495254
  1
bench
 72
1
 11
7493.889590483336
 21
9441.551908158042
 31
0.0
100
AcDbText
 73
2
  0
LWPOLYLINE
  5
3C2
330
17
100
AcDbEntity
  8
Fixtures
100
AcDbPolyline
 90
4
 70
1
 10
4833.820489561819
 20
10012.75094130757
 10
6513.864132249092
 20
10012.75094130757
 10
6513.864132249092
 20
10298.350457882332
 10
4833.820489561819
 20
10298.350457882332
  0
TEXT
  5
3C3
330
17
100
AcDbEntity
  8
FixtureLabels
100
AcDbText
 10
5673.842310905456
 20
10155.55069959495
 30
0.0
 40
57.11990331495254
  1
pos_ar
 72
1
 11
5673.842310905456
 21
10155.55069959495
 31
0.0
100
AcDbText
 73
2
  0
LWPOLYLINE
  5
3C4
330
17
100
AcDbEntity
  8
Fixtures
100
AcDbPolyline
 90
4
 70
1
 10
5393.835037124243
 20
10441.150216169712
 10
5953.849584686668
 20
10441.150216169712
 10
5953.849584686668
 20
10726.749732744474
 10
5393.835037124243
 20
10726.749732744474
  0
TEXT
  5
3C5
330
17
100
AcDbEntity
  8
FixtureLabels
100
AcDbText
 10
5673.842310905456
 20
10583.949974457093
 30
0.0
 40
57.11990331495254
  1
bench
 72
1
 11
5673.842310905456
 21
10583.949974457093
 31
0.0
100
AcDbText
 73
2
  0
LWPOLYLINE
  5
3C6
330
17
100
AcDbEntity
  8
Fixtures
100
AcDbPolyline
 90
4
 70
1
 10
5393.835037124243
 20
10869.549491031858
 10
5953.849584686668
 20
10869.549491031858
 10
5953.849584686668
 20
11155.14900760662
 10
5393.835037124243
 20
11155.14900760662
  0
TEXT
  5
3C7
330
17
100
AcDbEntity
  8
FixtureLabels
100
AcDbText
 10
5673.842310905456
 20
11012.349249319239
 30
0.0
 40
57.11990331495254
  1
bench
 72
1
 11
5673.842310905456
 21
11012.349249319239
 31
0.0
100
AcDbText
 73
2
  0
ENDSEC
  0
SECTION
  2
OBJECTS
  0
DICTIONARY
  5
A
330
0
100
AcDbDictionary
281
1
  3
ACAD_COLOR
350
B
  3
ACAD_GROUP
350
C
  3
ACAD_LAYOUT
350
D
  3
ACAD_MATERIAL
350
E
  3
ACAD_MLEADERSTYLE
350
F
  3
ACAD_MLINESTYLE
350
10
  3
ACAD_PLOTSETTINGS
350
11
  3
ACAD_PLOTSTYLENAME
350
12
  3
ACAD_SCALELIST
350
14
  3
ACAD_TABLESTYLE
350
15
  3
ACAD_VISUALSTYLE
350
16
  3
EZDXF_META
350
2D
  0
DICTIONARY
  5
B
330
A
100
AcDbDictionary
281
1
  0
DICTIONARY
  5
C
330
A
100
AcDbDictionary
281
1
  0
DICTIONARY
  5
D
330
A
100
AcDbDictionary
281
1
  3
Model
350
1A
  3
Layout1
350
1E
  0
DICTIONARY
  5
E
330
A
100
AcDbDictionary
281
1
  3
ByBlock
350
1F
  3
ByLayer
350
20
  3
Global
350
21
  0
DICTIONARY
  5
F
330
A
100
AcDbDictionary
281
1
  3
Standard
350
2C
  0
DICTIONARY
  5
10
330
A
100
AcDbDictionary
281
1
  3
Standard
350
22
  0
DICTIONARY
  5
11
330
A
100
AcDbDictionary
281
1
  0
ACDBDICTIONARYWDFLT
  5
12
330
A
100
AcDbDictionary
281
1
  3
Normal
350
13
100
AcDbDictionaryWithDefault
340
13
  0
ACDBPLACEHOLDER
  5
13
330
12
  0
DICTIONARY
  5
14
330
A
100
AcDbDictionary
281
1
  0
DICTIONARY
  5
15
330
A
100
AcDbDictionary
281
1
  0
DICTIONARY
  5
16
330
A
100
AcDbDictionary
281
1
  0
LAYOUT
  5
1A
330
D
100
AcDbPlotSettings
  1

  4
A3
  6

 40
7.5
 41
20.0
 42
7.5
 43
20.0
 44
420.0
 45
297.0
 46
0.0
 47
0.0
 48
0.0
 49
0.0
140
0.0
141
0.0
142
1.0
143
1.0
 70
1024
 72
1
 73
0
 74
5
  7

 75
16
 76
0
 77
2
 78
300
147
1.0
148
0.0
149
0.0
100
AcDbLayout
  1
Model
 70
1
 71
0
 10
0.0
 20
0.0
 11
420.0
 21
297.0
 12
0.0
 22
0.0
 32
0.0
 14
1e+20
 24
1e+20
 34
1e+20
 15
-1e+20
 25
-1e+20
 35
-1e+20
146
0.0
 13
0.0
 23
0.0
 33
0.0
 16
1.0
 26
0.0
 36
0.0
 17
0.0
 27
1.0
 37
0.0
 76
1
330
17
  0
LAYOUT
  5
1E
330
D
100
AcDbPlotSettings
  1

  4
A3
  6

 40
7.5
 41
20.0
 42
7.5
 43
20.0
 44
420.0
 45
297.0
 46
0.0
 47
0.0
 48
0.0
 49
0.0
140
0.0
141
0.0
142
1.0
143
1.0
 70
0
 72
1
 73
0
 74
5
  7

 75
16
 76
0
 77
2
 78
300
147
1.0
148
0.0
149
0.0
100
AcDbLayout
  1
Layout1
 70
1
 71
1
 10
0.0
 20
0.0
 11
420.0
 21
297.0
 12
0.0
 22
0.0
 32
0.0
 14
1e+20
 24
1e+20
 34
1e+20
 15
-1e+20
 25
-1e+20
 35
-1e+20
146
0.0
 13
0.0
 23
0.0
 33
0.0
 16
1.0
 26
0.0
 36
0.0
 17
0.0
 27
1.0
 37
0.0
 76
1
330
1B
  0
MATERIAL
  5
1F
102
{ACAD_REACTORS
330
E
102
}
330
E
100
AcDbMaterial
  1
ByBlock
  2

 70
0
 40
1.0
 71
1
 41
1.0
 91
-1023410177
 42
1.0
 72
1
  3

 73
1
 74
1
 75
1
 44
0.5
 73
0
 45
1.0
 46
1.0
 77
1
  4

 78
1
 79
1
170
1
 48
1.0
171
1
  6

172
1
173
1
174
1
140
1.0
141
1.0
175
1
  7

176
1
177
1
178
1
143
1.0
179
1
  8

270
1
271
1
272
1
145
1.0
146
1.0
273
1
  9

274
1
275
1
276
1
 42
1.0
 72
1
  3

 73
1
 74
1
 75
1
 94
63
  0
MATERIAL
  5
20
102
{ACAD_REACTORS
330
E
102
}
330
E
100
AcDbMaterial
  1
ByLayer
  2

 70
0
 40
1.0
 71
1
 41
1.0
 91
-1023410177
 42
1.0
 72
1
  3

 73
1
 74
1
 75
1
 44
0.5
 73
0
 45
1.0
 46
1.0
 77
1
  4

 78
1
 79
1
170
1
 48
1.0
171
1
  6

172
1
173
1
174
1
140
1.0
141
1.0
175
1
  7

176
1
177
1
178
1
143
1.0
179
1
  8

270
1
271
1
272
1
145
1.0
146
1.0
273
1
  9

274
1
275
1
276
1
 42
1.0
 72
1
  3

 73
1
 74
1
 75
1
 94
63
  0
MATERIAL
  5
21
102
{ACAD_REACTORS
330
E
102
}
330
E
100
AcDbMaterial
  1
Global
  2

 70
0
 40
1.0
 71
1
 41
1.0
 91
-1023410177
 42
1.0
 72
1
  3

 73
1
 74
1
 75
1
 44
0.5
 73
0
 45
1.0
 46
1.0
 77
1
  4

 78
1
 79
1
170
1
 48
1.0
171
1
  6

172
1
173
1
174
1
140
1.0
141
1.0
175
1
  7

176
1
177
1
178
1
143
1.0
179
1
  8

270
1
271
1
272
1
145
1.0
146
1.0
273
1
  9

274
1
275
1
276
1
 42
1.0
 72
1
  3

 73
1
 74
1
 75
1
 94
63
  0
MLINESTYLE
  5
22
102
{ACAD_REACTORS
330
10
102
}
330
10
100
AcDbMlineStyle
  2
Standard
 70
0
  3

 62
256
 51
90.0
 52
90.0
 71
2
 49
0.5
 62
256
  6
BYLAYER
 49
-0.5
 62
256
  6
BYLAYER
  0
MLEADERSTYLE
  5
2C
102
{ACAD_REACTORS
330
F
102
}
330
F
100
AcDbMLeaderStyle
179
2
170
2
171
1
172
0
 90
2
 40
0.0
 41
0.0
173
1
 91
-1056964608
 92
-2
290
1
 42
2.0
291
1
 43
8.0
  3
Standard
 44
4.0
300

342
29
174
1
175
1
176
0
178
1
 93
-1056964608
 45
4.0
292
0
297
0
 46
4.0
 94
-1056964608
 47
1.0
 49
1.0
140
1.0
294
1
141
0.0
177
0
142
1.0
295
0
296
0
143
3.75
271
0
272
9
273
9
  0
DICTIONARY
  5
2D
330
A
100
AcDbDictionary
280
1
281
1
  3
CREATED_BY_EZDXF
350
2E
  3
WRITTEN_BY_EZDXF
350
3CA
  0
DICTIONARYVAR
  5
2E
330
2D
100
DictionaryVariables
280
0
  1
1.4.2 @ 2025-09-29T10:33:07.713622+00:00
  0
DICTIONARY
  5
90
330
8F
100
AcDbDictionary
280
1
281
1
  0
DICTIONARY
  5
99
330
98
100
AcDbDictionary
280
1
281
1
  0
DICTIONARY
  5
A1
330
A0
100
AcDbDictionary
280
1
281
1
  0
DICTIONARY
  5
A9
330
A8
100
AcDbDictionary
280
1
281
1
  0
DICTIONARY
  5
B1
330
B0
100
AcDbDictionary
280
1
281
1
  0
DICTIONARY
  5
B9
330
B8
100
AcDbDictionary
280
1
281
1
  0
DICTIONARY
  5
C1
330
C0
100
AcDbDictionary
280
1
281
1
  0
DICTIONARY
  5
222
330
221
100
AcDbDictionary
280
1
281
1
  0
DICTIONARY
  5
22D
330
22C
100
AcDbDictionary
280
1
281
1
  0
DICTIONARYVAR
  5
3CA
330
2D
100
DictionaryVariables
280
0
  1
1.4.2 @ 2025-09-29T10:33:08.758516+00:00
  0
ENDSEC
  0
EOF
